# Exported using Kenney Suite 1.2 

mtllib flagTankco.mtl 

g flagTankco

v 0.09999999 12.2 -0.09999999 
v 0.09999999 0 -0.09999999 
v 0.09999999 12.2 0.09999999 
v 0.09999999 0 0.09999999 
v -0.09999999 0 0.09999999 
v -0.09999999 6.456552 0.09999999 
v -0.09999999 12.1 0.09999999 
v -0.09999999 12.2 0.09999999 
v -0.09999999 0 -0.09999999 
v -0.09999999 6.456552 -0.09999999 
v -0.09999999 12.1 -0.09999999 
v -0.09999999 12.2 -0.09999999 
v -1.8 6.456552 0.09999999 
v -1.8 12.1 0.09999999 
v -1.8 12.1 -0.09999999 
v -1.8 6.456552 -0.09999999 

vn 1 0 0
vn 0 0 1
vn 0 0 -1
vn -1 0 0
vn 0 -1 0
vn 0 1 0

vt 0.3937008 48.0315
vt 0.3937008 0
vt -0.3937008 48.0315
vt -0.3937008 0
vt -0.3937008 25.4195
vt -0.3937008 47.63779
vt 0.3937008 25.4195
vt 0.3937008 47.63779
vt 0.3937008 0.3937008
vt 0.3937008 -0.3937008
vt -0.3937008 0.3937008
vt -0.3937008 -0.3937008
vt -7.086614 25.4195
vt -7.086614 47.63779
vt 7.086614 47.63779
vt 7.086614 25.4195
vt -7.086614 0.3937008
vt -7.086614 -0.3937008
vt 7.086614 -0.3937008
vt 7.086614 0.3937008
vt 1.997229 3.184437
vt 1.997229 3.786907
vt 2.997233 3.184439
vt 2.997233 3.78691
vt 2.000427 2.205679
vt 2.000427 2.80815
vt 3.000431 2.205682
vt 3.000431 2.808153

usemtl _defaultMat
usemap _defaultMat

f 2/2/1 1/1/1 3/3/1
f 3/3/1 4/4/1 2/2/1
f 5/4/2 4/2/2 3/1/2
f 3/1/2 6/5/2 5/4/2
f 3/1/2 7/6/2 6/5/2
f 3/1/2 8/3/2 7/6/2
f 2/4/3 9/2/3 10/7/3
f 10/7/3 1/3/3 2/4/3
f 10/7/3 11/8/3 1/3/3
f 11/8/3 12/1/3 1/3/3
f 11/6/4 10/5/4 6/7/4
f 6/7/4 7/8/4 11/6/4
f 5/2/4 6/7/4 10/5/4
f 10/5/4 9/4/4 5/2/4
f 12/3/4 11/6/4 7/8/4
f 7/8/4 8/1/4 12/3/4
f 2/10/5 4/9/5 5/11/5
f 5/11/5 9/12/5 2/10/5
f 3/11/6 1/12/6 12/10/6
f 12/10/6 8/9/6 3/11/6

usemtl grey
usemap grey

f 2/2/4 3/3/4 1/1/4
f 3/3/4 2/2/4 4/4/4
f 5/4/3 3/1/3 4/2/3
f 3/1/3 5/4/3 6/5/3
f 3/1/3 6/5/3 7/6/3
f 3/1/3 7/6/3 8/3/3
f 13/13/3 7/6/3 6/5/3
f 7/6/3 13/13/3 14/14/3
f 2/4/2 10/7/2 9/2/2
f 10/7/2 2/4/2 1/3/2
f 10/7/2 1/3/2 11/8/2
f 11/8/2 1/3/2 12/1/2
f 15/15/2 10/7/2 11/8/2
f 10/7/2 15/15/2 16/16/2
f 11/6/1 6/7/1 10/5/1
f 6/7/1 11/6/1 7/8/1
f 5/2/1 10/5/1 6/7/1
f 10/5/1 5/2/1 9/4/1
f 12/3/1 7/8/1 11/6/1
f 7/8/1 12/3/1 8/1/1
f 2/10/6 5/11/6 4/9/6
f 5/11/6 2/10/6 9/12/6
f 15/6/1 13/7/1 16/5/1
f 13/7/1 15/6/1 14/8/1
f 10/12/6 13/17/6 6/11/6
f 13/17/6 10/12/6 16/18/6
f 7/9/5 15/19/5 11/10/5
f 15/19/5 7/9/5 14/20/5
f 3/11/5 12/10/5 1/12/5
f 12/10/5 3/11/5 8/9/5

usemtl road
usemap road

f 15/6/4 16/5/4 13/7/4
f 13/7/4 14/8/4 15/6/4
f 10/12/5 6/11/5 13/17/5
f 13/17/5 16/18/5 10/12/5
f 7/9/6 11/10/6 15/19/6
f 15/19/6 14/20/6 7/9/6

usemtl tankco
usemap tankco

f 10/22/3 16/21/3 15/23/3
f 15/23/3 11/24/3 10/22/3
f 13/26/2 6/25/2 7/27/2
f 7/27/2 14/28/2 13/26/2
