# Exported using Kenney Suite 1.2 

mtllib roadRampLongWall.mtl 

g roadRampLongWall

v -9.183473 0 3.609557E-15 
v -9.183473 5 20 
v -10 0 0 
v -10 5 20 
v 0 0 0 
v 0 5 20 
v -0.8165262 0 3.609557E-15 
v -0.8165262 5 20 
v -10 0 20 
v 0 0 20 
v -1.548649 5.1 20 
v -0.8165262 5.2 20 
v -1.548649 5.2 20 
v -8.451351 5.1 20 
v -9.183473 5.2 20 
v -8.451351 5.2 20 
v -8.451351 0.2 0 
v -9.183473 0.2 3.609557E-15 
v -8.451351 0.09999999 0 
v -0.8165262 0.2 3.609557E-15 
v -1.548649 0.2 0 
v -1.548649 0.09999999 0 

vn 0 0.9701425 -0.2425356
vn -1 0 0
vn 1 0 0
vn 0 0 1

vt 36.15541 8.613803E-14
vt 36.15541 81.1635
vt 39.37008 7.878443E-14
vt 39.37008 81.1635
vt 0 0
vt 1.624183E-13 81.1635
vt 3.21467 7.353599E-15
vt 3.21467 81.1635
vt 78.74016 0
vt 78.74016 19.68504
vt -78.74016 19.68504
vt -78.74016 0
vt -39.37008 0
vt 0 19.68504
vt -39.37008 19.68504
vt -3.21467 19.68504
vt -36.15541 19.68504
vt -6.097044 20.07874
vt -3.21467 20.47244
vt -6.097044 20.47244
vt -33.27304 20.07874
vt -36.15541 20.47244
vt -33.27304 20.47244
vt 33.27304 0.1909729
vt 33.27304 81.35447
vt 36.15541 0.1909729
vt 36.15541 81.35447
vt 0 0.7874016
vt 0 0.3937008
vt -78.74016 20.47244
vt -78.74016 20.07874
vt 1.421085E-14 0
vt 1.421085E-14 0.7874016
vt 78.74016 20.47244
vt -1.421085E-14 0.7874016
vt -1.421085E-14 0
vt 3.21467 0.1909729
vt 3.21467 81.35447
vt 6.097044 0.1909729
vt 6.097044 81.35447
vt 4.401525E-15 0.3937008
vt 4.401525E-15 0.7874016
vt 78.74016 20.07874
vt 6.097044 0.09548647
vt 6.097044 81.25898
vt 33.27304 0.09548647
vt 33.27304 81.25898

usemtl wall
usemap wall

f 2/2/1 1/1/1 3/3/1
f 3/3/1 4/4/1 2/2/1
f 6/6/1 5/5/1 7/7/1
f 7/7/1 8/8/1 6/6/1
f 3/5/2 9/9/2 4/10/2
f 5/5/3 6/11/3 10/12/3
f 9/13/4 10/5/4 6/14/4
f 6/14/4 4/15/4 9/13/4
f 6/14/4 8/16/4 4/15/4
f 8/16/4 2/17/4 4/15/4
f 11/18/4 2/17/4 8/16/4
f 8/16/4 12/19/4 11/18/4
f 12/19/4 13/20/4 11/18/4
f 2/17/4 11/18/4 14/21/4
f 14/21/4 15/22/4 2/17/4
f 14/21/4 16/23/4 15/22/4

usemtl grey
usemap grey

f 16/25/1 17/24/1 18/26/1
f 18/26/1 15/27/1 16/25/1
f 19/29/3 17/28/3 16/30/3
f 16/30/3 14/31/3 19/29/3
f 18/33/2 1/32/2 2/10/2
f 2/10/2 15/34/2 18/33/2
f 7/36/3 20/35/3 12/30/3
f 12/30/3 8/11/3 7/36/3
f 12/38/1 20/37/1 21/39/1
f 21/39/1 13/40/1 12/38/1
f 21/42/2 22/41/2 11/43/2
f 11/43/2 13/34/2 21/42/2

usemtl road
usemap road

f 11/45/1 22/44/1 19/46/1
f 19/46/1 14/47/1 11/45/1
