# Exported using Kenney Suite 1.2 

mtllib roadHalfCircle.mtl 

g roadHalfCircle

v 0 0 2.004407E-07 
v -0.5111126 0 3.882286 
v -0.8165262 0 2.004407E-07 
v -1.299816 0 3.670953 
v -2.009619 0 7.5 
v -2.716751 0 7.091737 
v -4.393398 0 10.6066 
v -4.970769 0 10.02923 
v -7.5 0 12.99038 
v -7.908263 0 12.28325 
v -11.11771 0 14.48889 
v -11.32905 0 13.70018 
v -15 0 15 
v -15 0 14.18347 
v -18.67095 0 13.70018 
v -18.88229 0 14.48889 
v -22.09174 0 12.28325 
v -22.5 0 12.99038 
v -25.02923 0 10.02923 
v -25.6066 0 10.6066 
v -27.28325 0 7.091737 
v -27.99038 0 7.5 
v -28.70018 0 3.670954 
v -29.48889 0 3.882286 
v -29.18347 0 4.117909E-07 
v -30 0 2.004407E-07 
v -9.183473 0 2.004407E-07 
v -9.381667 0 1.505428 
v -10 0 2.004407E-07 
v -9.962741 0 2.908263 
v -10.17037 0 1.294095 
v -10.88709 0 4.112906 
v -10.66987 0 2.5 
v -11.46447 0 3.535534 
v -12.09174 0 5.03726 
v -12.5 0 4.330127 
v -13.49457 0 5.618333 
v -13.7059 0 4.829629 
v -15 0 5.816526 
v -15 0 5 
v -16.50543 0 5.618333 
v -16.29409 0 4.829629 
v -17.5 0 4.330127 
v -17.90826 0 5.03726 
v -18.53553 0 3.535534 
v -19.11291 0 4.112906 
v -19.33013 0 2.5 
v -20.03726 0 2.908263 
v -19.82963 0 1.294095 
v -20 0 2.004407E-07 
v -20.81653 0 2.004407E-07 
v -20.61833 0 1.505428 
v -9.381667 0.2 1.505428 
v -9.962741 0.2 2.908263 
v -9.183473 0.2 2.004407E-07 
v -10.88709 0.2 4.112906 
v -12.09174 0.2 5.03726 
v -8.451351 0.2 1.908303E-07 
v -8.674491 0.2 1.694915 
v -9.328704 0.2 3.274325 
v -10.36941 0.2 4.630594 
v -11.72568 0.2 5.671297 
v -13.30508 0.2 6.325509 
v -13.49457 0.2 5.618333 
v -15 0.2 6.548649 
v -15 0.2 5.816526 
v -16.69492 0.2 6.325509 
v -16.50543 0.2 5.618333 
v -17.90826 0.2 5.03726 
v -18.27432 0.2 5.671297 
v -19.11291 0.2 4.112906 
v -19.63059 0.2 4.630594 
v -20.03726 0.2 2.908263 
v -20.6713 0.2 3.274325 
v -20.61833 0.2 1.505428 
v -20.81653 0.2 2.004407E-07 
v -21.32551 0.2 1.694915 
v -21.54865 0.2 2.096875E-07 
v -11.72568 0.09999999 5.671297 
v -13.30508 0.09999999 6.325509 
v -10.36941 0.09999999 4.630594 
v -9.328704 0.09999999 3.274325 
v -8.674491 0.09999999 1.694915 
v -20.6713 0.09999999 3.274325 
v -19.63059 0.09999999 4.630594 
v -15 0.09999999 6.548649 
v -21.32551 0.09999999 1.694915 
v -16.69492 0.09999999 6.325509 
v -0.8165262 0.2 2.004407E-07 
v -1.299816 0.2 3.670953 
v -1.548649 0.2 0 
v -2.006993 0.2 3.481466 
v -2.716751 0.2 7.091737 
v -3.350788 0.2 6.725676 
v -4.970769 0.2 10.02923 
v -5.488458 0.2 9.511541 
v -7.908263 0.2 12.28325 
v -8.274324 0.2 11.64921 
v -11.32905 0.2 13.70018 
v -11.51853 0.2 12.99301 
v -15 0.2 14.18347 
v -15 0.2 13.45135 
v -18.48146 0.2 12.99301 
v -18.67095 0.2 13.70018 
v -21.72568 0.2 11.64921 
v -22.09174 0.2 12.28325 
v -24.51154 0.2 9.511541 
v -25.02923 0.2 10.02923 
v -26.64921 0.2 6.725676 
v -27.28325 0.2 7.091737 
v -27.99301 0.2 3.481466 
v -28.70018 0.2 3.670954 
v -28.45135 0.2 3.932975E-07 
v -29.18347 0.2 4.117909E-07 
v -21.54865 0.09999999 2.004407E-07 
v -18.27432 0.09999999 5.671297 
v -8.451351 0.09999999 2.004407E-07 
v -8.274324 0.09999999 11.64921 
v -5.488458 0.09999999 9.511541 
v -1.548649 0.09999999 0 
v -2.006993 0.09999999 3.481466 
v -3.350788 0.09999999 6.725676 
v -15 0.09999999 13.45135 
v -11.51853 0.09999999 12.99301 
v -18.48146 0.09999999 12.99301 
v -28.45135 0.09999999 3.932975E-07 
v -27.99301 0.09999999 3.481466 
v -21.72568 0.09999999 11.64921 
v -26.64921 0.09999999 6.725676 
v -24.51154 0.09999999 9.511541 

vn 0 1 0
vn -0.9659258 0 -0.258819
vn -0.8660254 0 -0.5
vn -0.9914449 0 -0.1305262
vn -0.7071068 0 -0.7071068
vn -0.5 0 -0.8660254
vn -0.258819 0 -0.9659258
vn 0.5 0 0.8660254
vn 0.258819 0 0.9659258
vn 0.7071068 0 0.7071068
vn 0.8660254 0 0.5
vn 0.9659258 0 0.258819
vn 0.7071068 0 -0.7071068
vn 0.5 0 -0.8660254
vn -0.8660254 0 0.5
vn -0.7071068 0 0.7071068
vn 0 0 1
vn 0 0 -1
vn -0.9659258 0 0.258819
vn -0.258819 0 0.9659258
vn 0.9914449 0 -0.1305262
vn 0.9659258 0 -0.258819
vn -0.9914449 0 0.1305262
vn 0.8660254 0 -0.5
vn -0.5 0 0.8660254
vn 0.258819 0 -0.9659258
vn 0.9914449 0 0.1305262
vn -0.9914449 0 -0.1305262
vn -0.9659258 0 -0.258819
vn -0.8660254 0 -0.5
vn -0.2588191 0 -0.9659258
vn 0.9914449 0 -0.1305262

vt 0 7.891367E-07
vt 2.012254 15.28459
vt 3.21467 7.891367E-07
vt 5.117387 14.45257
vt 7.911886 29.52756
vt 10.69587 27.92023
vt 17.29684 41.75827
vt 19.56996 39.48516
vt 29.52756 51.14323
vt 31.13489 48.35925
vt 43.77053 57.04287
vt 44.60255 53.93773
vt 59.05512 59.05512
vt 59.05512 55.84045
vt 73.50769 53.93773
vt 74.33971 57.04287
vt 86.97534 48.35925
vt 88.58268 51.14323
vt 98.54028 39.48516
vt 100.8134 41.75827
vt 107.4144 27.92023
vt 110.1983 29.52756
vt 112.9929 14.45257
vt 116.098 15.28459
vt 114.8956 1.621224E-06
vt 118.1102 7.891367E-07
vt 36.15541 7.891367E-07
vt 36.9357 5.926882
vt 39.37008 7.891367E-07
vt 39.22339 11.44986
vt 40.04083 5.094864
vt 42.86258 16.19254
vt 42.00737 9.842521
vt 45.13569 13.91943
vt 47.60526 19.83173
vt 49.2126 17.04774
vt 53.12824 22.11942
vt 53.96025 19.01429
vt 59.05512 22.89971
vt 59.05512 19.68504
vt 64.982 22.11942
vt 64.14998 19.01429
vt 68.89764 17.04774
vt 70.50497 19.83173
vt 72.97454 13.91943
vt 75.24766 16.19254
vt 76.10286 9.842521
vt 78.88685 11.44986
vt 78.0694 5.094864
vt 78.74016 7.891367E-07
vt 81.95483 7.891367E-07
vt 81.17454 5.926882
vt 19.6104 0
vt 19.6104 0.7874016
vt 25.58843 0
vt 25.58843 0.7874016
vt 4.719229 0
vt 4.719229 0.7874016
vt 10.69725 0
vt 10.69725 0.7874016
vt 32.96147 0
vt 32.96147 0.7874016
vt 38.93949 0
vt 38.93949 0.7874016
vt 49.84059 0
vt 43.86256 0
vt 49.84059 0.7874016
vt 43.86256 0.7874016
vt 33.27304 7.513006E-07
vt 34.15154 6.672895
vt 36.72718 12.89104
vt 40.82443 18.23069
vt 46.16408 22.32794
vt 52.38223 24.90358
vt 59.05512 25.78208
vt 65.72801 24.90358
vt 71.94616 22.32794
vt 77.2858 18.23069
vt 81.38306 12.89104
vt 83.95869 6.672895
vt 84.8372 8.255413E-07
vt 57.54883 0
vt 51.5708 0
vt 57.54883 0.7874016
vt 51.5708 0.7874016
vt -51.19458 0.3937008
vt -57.92505 0.3937008
vt -51.19458 0.7874016
vt -57.92505 0.7874016
vt -43.48634 0.3937008
vt -50.21681 0.3937008
vt -43.48634 0.7874016
vt -50.21681 0.7874016
vt -32.58524 0.7874016
vt -32.58524 0.3937008
vt -39.31572 0.7874016
vt -39.31572 0.3937008
vt -19.23418 0.7874016
vt -19.23418 0.3937008
vt -25.96465 0.7874016
vt -25.96465 0.3937008
vt -32.58524 0.3937008
vt -32.58524 0.7874016
vt -55.18466 0.3937008
vt -61.91513 0.3937008
vt -55.18466 0.7874016
vt -61.91513 0.7874016
vt 61.53891 0
vt 55.56088 0
vt 61.53891 0.7874016
vt 55.56088 0.7874016
vt -25.96465 0.3937008
vt -25.96465 0.7874016
vt -19.23418 0.3937008
vt -19.23418 0.7874016
vt 6.097044 0
vt 7.901546 13.70656
vt 13.19208 26.47904
vt 21.6081 37.44701
vt 32.57608 45.86304
vt 45.34856 51.15357
vt 59.05512 52.95808
vt 72.76167 51.15357
vt 85.53416 45.86304
vt 96.50213 37.44701
vt 104.9182 26.47904
vt 110.2087 13.70656
vt 112.0132 1.548415E-06
vt 10.69725 0.7874016
vt 10.69725 0
vt 4.719227 0.7874016
vt 4.719227 0
vt -11.07348 0.3937013
vt -11.07348 0.7874021
vt -4.343002 0.3937013
vt -4.343002 0.7874021
vt 38.93949 0.7874016
vt 38.93949 0
vt 32.96146 0.7874016
vt 32.96146 0
vt 25.58843 0.7874016
vt 25.58843 0
vt 19.6104 0.7874016
vt 19.6104 0
vt -4.343003 0.7874018
vt -4.343003 0.393701
vt -11.07348 0.7874018
vt -11.07348 0.393701
vt -39.56293 0
vt -54.14022 0
vt -39.56293 0.7874016
vt -54.14022 0.7874016
vt -29.88806 0
vt -29.88806 0.7874016
vt -15.31077 0
vt -15.31077 0.7874016
vt -28.66184 0.7874016
vt -28.66184 0
vt -43.23912 0.7874016
vt -43.23912 0
vt 53.76399 0.3937008
vt 39.93916 0.3937008
vt 53.76399 0.7874016
vt 39.93916 0.7874016
vt -47.27118 0
vt -61.84846 0
vt -47.27118 0.7874016
vt -61.84846 0.7874016
vt -15.31077 0.7874016
vt -15.31077 0
vt -29.88806 0.7874016
vt -29.88806 0
vt -0.4195994 0.7874016
vt -0.4195994 0
vt -14.99688 0.7874016
vt -14.99688 0
vt 0.7958238 0.3937008
vt 0.7958238 0.7874016
vt 14.62066 0.3937008
vt 14.62066 0.7874016
vt 15.687 0.3937008
vt 15.687 0.7874016
vt 29.51183 0.3937008
vt 29.51183 0.7874016
vt -51.26125 0
vt -65.83853 0
vt -51.26125 0.7874016
vt -65.83853 0.7874016
vt 29.03806 0.3937008
vt 29.03806 0.7874016
vt 42.86289 0.3937008
vt 42.86289 0.7874016
vt -14.99688 0
vt -14.99688 0.7874016
vt -0.4195988 0
vt -0.4195988 0.7874016
vt 65.46231 0.3937008
vt 51.63748 0.3937008
vt 65.46231 0.7874016
vt 51.63748 0.7874016
vt 0.7958232 0.7874016
vt 0.7958232 0.3937008
vt 61.47223 0.3937008
vt 47.6474 0.3937008
vt 61.47223 0.7874016
vt 47.6474 0.7874016
vt 29.03806 0.7874016
vt 29.03806 0.3937008
vt 6.097044 -1.139756E-17
vt 33.27304 7.891367E-07
vt 84.8372 7.891367E-07
vt 112.0132 1.548415E-06

usemtl grass
usemap grass

f 2/2/1 1/1/1 3/3/1
f 3/3/1 4/4/1 2/2/1
f 4/4/1 5/5/1 2/2/1
f 4/4/1 6/6/1 5/5/1
f 6/6/1 7/7/1 5/5/1
f 6/6/1 8/8/1 7/7/1
f 8/8/1 9/9/1 7/7/1
f 8/8/1 10/10/1 9/9/1
f 10/10/1 11/11/1 9/9/1
f 10/10/1 12/12/1 11/11/1
f 12/12/1 13/13/1 11/11/1
f 12/12/1 14/14/1 13/13/1
f 14/14/1 15/15/1 13/13/1
f 15/15/1 16/16/1 13/13/1
f 15/15/1 17/17/1 16/16/1
f 17/17/1 18/18/1 16/16/1
f 17/17/1 19/19/1 18/18/1
f 19/19/1 20/20/1 18/18/1
f 19/19/1 21/21/1 20/20/1
f 21/21/1 22/22/1 20/20/1
f 21/21/1 23/23/1 22/22/1
f 23/23/1 24/24/1 22/22/1
f 23/23/1 25/25/1 24/24/1
f 25/25/1 26/26/1 24/24/1
f 28/28/1 27/27/1 29/29/1
f 29/29/1 30/30/1 28/28/1
f 29/29/1 31/31/1 30/30/1
f 31/31/1 32/32/1 30/30/1
f 31/31/1 33/33/1 32/32/1
f 33/33/1 34/34/1 32/32/1
f 34/34/1 35/35/1 32/32/1
f 34/34/1 36/36/1 35/35/1
f 36/36/1 37/37/1 35/35/1
f 36/36/1 38/38/1 37/37/1
f 38/38/1 39/39/1 37/37/1
f 38/38/1 40/40/1 39/39/1
f 40/40/1 41/41/1 39/39/1
f 40/40/1 42/42/1 41/41/1
f 42/42/1 43/43/1 41/41/1
f 43/43/1 44/44/1 41/41/1
f 43/43/1 45/45/1 44/44/1
f 45/45/1 46/46/1 44/44/1
f 45/45/1 47/47/1 46/46/1
f 47/47/1 48/48/1 46/46/1
f 47/47/1 49/49/1 48/48/1
f 49/49/1 50/50/1 48/48/1
f 50/50/1 51/51/1 48/48/1
f 51/51/1 52/52/1 48/48/1

usemtl grey
usemap grey

f 53/54/2 28/53/2 30/55/3
f 30/55/3 54/56/3 53/54/2
f 55/58/4 27/57/4 28/59/2
f 28/59/2 53/60/2 55/58/4
f 54/62/3 30/61/3 32/63/5
f 32/63/5 56/64/5 54/62/3
f 32/66/5 35/65/6 57/67/6
f 57/67/6 56/68/5 32/66/5
f 59/70/1 58/69/1 55/27/1
f 55/27/1 60/71/1 59/70/1
f 55/27/1 53/28/1 60/71/1
f 53/28/1 61/72/1 60/71/1
f 53/28/1 54/30/1 61/72/1
f 54/30/1 56/32/1 61/72/1
f 56/32/1 62/73/1 61/72/1
f 56/32/1 57/35/1 62/73/1
f 57/35/1 63/74/1 62/73/1
f 57/35/1 64/37/1 63/74/1
f 64/37/1 65/75/1 63/74/1
f 64/37/1 66/39/1 65/75/1
f 66/39/1 67/76/1 65/75/1
f 66/39/1 68/41/1 67/76/1
f 68/41/1 69/44/1 67/76/1
f 69/44/1 70/77/1 67/76/1
f 69/44/1 71/46/1 70/77/1
f 71/46/1 72/78/1 70/77/1
f 71/46/1 73/48/1 72/78/1
f 73/48/1 74/79/1 72/78/1
f 73/48/1 75/52/1 74/79/1
f 75/52/1 76/51/1 74/79/1
f 76/51/1 77/80/1 74/79/1
f 76/51/1 78/81/1 77/80/1
f 35/83/6 37/82/7 64/84/7
f 64/84/7 57/85/6 35/83/6
f 80/87/9 79/86/8 62/88/8
f 62/88/8 63/89/9 80/87/9
f 79/91/8 81/90/10 61/92/10
f 61/92/10 62/93/8 79/91/8
f 82/95/11 60/94/11 61/96/10
f 61/96/10 81/97/10 82/95/11
f 83/99/12 59/98/12 60/100/11
f 60/100/11 82/101/11 83/99/12
f 44/66/14 46/65/13 71/67/13
f 71/67/13 69/68/14 44/66/14
f 74/96/15 84/97/15 85/102/16
f 85/102/16 72/103/16 74/96/15
f 86/105/17 80/104/9 63/106/9
f 63/106/9 65/107/17 86/105/17
f 37/109/7 39/108/18 66/110/18
f 66/110/18 64/111/7 37/109/7
f 77/113/19 87/112/19 84/114/15
f 84/114/15 74/115/15 77/113/19
f 88/105/20 86/104/17 65/106/17
f 65/106/17 67/107/20 88/105/20
f 90/4/1 89/3/1 91/116/1
f 91/116/1 92/117/1 90/4/1
f 92/117/1 93/6/1 90/4/1
f 92/117/1 94/118/1 93/6/1
f 94/118/1 95/8/1 93/6/1
f 94/118/1 96/119/1 95/8/1
f 96/119/1 97/10/1 95/8/1
f 96/119/1 98/120/1 97/10/1
f 98/120/1 99/12/1 97/10/1
f 98/120/1 100/121/1 99/12/1
f 100/121/1 101/14/1 99/12/1
f 100/121/1 102/122/1 101/14/1
f 102/122/1 103/123/1 101/14/1
f 103/123/1 104/15/1 101/14/1
f 103/123/1 105/124/1 104/15/1
f 105/124/1 106/17/1 104/15/1
f 105/124/1 107/125/1 106/17/1
f 107/125/1 108/19/1 106/17/1
f 107/125/1 109/126/1 108/19/1
f 109/126/1 110/21/1 108/19/1
f 109/126/1 111/127/1 110/21/1
f 111/127/1 112/23/1 110/21/1
f 111/127/1 113/128/1 112/23/1
f 113/128/1 114/25/1 112/23/1
f 51/130/21 76/129/21 75/131/22
f 75/131/22 52/132/22 51/130/21
f 78/134/23 115/133/23 87/135/19
f 87/135/19 77/136/19 78/134/23
f 48/138/24 73/137/24 71/139/13
f 71/139/13 46/140/13 48/138/24
f 52/142/22 75/141/22 73/143/24
f 73/143/24 48/144/24 52/142/22
f 85/91/16 116/90/25 70/92/25
f 70/92/25 72/93/16 85/91/16
f 116/87/25 88/86/20 67/88/20
f 67/88/20 70/89/25 116/87/25
f 39/109/18 41/108/26 68/110/26
f 68/110/26 66/111/18 39/109/18
f 117/146/27 58/145/27 59/147/12
f 59/147/12 83/148/12 117/146/27
f 41/83/26 44/82/14 69/84/14
f 69/84/14 68/85/26 41/83/26
f 10/150/8 8/149/10 95/151/10
f 95/151/10 97/152/8 10/150/8
f 112/154/19 23/153/19 21/155/15
f 21/155/15 110/156/15 112/154/19
f 19/150/16 17/149/25 106/151/25
f 106/151/25 108/152/16 19/150/16
f 6/158/11 93/157/11 95/159/10
f 95/159/10 8/160/10 6/158/11
f 119/162/5 118/161/6 98/163/6
f 98/163/6 96/164/5 119/162/5
f 12/166/9 10/165/8 97/167/8
f 97/167/8 99/168/9 12/166/9
f 4/170/12 90/169/12 93/171/11
f 93/171/11 6/172/11 4/170/12
f 3/174/27 89/173/27 90/175/12
f 90/175/12 4/176/12 3/174/27
f 91/178/28 120/177/28 121/179/29
f 121/179/29 92/180/29 91/178/28
f 92/182/29 121/181/29 122/183/30
f 122/183/30 94/184/30 92/182/29
f 14/186/17 12/185/9 99/187/9
f 99/187/9 101/188/17 14/186/17
f 94/190/30 122/189/30 119/191/5
f 119/191/5 96/192/5 94/190/30
f 114/194/23 25/193/23 23/195/19
f 23/195/19 112/196/19 114/194/23
f 17/166/25 15/165/20 104/167/20
f 104/167/20 106/168/25 17/166/25
f 15/186/20 14/185/17 101/187/17
f 101/187/17 104/188/20 15/186/20
f 110/159/15 21/160/15 19/158/16
f 19/158/16 108/157/16 110/159/15
f 124/198/31 123/197/18 102/199/18
f 102/199/18 100/200/31 124/198/31
f 123/198/18 125/197/26 103/199/26
f 103/199/26 102/200/18 123/198/18
f 126/179/32 113/180/32 111/201/22
f 111/201/22 127/202/22 126/179/32
f 125/204/26 128/203/14 105/205/14
f 105/205/14 103/206/26 125/204/26
f 127/183/22 111/184/22 109/182/24
f 109/182/24 129/181/24 127/183/22
f 129/191/24 109/192/24 107/207/13
f 107/207/13 130/208/13 129/191/24
f 118/204/6 124/203/31 100/205/31
f 100/205/31 98/206/6 118/204/6
f 128/162/14 130/161/13 107/163/13
f 107/163/13 105/164/14 128/162/14

usemtl road
usemap road

f 121/117/1 120/209/1 117/210/1
f 117/210/1 122/118/1 121/117/1
f 117/210/1 119/119/1 122/118/1
f 117/210/1 118/120/1 119/119/1
f 117/210/1 83/70/1 118/120/1
f 83/70/1 124/121/1 118/120/1
f 83/70/1 82/71/1 124/121/1
f 82/71/1 81/72/1 124/121/1
f 81/72/1 79/73/1 124/121/1
f 79/73/1 123/122/1 124/121/1
f 79/73/1 80/74/1 123/122/1
f 80/74/1 86/75/1 123/122/1
f 86/75/1 125/123/1 123/122/1
f 86/75/1 88/76/1 125/123/1
f 88/76/1 116/77/1 125/123/1
f 116/77/1 85/78/1 125/123/1
f 85/78/1 128/124/1 125/123/1
f 85/78/1 84/79/1 128/124/1
f 84/79/1 87/80/1 128/124/1
f 87/80/1 115/211/1 128/124/1
f 115/211/1 126/212/1 128/124/1
f 126/212/1 130/125/1 128/124/1
f 126/212/1 129/126/1 130/125/1
f 126/212/1 127/127/1 129/126/1
