# Exported using Kenney Suite 1.2 

mtllib roadHalfCircleBorder.mtl 

g roadHalfCircleBorder

v 0 0 0 
v 2.1 0 7.219114E-15 
v 0 0.2 0 
v 2.1 0.2 7.219114E-15 
v 1.517332 0.2 4.425806 
v 1.517332 6.827464E-33 4.425806 
v -0.5111126 5.868721E-32 3.882286 
v -0.5111126 0.2 3.882286 
v -0.1909656 0.2 8.55 
v -2.908474 0.2 12.09153 
v -2.009619 0.2 7.5 
v -4.393398 0.2 10.6066 
v -2.009619 1.270299E-31 7.5 
v -4.393398 2.003707E-31 10.6066 
v -0.1909656 2.684458E-32 8.55 
v -2.908474 5.868721E-32 12.09153 
v -15 2.003707E-31 17.1 
v -19.42581 2.522304E-31 16.51733 
v -15 0.2 17.1 
v -19.42581 0.2 16.51733 
v -15 4.007414E-31 15 
v -15 0.2 15 
v -18.88229 4.457736E-31 14.48889 
v -18.88229 0.2 14.48889 
v -6.45 0.2 14.80903 
v -10.57419 0.2 16.51733 
v -7.5 0.2 12.99038 
v -11.11771 0.2 14.48889 
v -7.5 2.737114E-31 12.99038 
v -11.11771 3.420541E-31 14.48889 
v -6.45 1.001853E-31 14.80903 
v -10.57419 1.485109E-31 16.51733 
v -29.48889 0.2 3.882286 
v -29.48889 4.457736E-31 3.882286 
v -27.99038 0.2 7.5 
v -27.99038 4.740821E-31 7.5 
v -22.5 4.740821E-31 12.99038 
v -22.5 0.2 12.99038 
v -25.6066 4.837376E-31 10.6066 
v -25.6066 0.2 10.6066 
v -23.55 0.2 14.80903 
v -27.09153 0.2 12.09153 
v -23.55 3.00556E-31 14.80903 
v -27.09153 3.420541E-31 12.09153 
v -29.80903 0.2 8.55 
v -31.51733 0.2 4.425806 
v -31.51733 3.939138E-31 4.425806 
v -29.80903 3.738968E-31 8.55 
v -30 0.2 -3.609557E-14 
v -30 4.007414E-31 -3.609557E-14 
v -32.1 0.2 -2.887646E-14 
v -32.1 4.007414E-31 -2.887646E-14 

vn 0 0 -1
vn 0.9914449 0 0.1305262
vn -0.9914449 0 -0.1305262
vn 0 1 0
vn -0.7933533 0 -0.6087614
vn 0.7933533 0 0.6087614
vn -0.1305262 0 0.9914449
vn 0.1305262 0 -0.9914449
vn -0.3826834 0 -0.9238795
vn 0.3826834 0 0.9238795
vn 0.9238795 0 -0.3826834
vn 0.6087614 0 -0.7933533
vn -0.6087614 0 0.7933533
vn -0.9238795 0 0.3826834
vn -0.9238795 0 -0.3826834
vn 0.9238795 0 0.3826834
vn -0.6087614 0 -0.7933533
vn 0.1305262 0 0.9914449
vn -0.1305262 0 -0.9914449
vn 0.6087614 0 0.7933533
vn -0.3826834 0 0.9238795
vn 0.7933533 0 -0.6087614
vn 0.3826834 0 -0.9238795
vn -0.7933533 0 0.6087614
vn 0.9914449 0 -0.1305262
vn -0.9914449 0 0.1305262

vt 0 0
vt -8.267716 0
vt 0 0.7874016
vt -8.267716 0.7874016
vt 1.079154 0.7874016
vt 1.079154 0
vt -16.49563 0.7874016
vt -16.49563 2.687978E-32
vt 15.41648 2.31052E-31
vt 15.41648 0.7874016
vt 0.7518331 33.66142
vt 11.45069 47.60443
vt 7.911886 29.52756
vt 17.29684 41.75827
vt 28.24224 5.001178E-31
vt 28.24224 0.7874016
vt 43.65872 7.888609E-31
vt 43.65872 0.7874016
vt -27.16308 0.7874016
vt -27.16308 1.056873E-31
vt -44.73787 0.7874016
vt -44.73787 2.31052E-31
vt -49.7625 7.888609E-31
vt -67.33729 9.930332E-31
vt -49.7625 0.7874016
vt -67.33729 0.7874016
vt 50.84165 1.577722E-30
vt 50.84165 0.7874016
vt 66.25813 1.755014E-30
vt 66.25813 0.7874016
vt 25.3937 58.30328
vt 41.63069 65.02886
vt 29.52756 51.14323
vt 43.77053 57.04286
vt 46.85157 8.163499E-15
vt 46.85157 0.7874016
vt 62.26805 8.163499E-15
vt 62.26805 0.7874016
vt -45.77242 -4.582422E-15
vt -63.34721 -4.582422E-15
vt -45.77242 0.7874016
vt -63.34721 0.7874016
vt 59.05512 59.05512
vt 59.05512 67.32284
vt 74.33971 57.04286
vt 76.47955 65.02886
vt 30.30766 0.7874016
vt 30.30766 1.755014E-30
vt 14.89118 0.7874016
vt 14.89118 1.866465E-30
vt 39.14334 1.866465E-30
vt 39.14334 0.7874016
vt 54.55981 1.904479E-30
vt 54.55981 0.7874016
vt 88.58268 51.14323
vt 92.71654 58.30328
vt 100.8134 41.75827
vt 106.6596 47.60443
vt -38.06418 1.183291E-30
vt -55.63897 1.34667E-30
vt -38.06418 0.7874016
vt -55.63897 0.7874016
vt 110.1983 29.52756
vt 117.3584 33.66142
vt 116.098 15.28459
vt 124.084 17.42443
vt -31.38681 1.550842E-30
vt -31.38681 0.7874016
vt -13.81202 1.472035E-30
vt -13.81202 0.7874016
vt -8.267716 2.842171E-14
vt -5.973747 17.42443
vt 2.012254 15.28459
vt 14.89118 -4.141625E-16
vt 30.30766 -4.141625E-16
vt -13.81202 2.767392E-15
vt -31.38681 2.767392E-15
vt 39.14334 7.888609E-31
vt 54.55981 1.077604E-30
vt -49.7625 -5.578241E-16
vt -67.33729 -5.578241E-16
vt 50.84165 -4.803753E-16
vt 66.25813 -4.803753E-16
vt -38.06418 2.31052E-31
vt -55.63897 3.944305E-31
vt -45.77242 9.930332E-31
vt -63.34721 1.183291E-30
vt 43.65872 1.866465E-30
vt 28.24224 1.904479E-30
vt 46.85157 1.755014E-30
vt 62.26805 1.866465E-30
vt -44.73787 1.472035E-30
vt -27.16308 1.34667E-30
vt 15.41648 1.577722E-30
vt -2.327027E-13 0.7874016
vt -2.327027E-13 1.755014E-30
vt 118.1102 -1.421085E-13
vt 126.378 -1.136868E-13
vt -16.49563 1.577722E-30
vt 1.079154 1.550842E-30
vt 118.1102 1.577722E-30
vt 118.1102 0.7874016
vt 126.378 1.577722E-30
vt 126.378 0.7874016

usemtl red
usemap red

f 2/2/1 1/1/1 3/3/1
f 3/3/1 4/4/1 2/2/1
f 2/6/2 4/5/2 5/7/2
f 5/7/2 6/8/2 2/6/2
f 3/3/3 1/1/3 7/9/3
f 7/9/3 8/10/3 3/3/3
f 10/12/4 9/11/4 11/13/4
f 11/13/4 12/14/4 10/12/4
f 11/16/5 13/15/5 14/17/5
f 14/17/5 12/18/5 11/16/5
f 15/20/6 9/19/6 10/21/6
f 10/21/6 16/22/6 15/20/6
f 18/24/7 17/23/7 19/25/7
f 19/25/7 20/26/7 18/24/7
f 22/28/8 21/27/8 23/29/8
f 23/29/8 24/30/8 22/28/8
f 26/32/4 25/31/4 27/33/4
f 27/33/4 28/34/4 26/32/4
f 27/36/9 29/35/9 30/37/9
f 30/37/9 28/38/9 27/36/9
f 32/40/10 31/39/10 25/41/10
f 25/41/10 26/42/10 32/40/10
f 19/44/4 22/43/4 24/45/4
f 24/45/4 20/46/4 19/44/4
f 34/48/11 33/47/11 35/49/11
f 35/49/11 36/50/11 34/48/11
f 38/52/12 37/51/12 39/53/12
f 39/53/12 40/54/12 38/52/12
f 41/56/4 38/55/4 40/57/4
f 40/57/4 42/58/4 41/56/4
f 44/60/13 43/59/13 41/61/13
f 41/61/13 42/62/13 44/60/13
f 45/64/4 35/63/4 33/65/4
f 33/65/4 46/66/4 45/64/4
f 46/68/14 47/67/14 48/69/14
f 48/69/14 45/70/14 46/68/14
f 5/72/4 4/71/4 3/1/4
f 3/1/4 8/73/4 5/72/4

usemtl white
usemap white

f 8/49/15 7/74/15 13/75/15
f 13/75/15 11/47/15 8/49/15
f 9/11/4 5/72/4 8/73/4
f 8/73/4 11/13/4 9/11/4
f 6/76/16 5/70/16 9/68/16
f 9/68/16 15/77/16 6/76/16
f 25/31/4 10/12/4 12/14/4
f 12/14/4 27/33/4 25/31/4
f 19/44/4 26/32/4 28/34/4
f 28/34/4 22/43/4 19/44/4
f 12/52/17 14/78/17 29/79/17
f 29/79/17 27/54/17 12/52/17
f 17/81/18 32/80/18 26/25/18
f 26/25/18 19/26/18 17/81/18
f 28/28/19 30/82/19 21/83/19
f 21/83/19 22/30/19 28/28/19
f 31/85/20 16/84/20 10/61/20
f 10/61/20 25/62/20 31/85/20
f 42/58/4 40/57/4 35/63/4
f 35/63/4 45/64/4 42/58/4
f 43/87/21 18/86/21 20/41/21
f 20/41/21 41/42/21 43/87/21
f 36/88/22 35/18/22 40/16/22
f 40/16/22 39/89/22 36/88/22
f 20/46/4 24/45/4 38/55/4
f 38/55/4 41/56/4 20/46/4
f 24/36/23 23/90/23 37/91/23
f 37/91/23 38/38/23 24/36/23
f 45/21/24 48/92/24 44/93/24
f 44/93/24 42/19/24 45/21/24
f 50/94/25 49/10/25 33/95/25
f 33/95/25 34/96/25 50/94/25
f 46/66/4 33/65/4 49/97/4
f 49/97/4 51/98/4 46/66/4
f 51/7/26 52/99/26 47/100/26
f 47/100/26 46/5/26 51/7/26
f 49/102/1 50/101/1 52/103/1
f 52/103/1 51/104/1 49/102/1
