# Exported using Kenney Suite 1.2 

mtllib roadSplit.mtl 

g roadSplit

v -5 0.2 8.366948 
v -5 6.705964E-31 8.366948 
v -10.81653 0.2 20 
v -10.81653 1.602965E-30 20 
v -5 0.2 6.902702 
v -5 0.09999999 6.902702 
v 1.548649 0.2 20 
v 1.548649 0.09999999 20 
v -0.8165262 0.2 0 
v -0.8165262 0 0 
v 9.183473 0.2 20 
v 9.183473 1.602965E-30 20 
v 8.451351 0.2 20 
v -1.548649 0.2 0 
v -9.183473 0 0 
v -9.183473 0.2 0 
v -19.18347 1.602965E-30 20 
v -19.18347 0.2 20 
v -1.548649 0.09999999 0 
v 8.451351 0.09999999 20 
v -11.54865 0.09999999 20 
v -11.54865 0.2 20 
v -8.451351 0.2 0 
v -8.451351 0.09999999 0 
v -18.45135 0.2 20 
v -18.45135 0.09999999 20 
v 0.8165262 1.602965E-30 20 
v 0.8165262 0.2 20 
v -10 0 0 
v -20 1.602965E-30 20 
v 0 1.602965E-30 20 
v -5 8.014827E-31 10 
v -10 1.602965E-30 20 
v 10 1.602965E-30 20 
v 0 0 0 

vn 0.8944272 0 0.4472136
vn 0.8944272 0 -0.4472136
vn 0 1 0
vn -0.8944272 0 -0.4472136
vn -0.8944272 0 0.4472136

vt -38.26651 0.7874016
vt -38.26651 3.684123E-15
vt -89.47182 0.7874016
vt -89.47182 3.684123E-15
vt -15.50353 0.7874016
vt -15.50353 0.3937008
vt -73.15402 0.7874016
vt -73.15402 0.3937008
vt 1.437644 0.7874016
vt 1.437644 -1.591899E-26
vt -86.59653 0.7874016
vt -86.59653 -1.591268E-26
vt -36.15541 78.74016
vt -33.27304 78.74016
vt 3.21467 -6.661338E-18
vt 6.097044 -6.661338E-18
vt 16.16919 4.143534E-14
vt 16.16919 0.7874016
vt 104.2034 4.143534E-14
vt 104.2034 0.7874016
vt -2.726681 0.3937008
vt -2.726681 0.7874016
vt 85.3075 0.3937008
vt 85.3075 0.7874016
vt 33.11036 0.3937008
vt 33.11036 0.7874016
vt 90.76086 0.3937008
vt 90.76086 0.7874016
vt -14.88015 0.7874016
vt -14.88015 0.3937008
vt -102.9143 0.7874016
vt -102.9143 0.3937008
vt 20.65968 -4.143534E-14
vt 20.65968 0.7874016
vt 71.86498 -4.143534E-14
vt 71.86498 0.7874016
vt 33.27304 7.771561E-18
vt 72.64311 78.74016
vt 36.15541 7.771561E-18
vt 75.52549 78.74016
vt -6.097044 78.74016
vt -3.21467 78.74016
vt 19.68504 27.17599
vt 19.68504 32.94074
vt 45.46712 78.74016
vt 42.58475 78.74016
vt 36.15541 0
vt 39.37008 0
vt 78.74016 78.74016
vt 0 78.74016
vt 19.68504 39.37008
vt 39.37008 78.74016
vt -39.37008 78.74016
vt 0 0
vt 3.21467 0
vt 6.097044 0
vt 33.27304 0

usemtl grey
usemap grey

f 2/2/1 1/1/1 3/3/1
f 3/3/1 4/4/1 2/2/1
f 6/6/2 5/5/2 7/7/2
f 7/7/2 8/8/2 6/6/2
f 10/10/2 9/9/2 11/11/2
f 11/11/2 12/12/2 10/10/2
f 13/14/3 11/13/3 9/15/3
f 9/15/3 14/16/3 13/14/3
f 16/18/4 15/17/4 17/19/4
f 17/19/4 18/20/4 16/18/4
f 14/22/5 19/21/5 20/23/5
f 20/23/5 13/24/5 14/22/5
f 5/26/4 6/25/4 21/27/4
f 21/27/4 22/28/4 5/26/4
f 24/30/1 23/29/1 25/31/1
f 25/31/1 26/32/1 24/30/1
f 1/34/5 2/33/5 27/35/5
f 27/35/5 28/36/5 1/34/5
f 25/38/3 23/37/3 16/39/3
f 16/39/3 18/40/3 25/38/3
f 28/42/3 7/41/3 5/43/3
f 5/43/3 1/44/3 28/42/3
f 5/43/3 22/45/3 1/44/3
f 22/45/3 3/46/3 1/44/3

usemtl grass
usemap grass

f 17/40/3 15/47/3 29/48/3
f 29/48/3 30/49/3 17/40/3
f 31/50/3 27/42/3 2/44/3
f 2/44/3 32/51/3 31/50/3
f 2/44/3 4/46/3 32/51/3
f 4/46/3 33/52/3 32/51/3
f 12/13/3 34/53/3 35/54/3
f 35/54/3 10/55/3 12/13/3

usemtl road
usemap road

f 8/41/3 20/14/3 19/56/3
f 19/56/3 6/43/3 8/41/3
f 19/56/3 24/57/3 6/43/3
f 24/57/3 21/45/3 6/43/3
f 24/57/3 26/38/3 21/45/3
