# Exported using Kenney Suite 1.2 

mtllib bench.mtl 

g bench

v -3.6 0.7 0.4 
v -4 0.7 0.4 
v -3.6 1.9 0.4 
v -4 1.9 0.4 
v -3.6 0 0.4 
v -4 0 0.4 
v -3.6 0.5 0.4 
v -4 0.5 0.4 
v -0.4 0.5 1.2 
v -3.6 0.5 1.2 
v -0.4 0.7 1.2 
v -3.6 0.7 1.2 
v -3.6 0.5 1.6 
v -4 0.5 1.6 
v -3.6 0.5 0.8 
v -0.4 0.5 0.8 
v -0.4 0.5 1.6 
v 0 0.5 0.4 
v 0 0.5 1.6 
v -0.4 0.5 0.4 
v -0.4 0 1.6 
v 0 0 1.6 
v -3.6 0 0 
v -4 0 0 
v 0 0 0.4 
v -0.4 0 0.4 
v -0.4 4.3 1.6 
v -0.4 2.95 1.7 
v -0.4 2.4 1.6 
v -0.4 2.4 2 
v -0.4 2.95 1.9 
v -0.4 3.35 1.9 
v -0.4 3.35 1.7 
v -0.4 4.3 2 
v 0 0.7 0.4 
v -0.4 0.7 0.4 
v 0 1.9 0.4 
v -0.4 1.9 0.4 
v -3.6 1.9 0 
v -3.6 0.7 0.8 
v -0.4 0.7 0.8 
v 0 2.4 0 
v -1.804779E-15 2.4 1.6 
v -4 2.4 0 
v -3.6 2.4 1.6 
v -4 2.4 1.6 
v -3.6 2.4 2 
v -3.6 2.95 1.9 
v -3.6 3.35 1.9 
v -4 0 1.6 
v -4 0 2 
v -4 4.7 2 
v -4 4.7 1.6 
v -4 1.9 1.6 
v -4 0.7 1.6 
v 0 4.7 1.6 
v 0 4.7 2 
v 0 1.9 1.6 
v 0 0 2 
v 0 0.7 1.6 
v 0 0 0 
v -3.6 1.9 1.6 
v -3.6 1.9 2 
v -0.4 1.9 0 
v -0.4 1.9 1.6 
v -0.4 1.9 2 
v -3.6 3.35 1.7 
v -0.4 0 2 
v -3.6 4.3 2 
v -3.6 0 2 
v -0.4 0 0 
v -3.6 2.95 1.7 
v -3.6 4.3 1.6 
v -0.4 0.7 1.6 
v -3.6 0 1.6 
v -3.6 0.7 1.6 

vn 0 0 1
vn 0 -1 0
vn 0 0 -1
vn -1 0 0
vn 1 0 0
vn 0 1 0

vt -14.17323 2.755906
vt -15.74803 2.755906
vt -14.17323 7.480315
vt -15.74803 7.480315
vt -14.17323 1.136868E-14
vt -15.74803 1.136868E-14
vt -14.17323 1.968504
vt -15.74803 1.968504
vt -1.574803 1.968504
vt -1.574803 2.755906
vt -14.17323 6.299212
vt -14.17323 4.72441
vt -15.74803 6.299212
vt -14.17323 3.149606
vt -15.74803 1.574803
vt -14.17323 1.574803
vt -1.574803 4.72441
vt -1.574803 3.149606
vt -1.574803 6.299212
vt -1.05179E-15 1.574803
vt -1.05179E-15 6.299212
vt -1.574803 1.574803
vt 1.574803 0
vt 0 0
vt 1.574803 1.968504
vt 0 1.968504
vt -14.17323 0
vt -15.74803 0
vt 0 5.684342E-15
vt -1.574803 5.684342E-15
vt 6.299212 16.92913
vt 6.692914 11.61417
vt 6.299212 9.448819
vt 7.874016 9.448819
vt 7.480315 11.61417
vt 7.480315 13.18898
vt 6.692914 13.18898
vt 7.874016 16.92913
vt 0 2.755906
vt 0 7.480315
vt -1.574803 7.480315
vt -1.598721E-14 7.480315
vt -1.598721E-14 -1.542002E-31
vt -1.574803 -1.542002E-31
vt -3.149606 2.755906
vt -3.149606 1.968504
vt 14.17323 1.968504
vt 14.17323 2.755906
vt 1.574803 2.755906
vt 7.105427E-15 6.299212
vt 15.74803 0
vt 1.574803 6.299212
vt 1.574803 7.874016
vt 14.17323 6.299212
vt 15.74803 6.299212
vt 14.17323 7.874016
vt -1.574803 11.61417
vt -14.17323 11.61417
vt -1.574803 13.18898
vt -14.17323 13.18898
vt 6.299212 -2.559494E-14
vt 6.299212 1.968504
vt 7.874016 -2.559494E-14
vt 7.874016 18.50394
vt 6.299212 18.50394
vt 6.299212 7.480315
vt 6.299212 2.755906
vt 1.574803 -2.559494E-14
vt 1.574803 7.480315
vt -1.197639E-14 9.448819
vt -1.197639E-14 -2.559494E-14
vt -6.299212 18.50394
vt -6.299212 9.448819
vt -7.874016 18.50394
vt -6.299212 7.480315
vt -6.299212 1.968504
vt -6.299212 -5.923614E-31
vt -7.874016 -7.404517E-31
vt -6.299212 2.755906
vt -1.574803 -1.480903E-31
vt 0 9.448819
vt -14.17323 7.874016
vt -1.574803 0
vt -1.574803 7.874016
vt 0 1.574803
vt 0 6.299212
vt 1.574803 6.692914
vt 14.17323 6.692914
vt 14.17323 7.480315
vt 0 18.50394
vt -1.574803 9.448819
vt -1.574803 16.92913
vt -14.17323 16.92913
vt -14.17323 9.448819
vt -15.74803 18.50394
vt 14.17323 0
vt 15.74803 9.448819
vt 1.574803 11.61417
vt 1.574803 13.18898
vt 14.17323 11.61417
vt 14.17323 13.18898
vt -1.574803 6.692914
vt -14.17323 6.692914
vt 7.096546E-14 6.299212
vt 7.096546E-14 7.874016
vt 15.74803 7.874016
vt 0 7.874016
vt 14.17323 9.448819
vt 15.74803 18.50394
vt 14.17323 16.92913
vt 1.574803 16.92913
vt 7.105427E-15 9.448819
vt 1.574803 9.448819
vt 1.574803 -3.084003E-31
vt 3.149606 2.755906
vt 3.149606 1.968504
vt -9.992007E-16 7.480315
vt -9.992007E-16 -3.084003E-31
vt 6.299212 -2.570003E-32
vt 7.874016 -2.570003E-32
vt 7.874016 7.480315
vt 4.72441 1.968504
vt 4.72441 2.755906
vt 15.74803 2.273737E-14
vt 14.17323 2.273737E-14
vt 15.74803 1.968504
vt -6.692914 13.18898
vt -6.299212 16.92913
vt -7.874016 16.92913
vt -7.480315 13.18898
vt -7.480315 11.61417
vt -6.692914 11.61417
vt -7.874016 9.448819
vt 15.74803 2.755906
vt 15.74803 7.480315
vt -7.874016 7.480315
vt -7.874016 -2.775603E-30
vt -6.299212 -2.775603E-30
vt -4.72441 1.968504
vt -4.72441 2.755906
vt -15.74803 7.874016
vt 1.472506E-15 1.574803
vt 1.472506E-15 6.299212
vt 1.574803 1.574803
vt 1.574803 3.149606
vt 1.574803 4.72441
vt 14.17323 3.149606
vt 14.17323 4.72441
vt 15.74803 1.574803
vt 14.17323 1.574803

usemtl wood
usemap wood

f 2/2/1 1/1/1 3/3/1
f 3/3/1 4/4/1 2/2/1
f 6/6/1 5/5/1 7/7/1
f 7/7/1 8/8/1 6/6/1
f 10/7/1 9/9/1 11/10/1
f 11/10/1 12/1/1 10/7/1
f 10/12/2 13/11/2 14/13/2
f 14/13/2 15/14/2 10/12/2
f 15/14/2 14/13/2 8/15/2
f 8/15/2 7/16/2 15/14/2
f 9/17/2 10/12/2 15/14/2
f 9/17/2 15/14/2 16/18/2
f 17/19/2 9/17/2 16/18/2
f 17/19/2 16/18/2 18/20/2
f 18/20/2 19/21/2 17/19/2
f 18/20/2 16/18/2 20/22/2
f 22/24/3 21/23/3 17/25/3
f 17/25/3 19/26/3 22/24/3
f 23/27/2 5/16/2 6/15/2
f 6/15/2 24/28/2 23/27/2
f 26/30/1 25/29/1 18/26/1
f 18/26/1 20/9/1 26/30/1
f 28/32/4 27/31/4 29/33/4
f 29/33/4 30/34/4 28/32/4
f 30/34/4 31/35/4 28/32/4
f 30/34/4 32/36/4 31/35/4
f 27/31/4 28/32/4 33/37/4
f 33/37/4 34/38/4 27/31/4
f 33/37/4 32/36/4 34/38/4
f 32/36/4 30/34/4 34/38/4
f 36/10/1 35/39/1 37/40/1
f 37/40/1 38/41/1 36/10/1
f 23/43/5 39/42/5 3/41/5
f 3/41/5 5/44/5 23/43/5
f 3/41/5 1/10/5 5/44/5
f 1/10/5 7/9/5 5/44/5
f 1/10/5 40/45/5 7/9/5
f 40/45/5 15/46/5 7/9/5
f 16/25/3 15/47/3 40/48/3
f 40/48/3 41/49/3 16/25/3
f 43/50/6 42/24/6 44/51/6
f 44/51/6 29/52/6 43/50/6
f 44/51/6 30/53/6 29/52/6
f 44/51/6 45/54/6 30/53/6
f 44/51/6 46/55/6 45/54/6
f 30/53/6 45/54/6 47/56/6
f 48/58/1 31/57/1 32/59/1
f 32/59/1 49/60/1 48/58/1
f 14/62/4 50/61/4 51/63/4
f 14/62/4 51/63/4 52/64/4
f 14/62/4 52/64/4 53/65/4
f 14/62/4 53/65/4 46/33/4
f 14/62/4 46/33/4 54/66/4
f 14/62/4 54/66/4 55/67/4
f 8/25/4 14/62/4 55/67/4
f 8/25/4 55/67/4 2/49/4
f 6/68/4 8/25/4 2/49/4
f 2/49/4 4/69/4 6/68/4
f 4/69/4 54/66/4 46/33/4
f 6/68/4 4/69/4 44/70/4
f 4/69/4 46/33/4 44/70/4
f 44/70/4 24/71/4 6/68/4
f 43/73/5 56/72/5 57/74/5
f 57/74/5 58/75/5 43/73/5
f 57/74/5 19/76/5 58/75/5
f 57/74/5 22/77/5 19/76/5
f 57/74/5 59/78/5 22/77/5
f 60/79/5 58/75/5 19/76/5
f 60/79/5 19/76/5 18/9/5
f 35/10/5 60/79/5 18/9/5
f 35/10/5 18/9/5 25/80/5
f 37/41/5 35/10/5 25/80/5
f 43/73/5 58/75/5 37/41/5
f 25/80/5 61/24/5 37/41/5
f 37/41/5 61/24/5 42/81/5
f 42/81/5 43/73/5 37/41/5
f 3/16/2 62/11/2 54/13/2
f 54/13/2 4/15/2 3/16/2
f 62/11/2 3/16/2 39/27/2
f 63/82/2 62/11/2 39/27/2
f 63/82/2 39/27/2 64/83/2
f 63/82/2 64/83/2 38/22/2
f 63/82/2 38/22/2 65/19/2
f 65/19/2 66/84/2 63/82/2
f 65/19/2 38/22/2 37/85/2
f 37/85/2 58/86/2 65/19/2
f 32/69/6 33/87/6 67/88/6
f 67/88/6 49/89/6 32/69/6
f 68/83/1 59/24/1 57/90/1
f 57/90/1 66/41/1 68/83/1
f 57/90/1 30/91/1 66/41/1
f 30/91/1 63/3/1 66/41/1
f 57/90/1 34/92/1 30/91/1
f 57/90/1 69/93/1 34/92/1
f 63/3/1 30/91/1 47/94/1
f 63/3/1 47/94/1 52/95/1
f 47/94/1 69/93/1 52/95/1
f 69/93/1 57/90/1 52/95/1
f 63/3/1 52/95/1 51/28/1
f 51/28/1 70/27/1 63/3/1
f 23/96/3 24/51/3 44/97/3
f 44/97/3 39/89/3 23/96/3
f 44/97/3 64/69/3 39/89/3
f 64/69/3 44/97/3 42/81/3
f 64/69/3 42/81/3 61/24/3
f 61/24/3 71/23/3 64/69/3
f 33/99/3 28/98/3 72/100/3
f 72/100/3 67/101/3 33/99/3
f 28/102/2 31/41/2 48/3/2
f 48/3/2 72/103/2 28/102/2
f 57/105/6 56/104/6 53/55/6
f 53/55/6 52/106/6 57/105/6
f 22/86/2 59/107/2 68/84/2
f 68/84/2 21/19/2 22/86/2
f 45/108/3 46/97/3 53/109/3
f 53/109/3 73/110/3 45/108/3
f 53/109/3 27/111/3 73/110/3
f 53/109/3 56/90/3 27/111/3
f 27/111/3 56/90/3 43/112/3
f 43/112/3 29/113/3 27/111/3
f 61/24/2 25/85/2 26/22/2
f 26/22/2 71/83/2 61/24/2
f 36/49/4 26/114/4 20/25/4
f 20/25/4 41/115/4 36/49/4
f 20/25/4 16/116/4 41/115/4
f 26/114/4 36/49/4 38/69/4
f 26/114/4 38/69/4 64/117/4
f 64/117/4 71/118/4 26/114/4
f 60/39/3 74/49/3 65/69/3
f 65/69/3 58/40/3 60/39/3
f 17/62/4 21/119/4 68/120/4
f 68/120/4 65/66/4 17/62/4
f 68/120/4 66/121/4 65/66/4
f 17/62/4 65/66/4 74/67/4
f 9/122/4 17/62/4 74/67/4
f 74/67/4 11/123/4 9/122/4
f 27/19/2 34/84/2 69/82/2
f 69/82/2 73/11/2 27/19/2
f 75/125/3 50/124/3 14/126/3
f 14/126/3 13/47/3 75/125/3
f 67/127/5 45/73/5 73/128/5
f 73/128/5 69/129/5 67/127/5
f 69/129/5 49/130/5 67/127/5
f 69/129/5 48/131/5 49/130/5
f 45/73/5 67/127/5 72/132/5
f 72/132/5 47/133/5 45/73/5
f 72/132/5 48/131/5 47/133/5
f 48/131/5 69/129/5 47/133/5
f 76/48/3 55/134/3 54/135/3
f 54/135/3 62/89/3 76/48/3
f 76/79/5 62/75/5 63/136/5
f 63/136/5 13/76/5 76/79/5
f 13/76/5 63/136/5 70/137/5
f 70/137/5 75/138/5 13/76/5
f 76/79/5 13/76/5 10/139/5
f 10/139/5 12/140/5 76/79/5
f 75/11/2 70/82/2 51/141/2
f 51/141/2 50/13/2 75/11/2
f 60/143/6 35/142/6 36/144/6
f 36/144/6 41/145/6 60/143/6
f 74/52/6 60/143/6 41/145/6
f 41/145/6 11/146/6 74/52/6
f 11/146/6 41/145/6 40/147/6
f 40/147/6 12/148/6 11/146/6
f 2/149/6 12/148/6 40/147/6
f 40/147/6 1/150/6 2/149/6
f 12/148/6 2/149/6 55/55/6
f 55/55/6 76/54/6 12/148/6
