# Exported using Kenney Suite 1.2 

mtllib bookcaseClosedWide.mtl 

g bookcaseClosedWide

v -0.2 5.5 0.2 
v -0.2 5.5 0.4 
v -0.4 5.5 0.2 
v -0.4 5.5 0.4 
v -7.6 5.5 0.2 
v -0.4 5.5 2.1 
v -0.4 5.5 2.3 
v -0.2 5.5 2.3 
v -0.2 5.5 2.1 
v -7.6 5.5 2.3 
v -7.6 5.5 0.4 
v -7.8 5.5 0.2 
v -7.8 5.5 0.4 
v -7.6 5.5 2.1 
v -7.8 5.5 2.1 
v -7.8 5.5 2.3 
v -7.6 0 0.4 
v -7.6 0 0 
v -8 0 0.4 
v -8 0 0 
v 0 0 2.5 
v 0 0 2.1 
v -0.4 0 2.5 
v -0.4 0 2.1 
v 0 0 0.4 
v 0 0 0 
v -0.4 0 0.4 
v -0.4 0 0 
v -7.6 3.1 2.1 
v -7.6 3.1 2.3 
v -7.8 3.1 2.1 
v -7.8 3.1 2.3 
v -7.8 3.1 0.4 
v -7.6 3.1 0.4 
v -7.8 3.1 0.2 
v -7.6 3.1 0.2 
v -0.4 3.1 2.3 
v -0.4 3.1 2.1 
v -0.2 3.1 2.3 
v -0.2 3.1 2.1 
v -0.4 3.1 0.4 
v -0.4 3.1 0.2 
v -0.2 3.1 0.4 
v -0.2 3.1 0.2 
v -7.6 0 2.5 
v -7.6 0 2.1 
v -8 0 2.5 
v -8 0 2.1 
v -0.2 0.7 2.1 
v -0.2 0.7 2.3 
v -0.4 0.7 2.1 
v -0.4 0.7 2.3 
v -7.6 0.7 0.2 
v -0.4 0.7 0.4 
v -0.4 0.7 0.2 
v -0.2 0.7 0.4 
v -0.2 0.7 0.2 
v -7.6 0.7 2.3 
v -7.6 0.7 0.4 
v -7.8 0.7 0.2 
v -7.8 0.7 0.4 
v -7.6 0.7 2.1 
v -7.8 0.7 2.1 
v -7.8 0.7 2.3 
v 0 0.4 0.4 
v -0.4 0.4 0.4 
v -7.6 7.6 2.1 
v -7.6 7.6 0.4 
v -7.8 7.6 2.1 
v -7.8 7.6 0.4 
v -7.6 7.6 0 
v -7.6 7.6 2.3 
v -0.4 7.6 0 
v -0.4 7.6 0.4 
v -0.4 7.6 2.1 
v -0.4 7.6 2.3 
v -0.2 7.6 0.4 
v -0.2 7.6 2.1 
v -0.4 0.4 2.1 
v -0.4 0.4 2.5 
v -7.6 5.2 0.2 
v -0.4 5.2 0.2 
v -7.6 0.4 0.2 
v -7.6 5.2 0.4 
v -7.6 2.8 0.2 
v -7.6 2.8 0.4 
v -7.6 0.4 0.4 
v -0.4 2.8 0.2 
v -0.4 0.4 0.2 
v -0.4 2.8 0.4 
v -0.4 5.2 0.4 
v -7.6 0.4 2.1 
v -8 0.4 2.1 
v -8 0.4 0.4 
v -7.6 0.4 2.5 
v 0 0.4 2.1 
v -0.2 5.2 0.4 
v -0.2 2.8 0.4 
v -7.8 5.2 2.1 
v -7.6 5.2 2.1 
v -7.8 2.8 0.4 
v -7.8 2.8 2.1 
v -7.6 2.8 2.1 
v -7.8 5.2 0.4 
v -7.6 5.2 2.3 
v -0.4 5.2 2.1 
v -0.4 5.2 2.3 
v -0.2 5.2 2.1 
v -7.219114E-15 7.6 0.4 
v 0 7.9 0 
v -7.219114E-15 7.9 2.5 
v -7.219114E-15 7.6 2.1 
v 0 5.5 2.1 
v 0 5.2 2.1 
v 0 3.1 2.1 
v 0 2.8 2.1 
v 0 0.7 2.1 
v 0 0.7 0.4 
v 0 2.8 0.4 
v 0 3.1 0.4 
v 0 5.2 0.4 
v 0 5.5 0.4 
v -7.6 2.8 2.3 
v -0.4 2.8 2.1 
v -0.4 2.8 2.3 
v -0.2 2.8 2.1 
v -8 0.7 2.1 
v -8 2.8 2.1 
v -8 3.1 2.1 
v -8 5.2 2.1 
v -8 5.5 2.1 
v -8 7.6 2.1 
v -8 7.9 2.5 
v -8 7.6 0.4 
v -8 7.9 0 
v -8 0.7 0.4 
v -8 2.8 0.4 
v -8 3.1 0.4 
v -8 5.2 0.4 
v -8 5.5 0.4 
v -0.4 0.7 2.5 
v -0.4 2.8 2.5 
v -0.4 3.1 2.5 
v -7.6 2.8 2.5 
v -0.4 5.2 2.5 
v -0.4 5.5 2.5 
v -7.6 5.2 2.5 
v -0.4 7.6 2.5 
v -7.6 7.6 2.5 
v -7.6 0.7 2.5 
v -7.6 3.1 2.5 
v -7.6 5.5 2.5 
v -7.9 3.1 0.4 
v -7.9 5.2 0.4 
v -7.9 3.1 2.1 
v -7.9 5.2 2.1 
v -7.9 0.7 0.4 
v -7.9 2.8 0.4 
v -7.9 0.7 2.1 
v -7.9 2.8 2.1 
v -0.4 5.5 2.4 
v -7.6 5.5 2.4 
v -0.4 7.6 2.4 
v -7.6 7.6 2.4 
v -0.4 3.1 2.4 
v -7.6 3.1 2.4 
v -0.4 5.2 2.4 
v -7.6 5.2 2.4 
v -0.4 0.7 2.4 
v -7.6 0.7 2.4 
v -0.4 2.8 2.4 
v -7.6 2.8 2.4 
v -0.09999999 2.8 0.4 
v -0.09999999 0.7 0.4 
v -0.09999999 2.8 2.1 
v -0.09999999 0.7 2.1 
v -0.09999999 5.2 0.4 
v -0.09999999 3.1 0.4 
v -0.09999999 5.2 2.1 
v -0.09999999 3.1 2.1 
v -0.09999999 7.6 0.4 
v -0.09999999 5.5 0.4 
v -0.09999999 7.6 2.1 
v -0.09999999 5.5 2.1 
v -7.9 5.5 0.4 
v -7.9 7.6 0.4 
v -7.9 5.5 2.1 
v -7.9 7.6 2.1 

vn 0 1 0
vn 0 -1 0
vn 0 0 1
vn -1 0 0
vn 0 0 -1
vn 1 0 0

vt 0.7874016 0.7874016
vt 0.7874016 1.574803
vt 1.574803 0.7874016
vt 1.574803 1.574803
vt 29.92126 0.7874016
vt 1.574803 8.267716
vt 1.574803 9.055119
vt 0.7874016 9.055119
vt 0.7874016 8.267716
vt 29.92126 9.055119
vt 29.92126 1.574803
vt 30.70866 0.7874016
vt 30.70866 1.574803
vt 29.92126 8.267716
vt 30.70866 8.267716
vt 30.70866 9.055119
vt -29.92126 1.574803
vt -29.92126 0
vt -31.49606 1.574803
vt -31.49606 0
vt 0 9.84252
vt 0 8.267716
vt -1.574803 9.84252
vt -1.574803 8.267716
vt 0 1.574803
vt 0 0
vt -1.574803 1.574803
vt -1.574803 0
vt -29.92126 9.84252
vt -29.92126 8.267716
vt -31.49606 9.84252
vt -31.49606 8.267716
vt -30.70866 8.267716
vt -30.70866 1.574803
vt -29.92126 -3.244292E-16
vt -29.92126 9.055119
vt -1.574803 -3.244292E-16
vt -1.574803 9.055119
vt -0.7874016 1.574803
vt -0.7874016 8.267716
vt 8.267716 0
vt 8.267716 1.574803
vt 9.84252 0
vt 9.84252 1.574803
vt 29.92126 20.47244
vt 1.574803 20.47244
vt 29.92126 21.65354
vt 1.574803 21.65354
vt -0.7874016 21.65354
vt 0 29.92126
vt -1.574803 29.92126
vt -1.574803 21.65354
vt -0.7874016 20.47244
vt -0.7874016 12.20472
vt -1.574803 20.47244
vt -1.574803 12.20472
vt -0.7874016 11.02362
vt -0.7874016 2.755906
vt -1.574803 11.02362
vt -1.574803 2.755906
vt 29.92126 11.02362
vt 1.574803 11.02362
vt 29.92126 12.20472
vt 1.574803 12.20472
vt 29.92126 2.755906
vt 1.574803 2.755906
vt 4.77365E-31 29.92126
vt 4.77365E-31 5.80326E-31
vt 1.574803 5.80326E-31
vt 0.7874016 21.65354
vt 1.574803 29.92126
vt 0.7874016 2.755906
vt 0.7874016 11.02362
vt 0.7874016 12.20472
vt 0.7874016 20.47244
vt -29.92126 0.7874016
vt -1.574803 0.7874016
vt 31.49606 0
vt 29.92126 0
vt 31.49606 1.574803
vt -0.7874016 29.92126
vt 1.574803 0
vt 30.70866 12.20472
vt 30.70866 20.47244
vt -29.92126 2.755906
vt -30.70866 2.755906
vt -29.92126 11.02362
vt -30.70866 11.02362
vt 30.70866 2.755906
vt 30.70866 11.02362
vt 30.70866 21.65354
vt 30.70866 29.92126
vt 29.92126 29.92126
vt -29.92126 12.20472
vt -30.70866 12.20472
vt -29.92126 20.47244
vt -30.70866 20.47244
vt -29.92126 21.65354
vt -30.70866 21.65354
vt -29.92126 29.92126
vt -30.70866 29.92126
vt 0.7874016 29.92126
vt 0 31.10236
vt -9.84252 31.10236
vt -8.267716 29.92126
vt -8.267716 21.65354
vt -8.267716 20.47244
vt -8.267716 12.20472
vt -8.267716 11.02362
vt -8.267716 2.755906
vt -8.267716 1.574803
vt -8.267716 -3.784686E-30
vt -9.84252 -4.505578E-30
vt -1.574803 -7.208925E-31
vt 8.267716 2.755906
vt 8.267716 11.02362
vt 8.267716 12.20472
vt 8.267716 20.47244
vt 8.267716 21.65354
vt 8.267716 29.92126
vt 9.84252 31.10236
vt -9.055119 29.92126
vt -9.055119 21.65354
vt 9.055119 21.65354
vt 9.055119 29.92126
vt -9.055119 20.47244
vt -9.055119 12.20472
vt 9.055119 12.20472
vt 9.055119 20.47244
vt -9.055119 11.02362
vt -9.055119 2.755906
vt 9.055119 2.755906
vt 9.055119 11.02362
vt -8.267716 0
vt -9.84252 1.574803
vt -9.84252 0
vt -1.688635E-31 -4.56355E-15
vt -1.574803 -4.56355E-15
vt -2.842171E-14 31.10236
vt -31.49606 31.10236
vt -31.49606 -4.56355E-15
vt -29.92126 -4.56355E-15
vt 31.10236 1.574803
vt 31.10236 8.267716
vt 31.49606 8.267716
vt 31.10236 12.20472
vt 31.10236 20.47244
vt 31.49606 12.20472
vt 31.49606 20.47244
vt -31.10236 8.267716
vt -31.10236 1.574803
vt -31.10236 12.20472
vt -31.49606 12.20472
vt -31.10236 20.47244
vt -31.49606 20.47244
vt 31.49606 2.755906
vt 31.10236 2.755906
vt 31.49606 11.02362
vt 31.10236 11.02362
vt -31.10236 2.755906
vt -31.49606 2.755906
vt -31.10236 11.02362
vt -31.49606 11.02362
vt -9.448819 29.92126
vt -9.448819 21.65354
vt -9.84252 29.92126
vt -9.84252 21.65354
vt 1.574803 9.448819
vt 1.574803 9.84252
vt 29.92126 9.448819
vt 29.92126 9.84252
vt 9.448819 21.65354
vt 9.448819 29.92126
vt 9.84252 21.65354
vt 9.84252 29.92126
vt -1.574803 9.448819
vt -29.92126 9.448819
vt 9.448819 12.20472
vt 9.448819 20.47244
vt 9.84252 12.20472
vt 9.84252 20.47244
vt -9.448819 20.47244
vt -9.448819 12.20472
vt -9.84252 20.47244
vt -9.84252 12.20472
vt 9.448819 2.755906
vt 9.448819 11.02362
vt 9.84252 2.755906
vt 9.84252 11.02362
vt -9.448819 11.02362
vt -9.448819 2.755906
vt -9.84252 11.02362
vt -9.84252 2.755906
vt -0.3937008 8.267716
vt -0.3937008 1.574803
vt 0.3937008 2.755906
vt 0 2.755906
vt 0.3937008 11.02362
vt 0 11.02362
vt 0.3937008 1.574803
vt 0.3937008 8.267716
vt -0.3937008 2.755906
vt -0.3937008 11.02362
vt 0.3937008 12.20472
vt 0 12.20472
vt 0.3937008 20.47244
vt 0 20.47244
vt -0.3937008 12.20472
vt -0.3937008 20.47244
vt 5.115908E-13 8.267716
vt 5.115908E-13 1.574803
vt 0.3937008 21.65354
vt 0 21.65354
vt 0.3937008 29.92126
vt 2.842171E-14 29.92126
vt -1.953993E-13 1.574803
vt -1.953993E-13 8.267716
vt -0.3937008 21.65354
vt -0.3937008 29.92126
vt -2.842171E-14 29.92126
vt -31.49606 21.65354
vt -31.49606 29.92126
vt -31.10236 21.65354
vt -31.10236 29.92126
vt 31.49606 21.65354
vt 31.10236 21.65354
vt 31.49606 29.92126
vt 31.10236 29.92126
vt 2.842171E-14 9.84252
vt 31.49606 9.84252
vt 31.49606 31.10236

usemtl wood
usemap wood

f 2/2/1 1/1/1 3/3/1
f 3/3/1 4/4/1 2/2/1
f 4/4/1 3/3/1 5/5/1
f 5/5/1 6/6/1 4/4/1
f 5/5/1 7/7/1 6/6/1
f 6/6/1 7/7/1 8/8/1
f 8/8/1 9/9/1 6/6/1
f 9/9/1 2/2/1 4/4/1
f 4/4/1 6/6/1 9/9/1
f 5/5/1 10/10/1 7/7/1
f 5/5/1 11/11/1 10/10/1
f 11/11/1 5/5/1 12/12/1
f 12/12/1 13/13/1 11/11/1
f 14/14/1 11/11/1 13/13/1
f 11/11/1 14/14/1 10/10/1
f 10/10/1 14/14/1 15/15/1
f 13/13/1 15/15/1 14/14/1
f 15/15/1 16/16/1 10/10/1
f 18/18/2 17/17/2 19/19/2
f 19/19/2 20/20/2 18/18/2
f 22/22/2 21/21/2 23/23/2
f 23/23/2 24/24/2 22/22/2
f 26/26/2 25/25/2 27/27/2
f 27/27/2 28/28/2 26/26/2
f 30/10/1 29/14/1 31/15/1
f 31/15/1 32/16/1 30/10/1
f 33/13/1 31/15/1 29/14/1
f 29/14/1 34/11/1 33/13/1
f 34/11/1 29/14/1 30/10/1
f 35/12/1 33/13/1 34/11/1
f 34/11/1 36/5/1 35/12/1
f 36/5/1 34/11/1 30/10/1
f 36/5/1 30/10/1 37/7/1
f 36/5/1 37/7/1 38/6/1
f 38/6/1 37/7/1 39/8/1
f 39/8/1 40/9/1 38/6/1
f 36/5/1 38/6/1 41/4/1
f 41/4/1 38/6/1 40/9/1
f 41/4/1 42/3/1 36/5/1
f 42/3/1 41/4/1 43/2/1
f 40/9/1 43/2/1 41/4/1
f 43/2/1 44/1/1 42/3/1
f 46/30/2 45/29/2 47/31/2
f 47/31/2 48/32/2 46/30/2
f 50/8/1 49/9/1 51/6/1
f 51/6/1 52/7/1 50/8/1
f 53/5/1 52/7/1 51/6/1
f 53/5/1 51/6/1 54/4/1
f 54/4/1 51/6/1 49/9/1
f 54/4/1 55/3/1 53/5/1
f 55/3/1 54/4/1 56/2/1
f 49/9/1 56/2/1 54/4/1
f 56/2/1 57/1/1 55/3/1
f 53/5/1 58/10/1 52/7/1
f 53/5/1 59/11/1 58/10/1
f 59/11/1 53/5/1 60/12/1
f 60/12/1 61/13/1 59/11/1
f 62/14/1 59/11/1 61/13/1
f 59/11/1 62/14/1 58/10/1
f 58/10/1 62/14/1 63/15/1
f 61/13/1 63/15/1 62/14/1
f 63/15/1 64/16/1 58/10/1
f 27/28/3 25/26/3 65/25/3
f 65/25/3 66/27/3 27/28/3
f 68/17/2 67/30/2 69/33/2
f 69/33/2 70/34/2 68/17/2
f 67/30/2 68/17/2 71/35/2
f 72/36/2 67/30/2 71/35/2
f 72/36/2 71/35/2 73/37/2
f 72/36/2 73/37/2 74/27/2
f 72/36/2 74/27/2 75/24/2
f 75/24/2 76/38/2 72/36/2
f 75/24/2 74/27/2 77/39/2
f 77/39/2 78/40/2 75/24/2
f 79/42/4 24/41/4 23/43/4
f 23/43/4 80/44/4 79/42/4
f 82/46/5 81/45/5 5/47/5
f 5/47/5 3/48/5 82/46/5
f 5/49/6 18/26/6 71/50/6
f 71/50/6 68/51/6 5/49/6
f 68/51/6 11/52/6 5/49/6
f 18/26/6 5/49/6 83/39/6
f 83/39/6 17/28/6 18/26/6
f 5/49/6 81/53/6 83/39/6
f 81/53/6 36/54/6 83/39/6
f 36/54/6 81/53/6 84/55/6
f 84/55/6 34/56/6 36/54/6
f 36/54/6 85/57/6 83/39/6
f 85/57/6 53/58/6 83/39/6
f 53/58/6 85/57/6 86/59/6
f 86/59/6 59/60/6 53/58/6
f 83/39/6 87/27/6 17/28/6
f 88/62/5 85/61/5 36/63/5
f 36/63/5 42/64/5 88/62/5
f 89/4/5 83/11/5 53/65/5
f 53/65/5 55/66/5 89/4/5
f 89/2/4 73/67/4 28/68/4
f 28/68/4 27/69/4 89/2/4
f 27/69/4 66/4/4 89/2/4
f 73/67/4 89/2/4 3/70/4
f 3/70/4 74/71/4 73/67/4
f 89/2/4 55/72/4 3/70/4
f 55/72/4 88/73/4 3/70/4
f 88/73/4 55/72/4 54/66/4
f 54/66/4 90/62/4 88/73/4
f 88/73/4 42/74/4 3/70/4
f 42/74/4 82/75/4 3/70/4
f 82/75/4 42/74/4 41/64/4
f 41/64/4 91/46/4 82/75/4
f 3/70/4 4/48/4 74/71/4
f 87/17/2 92/30/2 93/32/2
f 93/32/2 94/19/2 87/17/2
f 92/30/2 87/17/2 83/76/2
f 95/29/2 92/30/2 83/76/2
f 95/29/2 83/76/2 89/77/2
f 95/29/2 89/77/2 66/27/2
f 95/29/2 66/27/2 79/24/2
f 79/24/2 80/23/2 95/29/2
f 79/24/2 66/27/2 65/25/2
f 65/25/2 96/22/2 79/24/2
f 46/79/5 48/78/5 93/80/5
f 93/80/5 92/11/5 46/79/5
f 4/52/3 2/49/3 77/81/3
f 77/81/3 74/51/3 4/52/3
f 41/56/3 43/54/3 97/53/3
f 97/53/3 91/55/3 41/56/3
f 54/60/3 56/58/3 98/57/3
f 98/57/3 90/59/3 54/60/3
f 22/26/5 24/82/5 79/4/5
f 79/4/5 96/25/5 22/26/5
f 29/63/5 31/83/5 99/84/5
f 99/84/5 100/45/5 29/63/5
f 61/86/3 59/85/3 86/87/3
f 86/87/3 101/88/3 61/86/3
f 62/65/5 63/89/5 102/90/5
f 102/90/5 103/61/5 62/65/5
f 19/20/3 17/18/3 87/17/3
f 87/17/3 94/19/3 19/20/3
f 14/47/5 15/91/5 69/92/5
f 69/92/5 67/93/5 14/47/5
f 33/95/3 34/94/3 84/96/3
f 84/96/3 104/97/3 33/95/3
f 13/99/3 11/98/3 68/100/3
f 68/100/3 70/101/3 13/99/3
f 9/70/5 6/48/5 75/71/5
f 75/71/5 78/102/5 9/70/5
f 84/17/2 100/30/2 99/33/2
f 99/33/2 104/34/2 84/17/2
f 100/30/2 84/17/2 81/76/2
f 105/36/2 100/30/2 81/76/2
f 105/36/2 81/76/2 82/77/2
f 105/36/2 82/77/2 91/27/2
f 105/36/2 91/27/2 106/24/2
f 106/24/2 107/38/2 105/36/2
f 106/24/2 91/27/2 97/39/2
f 97/39/2 108/40/2 106/24/2
f 40/74/5 38/64/5 106/46/5
f 106/46/5 108/75/5 40/74/5
f 109/51/6 26/26/6 110/103/6
f 110/103/6 111/104/6 109/51/6
f 111/104/6 112/105/6 109/51/6
f 111/104/6 113/106/6 112/105/6
f 111/104/6 114/107/6 113/106/6
f 111/104/6 115/108/6 114/107/6
f 111/104/6 116/109/6 115/108/6
f 111/104/6 117/110/6 116/109/6
f 111/104/6 96/111/6 117/110/6
f 111/104/6 22/112/6 96/111/6
f 111/104/6 21/113/6 22/112/6
f 117/110/6 96/111/6 65/27/6
f 65/27/6 118/60/6 117/110/6
f 115/108/6 116/109/6 119/59/6
f 119/59/6 120/56/6 115/108/6
f 113/106/6 114/107/6 121/55/6
f 121/55/6 122/52/6 113/106/6
f 122/52/6 121/55/6 25/114/6
f 121/55/6 120/56/6 25/114/6
f 120/56/6 119/59/6 25/114/6
f 119/59/6 118/60/6 25/114/6
f 118/60/6 65/27/6 25/114/6
f 109/51/6 122/52/6 25/114/6
f 25/114/6 26/26/6 109/51/6
f 86/17/2 103/30/2 102/33/2
f 102/33/2 101/34/2 86/17/2
f 103/30/2 86/17/2 85/76/2
f 123/36/2 103/30/2 85/76/2
f 123/36/2 85/76/2 88/77/2
f 123/36/2 88/77/2 90/27/2
f 123/36/2 90/27/2 124/24/2
f 124/24/2 125/38/2 123/36/2
f 124/24/2 90/27/2 98/39/2
f 98/39/2 126/40/2 124/24/2
f 49/72/5 51/66/5 124/62/5
f 124/62/5 126/73/5 49/72/5
f 93/42/4 48/41/4 47/43/4
f 47/43/4 127/115/4 93/42/4
f 47/43/4 128/116/4 127/115/4
f 47/43/4 129/117/4 128/116/4
f 47/43/4 130/118/4 129/117/4
f 47/43/4 131/119/4 130/118/4
f 47/43/4 132/120/4 131/119/4
f 47/43/4 133/121/4 132/120/4
f 134/71/4 132/120/4 133/121/4
f 134/71/4 133/121/4 135/103/4
f 19/82/4 134/71/4 135/103/4
f 135/103/4 20/26/4 19/82/4
f 19/82/4 94/4/4 134/71/4
f 94/4/4 136/66/4 134/71/4
f 136/66/4 94/4/4 93/42/4
f 93/42/4 127/115/4 136/66/4
f 136/66/4 137/62/4 134/71/4
f 137/62/4 138/64/4 134/71/4
f 138/64/4 137/62/4 128/116/4
f 128/116/4 129/117/4 138/64/4
f 138/64/4 139/46/4 134/71/4
f 139/46/4 140/48/4 134/71/4
f 140/48/4 139/46/4 130/118/4
f 130/118/4 131/119/4 140/48/4
f 14/106/6 67/105/6 72/122/6
f 72/122/6 10/123/6 14/106/6
f 75/120/4 6/119/4 7/124/4
f 7/124/4 76/125/4 75/120/4
f 29/108/6 100/107/6 105/126/6
f 105/126/6 30/127/6 29/108/6
f 106/118/4 38/117/4 37/128/4
f 37/128/4 107/129/4 106/118/4
f 62/110/6 103/109/6 123/130/6
f 123/130/6 58/131/6 62/110/6
f 124/116/4 51/115/4 52/132/4
f 52/132/4 125/133/4 124/116/4
f 46/134/6 92/111/6 95/135/6
f 95/135/6 45/136/6 46/134/6
f 23/138/3 21/137/3 111/139/3
f 111/139/3 80/27/3 23/138/3
f 111/139/3 141/60/3 80/27/3
f 141/60/3 95/17/3 80/27/3
f 111/139/3 142/59/3 141/60/3
f 111/139/3 143/56/3 142/59/3
f 143/56/3 144/87/3 142/59/3
f 111/139/3 145/55/3 143/56/3
f 111/139/3 146/52/3 145/55/3
f 146/52/3 147/96/3 145/55/3
f 111/139/3 148/51/3 146/52/3
f 111/139/3 149/100/3 148/51/3
f 95/17/3 141/60/3 150/85/3
f 95/17/3 150/85/3 133/140/3
f 150/85/3 144/87/3 133/140/3
f 149/100/3 111/139/3 133/140/3
f 95/17/3 133/140/3 47/141/3
f 47/141/3 45/142/3 95/17/3
f 144/87/3 151/94/3 133/140/3
f 144/87/3 143/56/3 151/94/3
f 151/94/3 147/96/3 133/140/3
f 147/96/3 152/98/3 133/140/3
f 147/96/3 146/52/3 152/98/3
f 152/98/3 149/100/3 133/140/3
f 33/56/6 104/55/6 99/107/6
f 99/107/6 31/108/6 33/56/6
f 13/52/6 70/51/6 69/105/6
f 69/105/6 15/106/6 13/52/6
f 61/60/6 101/59/6 102/109/6
f 102/109/6 63/110/6 61/60/6
f 97/46/4 43/64/4 40/117/4
f 40/117/4 108/118/4 97/46/4
f 77/71/4 2/48/4 9/119/4
f 9/119/4 78/120/4 77/71/4
f 52/66/5 58/65/5 123/61/5
f 123/61/5 125/62/5 52/66/5
f 37/64/5 30/63/5 105/45/5
f 105/45/5 107/46/5 37/64/5
f 7/48/5 10/47/5 72/93/5
f 72/93/5 76/71/5 7/48/5
f 154/46/4 153/64/4 155/117/4
f 155/117/4 156/118/4 154/46/4
f 155/144/1 153/143/1 138/80/1
f 138/80/1 129/145/1 155/144/1
f 156/147/5 155/146/5 129/148/5
f 129/148/5 130/149/5 156/147/5
f 154/151/2 156/150/2 130/32/2
f 130/32/2 139/19/2 154/151/2
f 138/153/3 153/152/3 154/154/3
f 154/154/3 139/155/3 138/153/3
f 158/62/4 157/66/4 159/115/4
f 159/115/4 160/116/4 158/62/4
f 159/157/5 127/156/5 128/158/5
f 128/158/5 160/159/5 159/157/5
f 158/151/2 160/150/2 128/32/2
f 128/32/2 137/19/2 158/151/2
f 136/161/3 157/160/3 158/162/3
f 158/162/3 137/163/3 136/161/3
f 159/144/1 157/143/1 136/80/1
f 136/80/1 127/145/1 159/144/1
f 162/98/3 161/52/3 163/51/3
f 163/51/3 164/100/3 162/98/3
f 162/165/6 164/164/6 149/166/6
f 149/166/6 152/167/6 162/165/6
f 146/169/1 161/168/1 162/170/1
f 162/170/1 152/171/1 146/169/1
f 163/173/4 161/172/4 146/174/4
f 146/174/4 148/175/4 163/173/4
f 163/176/2 148/23/2 149/29/2
f 149/29/2 164/177/2 163/176/2
f 166/94/3 165/56/3 167/55/3
f 167/55/3 168/96/3 166/94/3
f 167/179/4 165/178/4 143/180/4
f 143/180/4 145/181/4 167/179/4
f 167/176/2 145/23/2 147/29/2
f 147/29/2 168/177/2 167/176/2
f 166/183/6 168/182/6 147/184/6
f 147/184/6 151/185/6 166/183/6
f 143/169/1 165/168/1 166/170/1
f 166/170/1 151/171/1 143/169/1
f 170/85/3 169/60/3 171/59/3
f 171/59/3 172/87/3 170/85/3
f 171/187/4 169/186/4 141/188/4
f 141/188/4 142/189/4 171/187/4
f 171/176/2 142/23/2 144/29/2
f 144/29/2 172/177/2 171/176/2
f 170/191/6 172/190/6 144/192/6
f 144/192/6 150/193/6 170/191/6
f 141/169/1 169/168/1 170/170/1
f 170/170/1 150/171/1 141/169/1
f 98/62/4 56/66/4 49/115/4
f 49/115/4 126/116/4 98/62/4
f 174/60/6 173/59/6 175/109/6
f 175/109/6 176/110/6 174/60/6
f 119/25/2 116/22/2 175/194/2
f 175/194/2 173/195/2 119/25/2
f 117/197/5 176/196/5 175/198/5
f 175/198/5 116/199/5 117/197/5
f 117/22/1 118/25/1 174/200/1
f 174/200/1 176/201/1 117/22/1
f 174/202/3 118/197/3 119/199/3
f 119/199/3 173/203/3 174/202/3
f 178/56/6 177/55/6 179/107/6
f 179/107/6 180/108/6 178/56/6
f 121/25/2 114/22/2 179/194/2
f 179/194/2 177/195/2 121/25/2
f 115/205/5 180/204/5 179/206/5
f 179/206/5 114/207/5 115/205/5
f 115/22/1 120/25/1 178/200/1
f 178/200/1 180/201/1 115/22/1
f 178/208/3 120/205/3 121/207/3
f 121/207/3 177/209/3 178/208/3
f 182/52/6 181/51/6 183/105/6
f 183/105/6 184/106/6 182/52/6
f 109/211/2 112/210/2 183/194/2
f 183/194/2 181/195/2 109/211/2
f 113/213/5 184/212/5 183/214/5
f 183/214/5 112/215/5 113/213/5
f 113/217/1 122/216/1 182/200/1
f 182/200/1 184/201/1 113/217/1
f 181/219/3 182/218/3 122/213/3
f 122/213/3 109/220/3 181/219/3
f 186/71/4 185/48/4 187/119/4
f 187/119/4 188/120/4 186/71/4
f 186/151/2 188/150/2 132/32/2
f 132/32/2 134/19/2 186/151/2
f 134/222/3 140/221/3 185/223/3
f 185/223/3 186/224/3 134/222/3
f 187/226/5 131/225/5 132/227/5
f 132/227/5 188/228/5 187/226/5
f 187/144/1 185/143/1 140/80/1
f 140/80/1 131/145/1 187/144/1
f 111/229/1 110/26/1 135/78/1
f 135/78/1 133/230/1 111/229/1
f 18/79/5 20/78/5 135/231/5
f 135/231/5 71/93/5 18/79/5
f 135/231/5 73/71/5 71/93/5
f 73/71/5 135/231/5 110/103/5
f 73/71/5 110/103/5 26/26/5
f 26/26/5 28/82/5 73/71/5
