# Exported using Kenney Suite 1.2 

mtllib chair.mtl 

g chair

v -1.6 0.7 0.4 
v -2 0.7 0.4 
v -1.6 1.9 0.4 
v -2 1.9 0.4 
v -1.6 0 0.4 
v -2 0 0.4 
v -1.6 0.5 0.4 
v -2 0.5 0.4 
v -0.4 0.5 1.2 
v -1.6 0.5 1.2 
v -0.4 0.7 1.2 
v -1.6 0.7 1.2 
v 0 0.5 1.6 
v 0 0.5 0.4 
v -0.4 0.5 1.6 
v -0.4 0.5 0.8 
v -1.6 0.5 0.8 
v -2 0.5 1.6 
v -1.6 0.5 1.6 
v -0.4 0.5 0.4 
v -0.4 0 1.6 
v 0 0 1.6 
v -1.6 0 0 
v -2 0 0 
v 0 0 0.4 
v -0.4 0 0.4 
v -0.4 4.3 1.6 
v -0.4 2.95 1.7 
v -0.4 2.4 1.6 
v -0.4 2.4 2 
v -0.4 2.95 1.9 
v -0.4 3.35 1.9 
v -0.4 3.35 1.7 
v -0.4 4.3 2 
v 0 0.7 0.4 
v -0.4 0.7 0.4 
v 0 1.9 0.4 
v -0.4 1.9 0.4 
v -1.6 1.9 0 
v -1.6 0.7 0.8 
v -0.4 0.7 0.8 
v 0 2.4 0 
v -1.579181E-15 2.4 1.6 
v -2 2.4 0 
v -1.6 2.4 1.6 
v -2 2.4 1.6 
v -1.6 2.4 2 
v -1.6 2.95 1.9 
v -1.6 3.35 1.9 
v -2 0 1.6 
v -2 0 2 
v -2 4.7 2 
v -2 4.7 1.6 
v -2 1.9 1.6 
v -2 0.7 1.6 
v -2.255973E-16 4.7 1.6 
v -2.255973E-16 4.7 2 
v 0 1.9 1.6 
v 0 0 2 
v 0 0.7 1.6 
v 0 0 0 
v -1.6 1.9 1.6 
v -1.6 1.9 2 
v -0.4 1.9 0 
v -0.4 1.9 1.6 
v -0.4 1.9 2 
v -1.6 3.35 1.7 
v -0.4 0 2 
v -1.6 4.3 2 
v -1.6 0 2 
v -0.4 0 0 
v -1.6 2.95 1.7 
v -1.6 4.3 1.6 
v -0.4 0.7 1.6 
v -1.6 0 1.6 
v -1.6 0.7 1.6 

vn 0 0 1
vn 0 -1 0
vn 0 0 -1
vn -1 0 0
vn 1 0 0
vn 0 1 0

vt -6.299212 2.755906
vt -7.874016 2.755906
vt -6.299212 7.480315
vt -7.874016 7.480315
vt -6.299212 1.136868E-14
vt -7.874016 1.136868E-14
vt -6.299212 1.968504
vt -7.874016 1.968504
vt -1.574803 1.968504
vt -1.574803 2.755906
vt -2.478637E-15 6.299212
vt -2.478637E-15 1.574803
vt -1.574803 6.299212
vt -1.574803 3.149606
vt -1.574803 4.72441
vt -6.299212 3.149606
vt -6.299212 4.72441
vt -7.874016 1.574803
vt -6.299212 1.574803
vt -7.874016 6.299212
vt -6.299212 6.299212
vt -1.574803 1.574803
vt 1.574803 0
vt 0 0
vt 1.574803 1.968504
vt 0 1.968504
vt -6.299212 0
vt -7.874016 0
vt 0 5.684342E-15
vt -1.574803 5.684342E-15
vt 6.299212 16.92913
vt 6.692914 11.61417
vt 6.299212 9.448819
vt 7.874016 9.448819
vt 7.480315 11.61417
vt 7.480315 13.18898
vt 6.692914 13.18898
vt 7.874016 16.92913
vt 0 2.755906
vt 0 7.480315
vt -1.574803 7.480315
vt -5.329071E-15 7.480315
vt -5.329071E-15 6.853341E-32
vt -1.574803 6.853341E-32
vt -3.149606 2.755906
vt -3.149606 1.968504
vt 6.299212 1.968504
vt 6.299212 2.755906
vt 1.574803 2.755906
vt 6.217249E-15 6.299212
vt 7.874016 0
vt 1.574803 6.299212
vt 1.574803 7.874016
vt 6.299212 6.299212
vt 7.874016 6.299212
vt 6.299212 7.874016
vt -1.574803 11.61417
vt -6.299212 11.61417
vt -1.574803 13.18898
vt -6.299212 13.18898
vt 6.299212 -1.289853E-14
vt 7.874016 -1.289853E-14
vt 7.874016 18.50394
vt 6.299212 18.50394
vt 6.299212 7.480315
vt 1.574803 -1.289853E-14
vt 1.574803 7.480315
vt -4.382281E-16 9.448819
vt -4.382281E-16 -1.289853E-14
vt -6.299212 18.50394
vt -6.299212 9.448819
vt -7.874016 18.50394
vt -6.299212 -5.923614E-31
vt -7.874016 -7.404517E-31
vt -1.574803 -1.480903E-31
vt 0 9.448819
vt -6.299212 7.874016
vt -1.574803 0
vt -1.574803 7.874016
vt 0 1.574803
vt 0 6.299212
vt 1.574803 6.692914
vt 6.299212 6.692914
vt 9.734888E-16 -5.72205E-17
vt -1.574803 -5.72205E-17
vt 8.531037E-17 18.50394
vt -1.574803 9.448819
vt -1.574803 16.92913
vt -6.299212 16.92913
vt -7.874016 -5.72205E-17
vt -6.299212 -5.72205E-17
vt 6.299212 0
vt 1.574803 11.61417
vt 1.574803 13.18898
vt 6.299212 11.61417
vt 6.299212 13.18898
vt -1.574803 6.692914
vt -6.299212 6.692914
vt 1.411247E-13 6.299212
vt 1.411247E-13 7.874016
vt 7.874016 7.874016
vt 0 7.874016
vt 1.574803 16.92913
vt 8.881784E-16 18.50394
vt 6.217249E-15 9.448819
vt 1.574803 9.448819
vt 1.574803 -3.084003E-31
vt 3.149606 2.755906
vt 3.149606 1.968504
vt -9.992007E-16 7.480315
vt -9.992007E-16 -3.084003E-31
vt 6.299212 -2.570003E-32
vt 7.874016 -2.570003E-32
vt 7.874016 7.480315
vt 4.72441 1.968504
vt 4.72441 2.755906
vt 7.874016 2.273737E-14
vt 6.299212 2.273737E-14
vt 7.874016 1.968504
vt -6.692914 13.18898
vt -7.874016 16.92913
vt -7.480315 13.18898
vt -7.480315 11.61417
vt -6.692914 11.61417
vt -7.874016 9.448819
vt 7.874016 2.755906
vt -7.874016 -4.112004E-30
vt -6.299212 -4.112004E-30
vt -4.72441 1.968504
vt -4.72441 2.755906
vt -7.874016 7.874016
vt 3.470092E-15 1.574803
vt 3.470092E-15 6.299212
vt 1.574803 1.574803
vt 1.574803 3.149606
vt 1.574803 4.72441
vt 6.299212 3.149606
vt 6.299212 4.72441
vt 7.874016 1.574803
vt 6.299212 1.574803

usemtl wood
usemap wood

f 2/2/1 1/1/1 3/3/1
f 3/3/1 4/4/1 2/2/1
f 6/6/1 5/5/1 7/7/1
f 7/7/1 8/8/1 6/6/1
f 10/7/1 9/9/1 11/10/1
f 11/10/1 12/1/1 10/7/1
f 14/12/2 13/11/2 15/13/2
f 15/13/2 16/14/2 14/12/2
f 15/13/2 9/15/2 16/14/2
f 9/15/2 17/16/2 16/14/2
f 9/15/2 10/17/2 17/16/2
f 17/16/2 10/17/2 8/18/2
f 8/18/2 7/19/2 17/16/2
f 10/17/2 18/20/2 8/18/2
f 10/17/2 19/21/2 18/20/2
f 14/12/2 16/14/2 20/22/2
f 22/24/3 21/23/3 15/25/3
f 15/25/3 13/26/3 22/24/3
f 23/27/2 5/19/2 6/18/2
f 6/18/2 24/28/2 23/27/2
f 26/30/1 25/29/1 14/26/1
f 14/26/1 20/9/1 26/30/1
f 28/32/4 27/31/4 29/33/4
f 29/33/4 30/34/4 28/32/4
f 30/34/4 31/35/4 28/32/4
f 30/34/4 32/36/4 31/35/4
f 27/31/4 28/32/4 33/37/4
f 33/37/4 34/38/4 27/31/4
f 33/37/4 32/36/4 34/38/4
f 32/36/4 30/34/4 34/38/4
f 36/10/1 35/39/1 37/40/1
f 37/40/1 38/41/1 36/10/1
f 23/43/5 39/42/5 3/41/5
f 3/41/5 5/44/5 23/43/5
f 3/41/5 1/10/5 5/44/5
f 1/10/5 7/9/5 5/44/5
f 1/10/5 40/45/5 7/9/5
f 40/45/5 17/46/5 7/9/5
f 16/25/3 17/47/3 40/48/3
f 40/48/3 41/49/3 16/25/3
f 43/50/6 42/24/6 44/51/6
f 44/51/6 29/52/6 43/50/6
f 44/51/6 30/53/6 29/52/6
f 44/51/6 45/54/6 30/53/6
f 44/51/6 46/55/6 45/54/6
f 30/53/6 45/54/6 47/56/6
f 48/58/1 31/57/1 32/59/1
f 32/59/1 49/60/1 48/58/1
f 18/47/4 50/61/4 51/62/4
f 18/47/4 51/62/4 52/63/4
f 18/47/4 52/63/4 53/64/4
f 18/47/4 53/64/4 46/33/4
f 18/47/4 46/33/4 54/65/4
f 18/47/4 54/65/4 55/48/4
f 8/25/4 18/47/4 55/48/4
f 8/25/4 55/48/4 2/49/4
f 6/66/4 8/25/4 2/49/4
f 2/49/4 4/67/4 6/66/4
f 4/67/4 54/65/4 46/33/4
f 6/66/4 4/67/4 44/68/4
f 4/67/4 46/33/4 44/68/4
f 44/68/4 24/69/4 6/66/4
f 43/71/5 56/70/5 57/72/5
f 57/72/5 58/3/5 43/71/5
f 57/72/5 13/7/5 58/3/5
f 57/72/5 22/73/5 13/7/5
f 57/72/5 59/74/5 22/73/5
f 60/1/5 58/3/5 13/7/5
f 60/1/5 13/7/5 14/9/5
f 35/10/5 60/1/5 14/9/5
f 35/10/5 14/9/5 25/75/5
f 37/41/5 35/10/5 25/75/5
f 43/71/5 58/3/5 37/41/5
f 25/75/5 61/24/5 37/41/5
f 37/41/5 61/24/5 42/76/5
f 42/76/5 43/71/5 37/41/5
f 3/19/2 62/21/2 54/20/2
f 54/20/2 4/18/2 3/19/2
f 62/21/2 3/19/2 39/27/2
f 63/77/2 62/21/2 39/27/2
f 63/77/2 39/27/2 64/78/2
f 63/77/2 64/78/2 38/22/2
f 63/77/2 38/22/2 65/13/2
f 65/13/2 66/79/2 63/77/2
f 65/13/2 38/22/2 37/80/2
f 37/80/2 58/81/2 65/13/2
f 32/67/6 33/82/6 67/83/6
f 67/83/6 49/65/6 32/67/6
f 68/85/1 59/84/1 57/86/1
f 57/86/1 66/41/1 68/85/1
f 57/86/1 30/87/1 66/41/1
f 30/87/1 63/3/1 66/41/1
f 57/86/1 34/88/1 30/87/1
f 57/86/1 69/89/1 34/88/1
f 63/3/1 30/87/1 47/71/1
f 63/3/1 47/71/1 52/72/1
f 47/71/1 69/89/1 52/72/1
f 69/89/1 57/86/1 52/72/1
f 63/3/1 52/72/1 51/90/1
f 51/90/1 70/91/1 63/3/1
f 23/92/3 24/51/3 44/34/3
f 44/34/3 39/65/3 23/92/3
f 44/34/3 64/67/3 39/65/3
f 64/67/3 44/34/3 42/76/3
f 64/67/3 42/76/3 61/24/3
f 61/24/3 71/23/3 64/67/3
f 33/94/3 28/93/3 72/95/3
f 72/95/3 67/96/3 33/94/3
f 28/97/2 31/41/2 48/3/2
f 48/3/2 72/98/2 28/97/2
f 57/100/6 56/99/6 53/55/6
f 53/55/6 52/101/6 57/100/6
f 22/81/2 59/102/2 68/79/2
f 68/79/2 21/13/2 22/81/2
f 45/33/3 46/34/3 53/63/3
f 53/63/3 73/31/3 45/33/3
f 53/63/3 27/103/3 73/31/3
f 53/63/3 56/104/3 27/103/3
f 27/103/3 56/104/3 43/105/3
f 43/105/3 29/106/3 27/103/3
f 61/24/2 25/80/2 26/22/2
f 26/22/2 71/78/2 61/24/2
f 36/49/4 26/107/4 20/25/4
f 20/25/4 41/108/4 36/49/4
f 20/25/4 16/109/4 41/108/4
f 26/107/4 36/49/4 38/67/4
f 26/107/4 38/67/4 64/110/4
f 64/110/4 71/111/4 26/107/4
f 60/39/3 74/49/3 65/67/3
f 65/67/3 58/40/3 60/39/3
f 15/47/4 21/112/4 68/113/4
f 68/113/4 65/65/4 15/47/4
f 68/113/4 66/114/4 65/65/4
f 15/47/4 65/65/4 74/48/4
f 9/115/4 15/47/4 74/48/4
f 74/48/4 11/116/4 9/115/4
f 27/13/2 34/79/2 69/77/2
f 69/77/2 73/21/2 27/13/2
f 75/118/3 50/117/3 18/119/3
f 18/119/3 19/47/3 75/118/3
f 67/120/5 45/71/5 73/89/5
f 73/89/5 69/121/5 67/120/5
f 69/121/5 49/122/5 67/120/5
f 69/121/5 48/123/5 49/122/5
f 45/71/5 67/120/5 72/124/5
f 72/124/5 47/125/5 45/71/5
f 72/124/5 48/123/5 47/125/5
f 48/123/5 69/121/5 47/125/5
f 76/48/3 55/126/3 54/114/3
f 54/114/3 62/65/3 76/48/3
f 76/1/5 62/3/5 63/4/5
f 63/4/5 19/7/5 76/1/5
f 19/7/5 63/4/5 70/127/5
f 70/127/5 75/128/5 19/7/5
f 76/1/5 19/7/5 10/129/5
f 10/129/5 12/130/5 76/1/5
f 75/21/2 70/77/2 51/131/2
f 51/131/2 50/20/2 75/21/2
f 60/133/6 35/132/6 36/134/6
f 36/134/6 41/135/6 60/133/6
f 74/52/6 60/133/6 41/135/6
f 41/135/6 11/136/6 74/52/6
f 41/135/6 40/137/6 11/136/6
f 40/137/6 12/138/6 11/136/6
f 2/139/6 12/138/6 40/137/6
f 40/137/6 1/140/6 2/139/6
f 12/138/6 2/139/6 55/55/6
f 55/55/6 76/54/6 12/138/6
