# Exported using Kenney Suite 1.2 

mtllib chairCushion.mtl 

g chairCushion

v -1.6 0.7 0.4 
v -2 0.7 0.4 
v -1.6 1.9 0.4 
v -2 1.9 0.4 
v -1.6 0 0.4 
v -2 0 0.4 
v -1.6 0.5 0.4 
v -2 0.5 0.4 
v -0.4 0.5 1.2 
v -1.6 0.5 1.2 
v -0.4 0.7 1.2 
v -1.6 0.7 1.2 
v 0 0.5 1.6 
v 0 0.5 0.4 
v -0.4 0.5 1.6 
v -0.4 0.5 0.8 
v -1.6 0.5 0.8 
v -2 0.5 1.6 
v -1.6 0.5 1.6 
v -0.4 0.5 0.4 
v -0.4 0 1.6 
v 0 0 1.6 
v -1.6 0 0 
v -2 0 0 
v 0 0 0.4 
v -0.4 0 0.4 
v -0.4 3.9 1.6 
v -0.4 2.95 1.7 
v -0.4 2.4 1.6 
v -0.4 2.4 2 
v -0.4 2.95 1.9 
v -0.4 3.35 1.9 
v -0.4 3.35 1.7 
v -0.4 3.9 2 
v 0 0.7 0.4 
v -0.4 0.7 0.4 
v 0 1.9 0.4 
v -0.4 1.9 0.4 
v -1.6 1.9 0 
v -1.6 0.7 0.8 
v -0.4 0.7 0.8 
v -1.6 2.95 1.9 
v -1.6 3.35 1.9 
v -2 0 1.6 
v -2 0 2 
v -2 4.6 2 
v -2 4.6 1.6 
v -2 2.4 1.6 
v -2 2.2 1.6 
v -2 1.9 1.6 
v -2 0.7 1.6 
v -2 2.2 0 
v -2.255973E-16 4.6 1.6 
v -1.579181E-15 2.4 1.6 
v -2.255973E-16 4.6 2 
v -1.579181E-15 2.2 1.6 
v 0 1.9 1.6 
v 0 0 2 
v 0 0.7 1.6 
v 0 0 0 
v 0 2.2 0 
v -1.6 1.9 1.6 
v -1.6 1.9 2 
v -0.4 1.9 0 
v -0.4 1.9 1.6 
v -0.4 1.9 2 
v -1.6 3.35 1.7 
v -0.4 0 2 
v -0.4 2.2 2 
v -0.4 4.3 2 
v -1.6 3.9 2 
v -0.4 4.6 2 
v -1.6 2.2 2 
v -1.6 0 2 
v -1.6 2.4 2 
v -1.6 4.3 2 
v -1.6 4.6 2 
v -0.4 0 0 
v -1.6 2.95 1.7 
v -0.4 0.7 1.6 
v -1.6 0 1.6 
v -1.6 2.4 1.6 
v -1.6 3.9 1.6 
v -1.6 0.7 1.6 
v -1.6 4.3 1.6 
v -1.6 4.6 1.6 
v -0.4 4.3 1.6 
v -0.4 4.6 1.6 
v 0 2.4 0 
v -2 2.4 0 

vn 0 0 1
vn 0 -1 0
vn 0 0 -1
vn -1 0 0
vn 1 0 0
vn 0 1 0

vt -6.299212 2.755906
vt -7.874016 2.755906
vt -6.299212 7.480315
vt -7.874016 7.480315
vt -6.299212 1.136868E-14
vt -7.874016 1.136868E-14
vt -6.299212 1.968504
vt -7.874016 1.968504
vt -1.574803 1.968504
vt -1.574803 2.755906
vt -2.478637E-15 6.299212
vt -2.478637E-15 1.574803
vt -1.574803 6.299212
vt -1.574803 3.149606
vt -1.574803 4.72441
vt -6.299212 3.149606
vt -6.299212 4.72441
vt -7.874016 1.574803
vt -6.299212 1.574803
vt -7.874016 6.299212
vt -6.299212 6.299212
vt -1.574803 1.574803
vt 1.574803 0
vt 0 0
vt 1.574803 1.968504
vt 0 1.968504
vt -6.299212 0
vt -7.874016 0
vt 0 5.684342E-15
vt -1.574803 5.684342E-15
vt 6.299212 15.35433
vt 6.692914 11.61417
vt 6.299212 9.448819
vt 7.874016 9.448819
vt 7.480315 11.61417
vt 7.480315 13.18898
vt 6.692914 13.18898
vt 7.874016 15.35433
vt 0 2.755906
vt 0 7.480315
vt -1.574803 7.480315
vt -5.329071E-15 7.480315
vt -5.329071E-15 6.853341E-32
vt -1.574803 6.853341E-32
vt -3.149606 2.755906
vt -3.149606 1.968504
vt 6.299212 1.968504
vt 6.299212 2.755906
vt 1.574803 2.755906
vt -1.574803 11.61417
vt -6.299212 11.61417
vt -1.574803 13.18898
vt -6.299212 13.18898
vt 6.299212 -1.397959E-14
vt 7.874016 -1.397959E-14
vt 7.874016 18.11024
vt 6.299212 18.11024
vt 6.299212 8.661417
vt 6.299212 7.480315
vt 1.574803 -1.397959E-14
vt 1.574803 7.480315
vt -4.093393E-15 8.661417
vt -4.093393E-15 -1.397959E-14
vt -6.299212 18.11024
vt -6.299212 9.448819
vt -7.874016 18.11024
vt -6.299212 8.661417
vt -6.299212 -6.932055E-32
vt -7.874016 -8.665068E-32
vt -1.574803 -1.733014E-32
vt 0 8.661417
vt -6.299212 7.874016
vt -1.574803 0
vt -1.574803 7.874016
vt 0 1.574803
vt 0 6.299212
vt 1.574803 6.692914
vt 6.299212 6.692914
vt -8.881784E-16 18.11024
vt -1.574803 8.661417
vt -1.574803 9.448819
vt -1.574803 15.35433
vt -1.574803 16.92913
vt -6.299212 15.35433
vt -1.574803 18.11024
vt -6.299212 16.92913
vt 7.874016 0
vt 6.299212 0
vt 7.874016 8.661417
vt 1.574803 11.61417
vt 1.574803 13.18898
vt 6.299212 11.61417
vt 6.299212 13.18898
vt -1.574803 6.692914
vt -6.299212 6.692914
vt 0 7.874016
vt 1.574803 -3.084003E-31
vt 3.149606 2.755906
vt 3.149606 1.968504
vt -9.992007E-16 7.480315
vt -9.992007E-16 -3.084003E-31
vt 6.299212 -2.570003E-32
vt 7.874016 -2.570003E-32
vt 7.874016 7.480315
vt 4.72441 1.968504
vt 4.72441 2.755906
vt 7.874016 2.273737E-14
vt 6.299212 2.273737E-14
vt 7.874016 1.968504
vt -6.692914 13.18898
vt -7.874016 15.35433
vt -7.480315 13.18898
vt -7.480315 11.61417
vt -6.692914 11.61417
vt -7.874016 9.448819
vt 7.874016 2.755906
vt -7.874016 -4.112004E-30
vt -6.299212 -4.112004E-30
vt -4.72441 1.968504
vt -4.72441 2.755906
vt -7.874016 7.874016
vt 3.470092E-15 1.574803
vt 3.470092E-15 6.299212
vt 1.574803 1.574803
vt 1.574803 3.149606
vt 1.574803 6.299212
vt 1.574803 4.72441
vt 6.299212 3.149606
vt 6.299212 4.72441
vt 7.874016 1.574803
vt 6.299212 1.574803
vt 7.874016 6.299212
vt 6.299212 6.299212
vt 6.299212 16.92913
vt 1.574803 15.35433
vt 1.574803 16.92913
vt 8.881784E-16 18.11024
vt 6.217249E-15 9.448819
vt 1.574803 9.448819
vt 1.574803 18.11024
vt 8.881784E-16 6.299212
vt 8.881784E-16 7.874016
vt 1.574803 7.874016
vt 6.299212 7.874016
vt 7.874016 7.874016
vt -7.874016 16.92913
vt 7.874016 16.92913
vt 6.217249E-15 6.299212
vt 0 9.448819

usemtl wood
usemap wood

f 2/2/1 1/1/1 3/3/1
f 3/3/1 4/4/1 2/2/1
f 6/6/1 5/5/1 7/7/1
f 7/7/1 8/8/1 6/6/1
f 10/7/1 9/9/1 11/10/1
f 11/10/1 12/1/1 10/7/1
f 14/12/2 13/11/2 15/13/2
f 15/13/2 16/14/2 14/12/2
f 15/13/2 9/15/2 16/14/2
f 9/15/2 17/16/2 16/14/2
f 9/15/2 10/17/2 17/16/2
f 17/16/2 10/17/2 8/18/2
f 8/18/2 7/19/2 17/16/2
f 10/17/2 18/20/2 8/18/2
f 10/17/2 19/21/2 18/20/2
f 14/12/2 16/14/2 20/22/2
f 22/24/3 21/23/3 15/25/3
f 15/25/3 13/26/3 22/24/3
f 23/27/2 5/19/2 6/18/2
f 6/18/2 24/28/2 23/27/2
f 26/30/1 25/29/1 14/26/1
f 14/26/1 20/9/1 26/30/1
f 28/32/4 27/31/4 29/33/4
f 29/33/4 30/34/4 28/32/4
f 30/34/4 31/35/4 28/32/4
f 30/34/4 32/36/4 31/35/4
f 27/31/4 28/32/4 33/37/4
f 33/37/4 34/38/4 27/31/4
f 33/37/4 32/36/4 34/38/4
f 32/36/4 30/34/4 34/38/4
f 36/10/1 35/39/1 37/40/1
f 37/40/1 38/41/1 36/10/1
f 23/43/5 39/42/5 3/41/5
f 3/41/5 5/44/5 23/43/5
f 3/41/5 1/10/5 5/44/5
f 1/10/5 7/9/5 5/44/5
f 1/10/5 40/45/5 7/9/5
f 40/45/5 17/46/5 7/9/5
f 16/25/3 17/47/3 40/48/3
f 40/48/3 41/49/3 16/25/3
f 42/51/1 31/50/1 32/52/1
f 32/52/1 43/53/1 42/51/1
f 18/47/4 44/54/4 45/55/4
f 18/47/4 45/55/4 46/56/4
f 18/47/4 46/56/4 47/57/4
f 18/47/4 47/57/4 48/33/4
f 18/47/4 48/33/4 49/58/4
f 18/47/4 49/58/4 50/59/4
f 18/47/4 50/59/4 51/48/4
f 8/25/4 18/47/4 51/48/4
f 8/25/4 51/48/4 2/49/4
f 6/60/4 8/25/4 2/49/4
f 2/49/4 4/61/4 6/60/4
f 4/61/4 50/59/4 49/58/4
f 6/60/4 4/61/4 52/62/4
f 4/61/4 49/58/4 52/62/4
f 52/62/4 24/63/4 6/60/4
f 54/65/5 53/64/5 55/66/5
f 55/66/5 56/67/5 54/65/5
f 55/66/5 57/3/5 56/67/5
f 55/66/5 13/7/5 57/3/5
f 55/66/5 22/68/5 13/7/5
f 55/66/5 58/69/5 22/68/5
f 59/1/5 57/3/5 13/7/5
f 59/1/5 13/7/5 14/9/5
f 35/10/5 59/1/5 14/9/5
f 35/10/5 14/9/5 25/70/5
f 37/41/5 35/10/5 25/70/5
f 56/67/5 57/3/5 37/41/5
f 25/70/5 60/24/5 37/41/5
f 37/41/5 60/24/5 61/71/5
f 61/71/5 56/67/5 37/41/5
f 3/19/2 62/21/2 50/20/2
f 50/20/2 4/18/2 3/19/2
f 62/21/2 3/19/2 39/27/2
f 63/72/2 62/21/2 39/27/2
f 63/72/2 39/27/2 64/73/2
f 63/72/2 64/73/2 38/22/2
f 63/72/2 38/22/2 65/13/2
f 65/13/2 66/74/2 63/72/2
f 65/13/2 38/22/2 37/75/2
f 37/75/2 57/76/2 65/13/2
f 32/61/6 33/77/6 67/78/6
f 67/78/6 43/59/6 32/61/6
f 68/73/1 58/24/1 55/79/1
f 55/79/1 66/41/1 68/73/1
f 55/79/1 69/80/1 66/41/1
f 69/80/1 63/3/1 66/41/1
f 55/79/1 30/81/1 69/80/1
f 55/79/1 34/82/1 30/81/1
f 55/79/1 70/83/1 34/82/1
f 70/83/1 71/84/1 34/82/1
f 55/79/1 72/85/1 70/83/1
f 63/3/1 69/80/1 73/67/1
f 63/3/1 73/67/1 46/66/1
f 63/3/1 46/66/1 45/28/1
f 45/28/1 74/27/1 63/3/1
f 73/67/1 75/65/1 46/66/1
f 75/65/1 71/84/1 46/66/1
f 71/84/1 76/86/1 46/66/1
f 71/84/1 70/83/1 76/86/1
f 76/86/1 77/64/1 46/66/1
f 23/88/3 24/87/3 52/89/3
f 52/89/3 39/59/3 23/88/3
f 52/89/3 64/61/3 39/59/3
f 64/61/3 52/89/3 61/71/3
f 64/61/3 61/71/3 60/24/3
f 60/24/3 78/23/3 64/61/3
f 33/91/3 28/90/3 79/92/3
f 79/92/3 67/93/3 33/91/3
f 28/94/2 31/41/2 42/3/2
f 42/3/2 79/95/2 28/94/2
f 22/76/2 58/96/2 68/74/2
f 68/74/2 21/13/2 22/76/2
f 60/24/2 25/75/2 26/22/2
f 26/22/2 78/73/2 60/24/2
f 36/49/4 26/97/4 20/25/4
f 20/25/4 41/98/4 36/49/4
f 20/25/4 16/99/4 41/98/4
f 26/97/4 36/49/4 38/61/4
f 26/97/4 38/61/4 64/100/4
f 64/100/4 78/101/4 26/97/4
f 59/39/3 80/49/3 65/61/3
f 65/61/3 57/40/3 59/39/3
f 15/47/4 21/102/4 68/103/4
f 68/103/4 65/59/4 15/47/4
f 68/103/4 66/104/4 65/59/4
f 15/47/4 65/59/4 80/48/4
f 9/105/4 15/47/4 80/48/4
f 80/48/4 11/106/4 9/105/4
f 81/108/3 44/107/3 18/109/3
f 18/109/3 19/47/3 81/108/3
f 67/110/5 82/65/5 83/84/5
f 83/84/5 71/111/5 67/110/5
f 71/111/5 43/112/5 67/110/5
f 71/111/5 42/113/5 43/112/5
f 82/65/5 67/110/5 79/114/5
f 79/114/5 75/115/5 82/65/5
f 79/114/5 42/113/5 75/115/5
f 42/113/5 71/111/5 75/115/5
f 84/48/3 51/116/3 50/104/3
f 50/104/3 62/59/3 84/48/3
f 84/1/5 62/3/5 63/4/5
f 63/4/5 19/7/5 84/1/5
f 19/7/5 63/4/5 74/117/5
f 74/117/5 81/118/5 19/7/5
f 84/1/5 19/7/5 10/119/5
f 10/119/5 12/120/5 84/1/5
f 81/21/2 74/72/2 45/121/2
f 45/121/2 44/20/2 81/21/2
f 59/123/6 35/122/6 36/124/6
f 36/124/6 41/125/6 59/123/6
f 80/126/6 59/123/6 41/125/6
f 41/125/6 11/127/6 80/126/6
f 41/125/6 40/128/6 11/127/6
f 40/128/6 12/129/6 11/127/6
f 2/130/6 12/129/6 40/128/6
f 40/128/6 1/131/6 2/130/6
f 12/129/6 2/130/6 51/132/6
f 51/132/6 84/133/6 12/129/6
f 82/33/3 48/34/3 47/56/3
f 47/56/3 83/31/3 82/33/3
f 47/56/3 85/134/3 83/31/3
f 85/134/3 27/135/3 83/31/3
f 47/56/3 86/57/3 85/134/3
f 27/135/3 85/134/3 87/136/3
f 27/135/3 87/136/3 53/137/3
f 27/135/3 53/137/3 54/138/3
f 54/138/3 29/139/3 27/135/3
f 87/136/3 88/140/3 53/137/3
f 55/142/6 53/141/6 88/126/6
f 88/126/6 72/143/6 55/142/6
f 77/144/6 86/133/6 47/132/6
f 47/132/6 46/145/6 77/144/6
f 70/143/6 87/126/6 85/133/6
f 85/133/6 76/144/6 70/143/6
f 85/86/5 86/64/5 77/66/5
f 77/66/5 76/146/5 85/86/5
f 88/57/4 87/134/4 70/147/4
f 70/147/4 72/56/4 88/57/4
f 27/13/2 34/74/2 71/72/2
f 71/72/2 83/21/2 27/13/2

usemtl carpet
usemap carpet

f 54/148/6 89/24/6 90/87/6
f 90/87/6 29/126/6 54/148/6
f 90/87/6 30/143/6 29/126/6
f 90/87/6 82/133/6 30/143/6
f 90/87/6 48/132/6 82/133/6
f 30/143/6 82/133/6 75/144/6
f 73/67/1 69/80/1 30/81/1
f 30/81/1 75/65/1 73/67/1
f 61/71/5 89/149/5 54/65/5
f 54/65/5 56/67/5 61/71/5
f 61/71/3 52/89/3 90/34/3
f 90/34/3 89/149/3 61/71/3
f 90/149/4 52/62/4 49/58/4
f 49/58/4 48/33/4 90/149/4
