# Exported using Kenney Suite 1.2 

mtllib plantSmall2.mtl 

g plantSmall2

v -0.5638903 0 -0.1352297 
v -0.8113778 0 -0.3827171 
v -0.6001251 0.65 -7.450581E-08 
v -0.9466075 0.65 -0.3464825 
v -0.2258163 0 -0.2258163 
v -0.1352296 0 -0.5638904 
v -0.720791 0 -0.7207912 
v -0.382717 0 -0.8113778 
v -0.7353188 0.25 -0.735319 
v -0.831223 0.25 -0.3773996 
v -0.7353188 0.65 -0.735319 
v -0.831223 0.65 -0.3773996 
v -0.3464822 0.65 -0.9466075 
v 7.45058E-08 0.65 -0.6001251 
v -0.819786 0.65 -0.8197861 
v -0.1268213 0.65 -0.1268214 
v -0.5692079 0.25 -0.1153844 
v -0.5692079 0.65 -0.1153844 
v -0.1153842 0.25 -0.5692079 
v -0.3773994 0.25 -0.8312231 
v -0.1153842 0.65 -0.5692079 
v -0.3773994 0.65 -0.8312231 
v -0.2112885 0.25 -0.2112885 
v -0.3483036 0.25 -0.3483037 
v -0.3483036 0.25 -0.5983037 
v -0.5983036 0.25 -0.5983038 
v -0.5983037 0.25 -0.3483038 
v -0.2112885 0.65 -0.2112885 
v -0.3770536 0.7 -0.5695537 
v -0.5695536 0.7 -0.5695538 
v -0.3770536 0.7 -0.3770537 
v -0.5695537 0.7 -0.3770538 
v -0.5775549 0.7 -0.2927354 
v -0.6032075 0.7 -0.3983037 
v -0.6046602 0.8 -0.2457876 
v -0.6369824 0.8 -0.3788038 
v -0.6032075 0.7 -0.5483038 
v -0.6369824 0.8 -0.5678038 
v -0.6818061 0.7 -0.4733038 
v -0.7360167 0.8 -0.4733038 
v -0.2105905 0.8 -0.4733037 
v -0.3096248 0.8 -0.5678037 
v -0.2648012 0.7 -0.4733038 
v -0.3433998 0.7 -0.5483038 
v -0.3096249 0.8 -0.3788037 
v -0.3433999 0.7 -0.3983037 
v -0.3690524 0.7 -0.2927353 
v -0.3419471 0.8 -0.2457876 
v -0.4733036 1.35 -0.5756371 
v -0.4733036 1.4 -0.4733038 
v -0.5444261 1.35 -0.5964916 
v -0.6155486 1.35 -0.4733038 
v -0.5619269 1.35 -0.5244704 
v -0.5619269 1.35 -0.4221371 
v -0.5444262 1.35 -0.350116 
v -0.3846804 1.35 -0.4221371 
v -0.4021812 1.35 -0.350116 
v -0.3419471 0.8 -0.70082 
v -0.4733036 0.8 -0.6623038 
v -0.3690524 0.7 -0.6538722 
v -0.4733036 0.7 -0.6233038 
v -0.4021811 1.35 -0.5964915 
v -0.3310587 1.35 -0.4733038 
v -0.4733037 0.8 -0.2843038 
v -0.4733037 0.7 -0.3233038 
v -0.5775548 0.7 -0.6538722 
v -0.6046602 0.8 -0.70082 
v -0.4733037 1.35 -0.3709705 
v -0.3846804 1.35 -0.5244704 
v -0.3567247 1.25 -0.6752244 
v -0.4733036 1.25 -0.6410413 
v -0.3567247 1.25 -0.2713831 
v -0.4733037 1.25 -0.3055663 
v -0.6185686 1.25 -0.5571725 
v -0.5898826 1.25 -0.6752244 
v -0.5898826 1.25 -0.2713832 
v -0.6185686 1.25 -0.389435 
v -0.2401458 1.25 -0.4733038 
v -0.3280387 1.25 -0.389435 
v -0.3280387 1.25 -0.5571725 
v -0.7064614 1.25 -0.4733038 

vn -0.6951178 -0.1833659 0.6951176
vn 0 -1 0
vn 0.9659259 0 0.2588192
vn 0.6951178 -0.1833659 -0.6951176
vn -0.2544306 -0.1833659 -0.9495484
vn 0.9495484 -0.1833659 0.2544309
vn 0.7071069 0 -0.7071068
vn -0.7071069 0 0.7071068
vn -0.9495484 -0.1833659 -0.2544309
vn 0.258819 0 0.9659259
vn 0 1 0
vn 0.2544306 -0.1833659 0.9495484
vn -0.9659259 0 -0.2588192
vn -0.258819 0 -0.9659259
vn 1.189667E-07 0.06375889 -0.9979655
vn 0.9979655 0.06375889 1.189667E-07
vn -1.189667E-07 0.06375889 0.9979655
vn -0.9979655 0.06375889 -1.189667E-07
vn -0.9100788 -0.3505022 0.2211445
vn -0.6465563 -0.3505022 -0.6775791
vn 0.6465564 -0.3505022 -0.6775789
vn 0.6465563 -0.3505022 0.6775791
vn 0.9100787 -0.3505022 0.2211448
vn 0.1276697 0.8911344 -0.4354079
vn -0.3132395 0.8911344 -0.3282692
vn -0.3132395 0.8911344 0.3282691
vn -0.4409091 0.8911344 0.1071387
vn 0.4409091 0.8911344 0.1071388
vn -0.2635224 -0.3505022 -0.8987237
vn -0.1276696 0.8911344 -0.4354079
vn 0.3132395 0.8911344 0.3282692
vn -0.4409091 0.8911344 -0.1071388
vn -0.2635226 -0.3505022 0.8987237
vn -0.6465564 -0.3505022 0.6775789
vn 0.2635226 -0.3505022 -0.8987237
vn 0.9100788 -0.3505022 -0.2211445
vn 0.1276696 0.8911344 0.4354079
vn -0.1276697 0.8911344 0.4354079
vn 0.3132395 0.8911344 -0.3282691
vn 0.4409091 0.8911344 -0.1071387
vn 0.2635224 -0.3505022 0.8987237
vn -0.9100787 -0.3505022 -0.2211448
vn -0.2810833 0.0452945 -0.9586139
vn -0.2810835 0.0452945 0.9586139
vn -0.2383224 0.5315925 0.8127804
vn -0.9707257 0.0452945 -0.2358817
vn 0.2810835 0.0452945 -0.9586139
vn -0.9707257 0.0452945 0.2358815
vn 0.5847273 0.5315925 0.6127834
vn 0.5847274 0.5315925 -0.6127833
vn 0.9707257 0.0452945 -0.2358815
vn 0.6896422 0.0452945 0.7227324
vn 0.8230497 0.5315925 -0.1999969
vn -0.6896422 0.0452945 -0.7227324
vn 0.2383224 0.5315925 -0.8127804
vn 0.6896424 0.0452945 -0.7227322
vn 0.9707257 0.0452945 0.2358817
vn 0.2383222 0.5315925 0.8127804
vn -0.5847274 0.5315925 0.6127833
vn -0.8230496 0.5315925 -0.1999971
vn 0.8230496 0.5315925 0.1999971
vn -0.8230497 0.5315925 0.1999969
vn -0.6896424 0.0452945 0.7227322
vn 0.2810833 0.0452945 0.9586139
vn -0.5847273 0.5315925 -0.6127834
vn -0.2383222 0.5315925 -0.8127804

vt -3.892539 0.4376365
vt -6.648445 0.4376365
vt -3.341358 5.644022
vt -7.199625 5.644022
vt -1.0648 4.440081
vt -1.778081 1.778081
vt -3.01352 6.388801
vt -4.440081 1.0648
vt -5.67552 5.67552
vt -6.388801 3.01352
vt 4.094086 1.968504
vt 1.176406 1.968504
vt 4.094086 5.11811
vt 1.176406 5.11811
vt 6.648445 0.4376365
vt 3.892539 0.4376365
vt 7.199625 5.644022
vt 3.341358 5.644022
vt 0.706112 6.480974
vt 4.56438 6.480974
vt 1.257293 1.274588
vt 4.013198 1.274588
vt 4.013198 -0.3993151
vt 1.257293 -0.3993151
vt 4.56438 4.807071
vt 0.706112 4.807071
vt 6.729332 1.968504
vt 3.811652 1.968504
vt 6.729332 5.11811
vt 3.811652 5.11811
vt -3.811652 1.968504
vt -6.729332 1.968504
vt -3.811652 5.11811
vt -6.729332 5.11811
vt -1.257293 1.274588
vt -4.013198 1.274588
vt -0.706112 6.480974
vt -4.56438 6.480974
vt -1.176406 5.11811
vt -1.176406 1.968504
vt -4.094086 5.11811
vt -4.094086 1.968504
vt 1.663689 1.663689
vt 2.742548 2.742548
vt 4.481952 0.9085378
vt 4.711052 2.742548
vt 6.545063 2.971649
vt 4.711052 4.711052
vt 5.789912 5.789912
vt 2.742548 4.711052
vt 2.971649 6.545063
vt 0.9085378 4.481952
vt -0.706112 4.807071
vt -1.257293 -0.3993151
vt -4.56438 4.807071
vt -4.013198 -0.3993151
vt 0 4.725394
vt 0.9985932 0.9985932
vt 4.725394 2.842171E-14
vt 7.453601 2.728207
vt 2.728207 7.453601
vt 6.455008 6.455008
vt 2.742548 1.664127
vt 2.968926 5.214658
vt 4.711052 1.664127
vt 4.484674 5.214658
vt 4.711052 2.139361
vt 2.742548 2.139361
vt 4.484674 5.689892
vt 2.968926 5.689892
vt -2.742548 2.139361
vt -4.711052 2.139361
vt -2.968926 5.689892
vt -4.484674 5.689892
vt -2.742548 1.664127
vt -4.711052 1.664127
vt -2.968926 5.214658
vt -4.484674 5.214658
vt -3.313638 6.520284
vt -4.169075 6.520284
vt -3.004819 7.36102
vt -4.082669 7.36102
vt 0.4557759 7.406218
vt 0.5421816 8.246954
vt 1.311212 7.406218
vt 1.620031 8.246954
vt 3.772461 6.44341
vt 4.850311 6.44341
vt 4.08128 5.602674
vt 4.936717 5.602674
vt 1.373138 4.55333
vt 1.064319 3.712594
vt 0.2952883 4.55333
vt 0.2088827 3.712594
vt 2.409101 3.981654
vt 1.553665 3.981654
vt 2.322696 4.82239
vt 1.244846 4.82239
vt 4.851573 1.881728
vt 4.624851 2.749408
vt 5.435171 1.881728
vt 0.1234466 0.3064249
vt 0.9337665 -0.5612553
vt 0.350169 -0.5612553
vt -5.495768 4.24418
vt -6.079366 4.24418
vt -5.269046 5.11186
vt -3.691084 1.691189
vt -4.274682 1.691189
vt -4.501404 2.55887
vt 2.514709 8.145529
vt 1.931111 8.145529
vt 2.741431 9.013208
vt 1.03103 8.021163
vt 2.10888 8.021163
vt 1.339849 7.180427
vt 2.195286 7.180427
vt 2.527615 0.8804892
vt 2.300893 0.01280896
vt 1.717295 0.01280896
vt 0.6868733 8.8296
vt 0.1032757 8.8296
vt -0.1234466 9.697281
vt -2.741431 0.9904967
vt -2.968153 0.1228165
vt -3.551751 0.1228165
vt -3.128266 5.514207
vt -3.437085 4.673471
vt -4.206116 5.514207
vt -4.292521 4.673471
vt -2.545698 3.7268
vt -2.968926 4.484674
vt -2.305002 4.547676
vt -3.136249 4.749665
vt -4.484674 4.484674
vt -3.7268 5.368552
vt -4.317352 4.749665
vt -5.148599 4.547676
vt -4.484674 2.968926
vt -4.907903 3.7268
vt -2.968926 2.968926
vt -2.305002 2.905925
vt -3.136249 2.703936
vt -3.7268 2.085049
vt -4.317352 2.703936
vt -5.148599 2.905925
vt -5.601375 5.516138
vt -6.456811 5.516138
vt -5.687781 6.356874
vt -6.765631 6.356874
vt 4.95718 6.445341
vt 5.043586 7.286077
vt 5.812616 6.445341
vt 6.121436 7.286077
vt 5.68917 4.598528
vt 4.833734 4.598528
vt 5.997989 5.439265
vt 4.920139 5.439265
vt -2.754337 8.255536
vt -3.337935 8.255536
vt -2.527615 9.123217
vt -3.814531 6.386617
vt -4.398129 6.386617
vt -4.624851 7.254297
vt 4.458726 4.024165
vt 5.269046 4.891845
vt 5.042324 4.024165
vt 4.728127 6.577156
vt 4.501404 7.444836
vt 5.311724 6.577156
vt -2.94635 4.779122
vt -2.859944 3.938385
vt -4.0242 4.779122
vt -3.715381 3.938385
vt -3.07376 7.137158
vt -3.929197 7.137158
vt -3.160166 7.977894
vt -4.238016 7.977894
vt 1.03103 6.018584
vt 1.199396 9.565531
vt 2.10888 6.018584
vt 2.155988 9.565531
vt -3.128266 6.342551
vt -4.206116 6.342551
vt -3.296632 9.889499
vt -4.253223 9.889499
vt -3.296632 9.006534
vt -4.253223 9.006534
vt -3.814531 9.93617
vt -4.398129 9.93617
vt -3.160166 6.024175
vt -4.238016 6.024175
vt -3.113058 9.571122
vt -4.06965 9.571122
vt 5.043586 6.113577
vt 4.996478 9.660524
vt 6.121436 6.113577
vt 5.95307 9.660524
vt -3.004819 6.103892
vt -4.082669 6.103892
vt -3.173185 9.65084
vt -4.129777 9.65084
vt 1.204772 10.46386
vt 0.2481807 10.46386
vt 0.6868733 11.39349
vt 0.1032757 11.39349
vt 3.940827 7.597249
vt 4.458726 8.526885
vt 4.897418 7.597249
vt 5.042324 8.526885
vt 5.997989 6.352236
vt 4.920139 6.352236
vt 5.829623 9.899183
vt 4.873032 9.899183
vt 1.373138 6.466723
vt 0.2952883 6.466723
vt 1.204772 10.01367
vt 0.2481807 10.01367
vt 5.829623 9.120196
vt 4.873032 9.120196
vt 5.311724 10.04983
vt 4.728127 10.04983
vt 0.4950739 9.536353
vt 1.451666 9.536353
vt 0.5421816 5.989405
vt 1.620031 5.989405
vt 4.996478 6.319211
vt 4.851573 7.248847
vt 5.95307 6.319211
vt 5.435171 7.248847
vt 3.772461 6.222473
vt 3.940827 9.76942
vt 4.850311 6.222473
vt 4.897418 9.76942
vt 2.322696 6.431953
vt 1.244846 6.431953
vt 2.369803 9.9789
vt 1.413212 9.9789
vt -2.754337 11.05104
vt -2.899242 10.12141
vt -3.337935 11.05104
vt -3.855834 10.12141
vt -5.495768 8.658132
vt -5.640673 7.728496
vt -6.079366 8.658132
vt -6.597265 7.728496
vt -3.113058 5.269959
vt -4.06965 5.269959
vt -2.968153 6.199595
vt -3.551751 6.199595
vt 2.369803 10.05579
vt 1.413212 10.05579
vt 2.514709 10.98542
vt 1.931111 10.98542
vt -3.173185 6.205548
vt -4.129777 6.205548
vt -3.691084 7.135184
vt -4.274682 7.135184
vt -5.640673 9.780603
vt -5.687781 6.233655
vt -6.597265 9.780603
vt -6.765631 6.233655
vt -2.94635 6.437544
vt -4.0242 6.437544
vt -2.899242 9.984492
vt -3.855834 9.984492
vt 0.350169 5.791523
vt 0.9337665 5.791523
vt 0.4950739 4.861887
vt 1.451666 4.861887
vt 1.199396 5.204336
vt 1.717295 6.133972
vt 2.155988 5.204336
vt 2.300893 6.133972

usemtl wood
usemap wood

f 2/2/1 1/1/1 3/3/1
f 3/3/1 4/4/1 2/2/1
f 5/6/2 1/5/2 2/7/2
f 2/7/2 6/8/2 5/6/2
f 2/7/2 7/9/2 6/8/2
f 7/9/2 8/10/2 6/8/2
f 10/12/3 9/11/3 11/13/3
f 11/13/3 12/14/3 10/12/3
f 6/16/4 8/15/4 13/17/4
f 13/17/4 14/18/4 6/16/4
f 15/20/5 13/19/5 8/21/5
f 8/21/5 7/22/5 15/20/5
f 5/24/6 6/23/6 14/25/6
f 14/25/6 16/26/6 5/24/6
f 17/28/7 10/27/7 12/29/7
f 12/29/7 18/30/7 17/28/7
f 20/32/8 19/31/8 21/33/8
f 21/33/8 22/34/8 20/32/8
f 7/36/9 2/35/9 4/37/9
f 4/37/9 15/38/9 7/36/9
f 20/40/10 22/39/10 11/41/10
f 11/41/10 9/42/10 20/40/10
f 24/44/11 23/43/11 19/45/11
f 19/45/11 25/46/11 24/44/11
f 19/45/11 20/47/11 25/46/11
f 20/47/11 26/48/11 25/46/11
f 20/47/11 9/49/11 26/48/11
f 23/43/11 24/44/11 27/50/11
f 23/43/11 27/50/11 10/51/11
f 27/50/11 26/48/11 10/51/11
f 26/48/11 9/49/11 10/51/11
f 10/51/11 17/52/11 23/43/11
f 5/54/12 16/53/12 3/55/12
f 3/55/12 1/56/12 5/54/12
f 18/52/11 3/57/11 16/58/11
f 16/58/11 28/43/11 18/52/11
f 16/58/11 14/59/11 28/43/11
f 14/59/11 21/45/11 28/43/11
f 14/59/11 22/47/11 21/45/11
f 14/59/11 13/60/11 22/47/11
f 4/61/11 3/57/11 18/52/11
f 18/52/11 12/51/11 4/61/11
f 12/51/11 15/62/11 4/61/11
f 22/47/11 13/60/11 15/62/11
f 12/51/11 11/49/11 15/62/11
f 11/49/11 22/47/11 15/62/11
f 19/42/13 23/40/13 28/39/13
f 28/39/13 21/41/13 19/42/13
f 28/14/14 23/12/14 17/11/14
f 17/11/14 18/13/14 28/14/14
f 29/64/15 25/63/15 26/65/15
f 26/65/15 30/66/15 29/64/15
f 24/68/16 25/67/16 29/69/16
f 29/69/16 31/70/16 24/68/16
f 27/72/17 24/71/17 31/73/17
f 31/73/17 32/74/17 27/72/17
f 26/76/18 27/75/18 32/77/18
f 32/77/18 30/78/18 26/76/18

usemtl plant
usemap plant

f 34/80/19 33/79/19 35/81/19
f 35/81/19 36/82/19 34/80/19
f 38/84/20 37/83/20 39/85/20
f 39/85/20 40/86/20 38/84/20
f 42/88/21 41/87/21 43/89/21
f 43/89/21 44/90/21 42/88/21
f 43/92/22 41/91/22 45/93/22
f 45/93/22 46/94/22 43/92/22
f 47/96/23 46/95/23 45/97/23
f 45/97/23 48/98/23 47/96/23
f 50/100/24 49/99/24 51/101/24
f 52/103/25 50/102/25 53/104/25
f 52/106/26 54/105/26 50/107/26
f 54/109/27 55/108/27 50/110/27
f 57/112/28 56/111/28 50/113/28
f 59/115/29 58/114/29 60/116/29
f 60/116/29 61/117/29 59/115/29
f 49/119/30 50/118/30 62/120/30
f 56/122/31 63/121/31 50/123/31
f 53/125/32 50/124/32 51/126/32
f 47/128/33 48/127/33 64/129/33
f 64/129/33 65/130/33 47/128/33
f 32/132/2 65/131/2 33/133/2
f 33/133/2 34/134/2 32/132/2
f 34/134/2 30/135/2 32/132/2
f 34/134/2 39/136/2 30/135/2
f 39/136/2 37/137/2 30/135/2
f 37/137/2 66/138/2 30/135/2
f 66/138/2 29/139/2 30/135/2
f 66/138/2 61/140/2 29/139/2
f 65/131/2 32/132/2 31/141/2
f 47/142/2 65/131/2 31/141/2
f 31/141/2 46/143/2 47/142/2
f 31/141/2 29/139/2 46/143/2
f 29/139/2 43/144/2 46/143/2
f 29/139/2 44/145/2 43/144/2
f 29/139/2 60/146/2 44/145/2
f 29/139/2 61/140/2 60/146/2
f 39/148/34 34/147/34 36/149/34
f 36/149/34 40/150/34 39/148/34
f 59/152/35 61/151/35 66/153/35
f 66/153/35 67/154/35 59/152/35
f 44/156/36 60/155/36 58/157/36
f 58/157/36 42/158/36 44/156/36
f 55/160/37 68/159/37 50/161/37
f 68/163/38 57/162/38 50/164/38
f 50/166/39 63/165/39 69/167/39
f 50/169/40 69/168/40 62/170/40
f 65/172/41 64/171/41 35/173/41
f 35/173/41 33/174/41 65/172/41
f 66/176/42 37/175/42 38/177/42
f 38/177/42 67/178/42 66/176/42
f 70/180/43 58/179/43 59/181/43
f 59/181/43 71/182/43 70/180/43
f 64/184/44 48/183/44 72/185/44
f 72/185/44 73/186/44 64/184/44
f 73/188/45 72/187/45 57/189/45
f 57/189/45 68/190/45 73/188/45
f 67/192/46 38/191/46 74/193/46
f 74/193/46 75/194/46 67/192/46
f 71/196/47 59/195/47 67/197/47
f 67/197/47 75/198/47 71/196/47
f 36/200/48 35/199/48 76/201/48
f 76/201/48 77/202/48 36/200/48
f 79/204/49 78/203/49 63/205/49
f 63/205/49 56/206/49 79/204/49
f 63/208/50 78/207/50 80/209/50
f 80/209/50 69/210/50 63/208/50
f 42/212/51 58/211/51 70/213/51
f 70/213/51 80/214/51 42/212/51
f 45/216/52 41/215/52 78/217/52
f 78/217/52 79/218/52 45/216/52
f 80/220/53 70/219/53 62/221/53
f 62/221/53 69/222/53 80/220/53
f 81/224/54 74/223/54 38/225/54
f 38/225/54 40/226/54 81/224/54
f 49/228/55 71/227/55 75/229/55
f 75/229/55 51/230/55 49/228/55
f 78/232/56 41/231/56 42/233/56
f 42/233/56 80/234/56 78/232/56
f 48/236/57 45/235/57 79/237/57
f 79/237/57 72/238/57 48/236/57
f 73/240/58 68/239/58 55/241/58
f 55/241/58 76/242/58 73/240/58
f 77/244/59 54/243/59 52/245/59
f 52/245/59 81/246/59 77/244/59
f 75/248/60 74/247/60 53/249/60
f 53/249/60 51/250/60 75/248/60
f 72/252/61 79/251/61 56/253/61
f 56/253/61 57/254/61 72/252/61
f 77/256/62 76/255/62 55/257/62
f 55/257/62 54/258/62 77/256/62
f 36/260/63 77/259/63 81/261/63
f 81/261/63 40/262/63 36/260/63
f 35/264/64 64/263/64 73/265/64
f 73/265/64 76/266/64 35/264/64
f 52/268/65 53/267/65 74/269/65
f 74/269/65 81/270/65 52/268/65
f 62/272/66 70/271/66 71/273/66
f 71/273/66 49/274/66 62/272/66
