# Exported using Kenney Suite 1.2 

mtllib toilet.mtl 

g toilet

v -2.233212 0.3572 -1.07484 
v -1.08701 0.3572 -1.338889 
v -0.8922879 0.3572 -1.07484 
v -0.3348784 0.3572 -2.877034 
v -0.6112694 0.3572 -2.877034 
v -0.8922874 0.3572 -4.679229 
v -1.087009 0.3572 -4.415179 
v -2.03849 0.3572 -4.415179 
v -2.03849 0.3572 -1.338889 
v -2.790621 0.3572 -2.877034 
v -2.51423 0.3572 -2.877034 
v -2.233212 0.3572 -4.679229 
v -1.038955 1.47345 -4.570547 
v -0.5151603 1.47345 -2.877034 
v -0.7813745 1.83065 -4.771768 
v -2.427732 0.75905 -2.877034 
v -1.995241 0.75905 -4.275348 
v -2.427732 1.11625 -2.877034 
v -1.995241 1.11625 -4.275348 
v -1.038955 1.47345 -1.183521 
v 2.980232E-07 1.83065 -2.877034 
v -3.1255 1.83065 -2.877034 
v -2.086544 1.47345 -4.570547 
v -2.344125 1.83065 -4.771768 
v -0.7813749 1.83065 -0.9823002 
v -0.8706751 1.91995 -0.08930005 
v -0.8706749 1.91995 -0.9823002 
v -2.254825 1.91995 -0.08930027 
v -2.254825 1.91995 -0.9823003 
v -1.130259 0.75905 -4.275348 
v -0.13395 4.06315 -0.08930002 
v -0.3572 2.27715 -0.08930005 
v -0.7813751 4.06315 -0.08930005 
v -0.8706751 2.27715 -0.08930005 
v -2.344125 4.06315 -0.08930027 
v -2.254825 2.27715 -0.08930027 
v -2.7683 2.27715 -0.08930027 
v -2.99155 4.06315 -0.08930027 
v -2.254825 2.27715 -0.9823003 
v -2.344125 2.27715 -0.9823003 
v -2.344125 1.83065 -0.9823003 
v -0.8706749 2.27715 -0.9823002 
v -0.7813749 2.27715 -0.9823002 
v -0.870675 2.27715 -0.7590501 
v -0.3348784 0 -2.877034 
v -0.8922879 0 -1.07484 
v -2.233212 0 -1.07484 
v -2.790621 0 -2.877034 
v -0.8922874 0 -4.679229 
v -2.233212 0 -4.679229 
v -1.130259 1.11625 -4.275348 
v -0.6977676 0.75905 -2.877034 
v -0.6977676 1.11625 -2.877034 
v -1.130259 0.75905 -1.47872 
v -1.130259 1.11625 -1.47872 
v -2.086545 1.47345 -1.183521 
v -2.610339 1.47345 -2.877034 
v -1.995241 1.11625 -1.478721 
v -1.995241 0.75905 -1.478721 
v -2.254825 2.27715 -0.7590503 
v -2.7683 2.27715 -0.7590503 
v -0.3571999 2.27715 -0.7590501 
v 2.980232E-07 2.27715 -2.877034 
v -2.192118 2.27715 -1.209413 
v -3.1255 2.27715 -2.877034 
v -0.9333825 2.27715 -1.209413 
v -0.2456671 2.27715 -2.877034 
v -0.7813745 2.27715 -4.771768 
v -0.933382 2.27715 -4.544655 
v -2.192117 2.27715 -4.544655 
v -2.344125 2.27715 -4.771768 
v -2.879832 2.27715 -2.877034 
v -1.292122 1.07395 -2.159957 
v -1.833378 1.07395 -2.159957 
v -0.9964043 1.07395 -2.877034 
v -2.129096 1.07395 -2.877034 
v -3.08085 4.06315 -2.980232E-07 
v -3.08085 4.06315 -0.8483504 
v -3.08085 4.50965 -2.980232E-07 
v -3.08085 4.50965 -0.8483504 
v -0.04465 4.50965 -4.656613E-09 
v -0.04465 4.06315 -4.656613E-09 
v -0.7813751 4.50965 -7.450581E-08 
v -0.7813751 4.06315 -7.450581E-08 
v -2.344125 4.50965 -2.980232E-07 
v -2.344125 4.06315 -2.980232E-07 
v -0.04464993 4.06315 -0.84835 
v -0.04464993 4.50965 -0.84835 
v -0.1339499 4.06315 -0.7590501 
v -2.99155 4.06315 -0.7590503 
v -0.5260912 3.770539 -0.7590501 
v -0.7046912 3.770539 -0.7590501 
v -0.7046912 3.949139 -0.7590501 
v -0.5260912 3.949139 -0.7590501 
v -1.292122 1.07395 -3.594111 
v -1.833378 1.07395 -3.594111 
v -0.2581911 3.949139 -0.8037001 
v -0.2581911 3.859839 -0.8037001 
v -0.5260912 3.949139 -0.8037001 
v -0.5260912 3.815189 -0.8037001 
v -0.258191 3.859839 -0.9376502 
v -0.258191 3.949139 -0.9376502 
v -0.5260911 3.815189 -0.9376502 
v -0.7046911 3.949139 -0.9376502 
v -0.5260911 3.770539 -0.9376502 
v -0.7046911 3.770539 -0.9376502 

vn 0 1 0
vn 0.7788013 -0.5791771 -0.2408791
vn 0.7202765 -0.6465948 -0.2512309
vn 0.6909456 -0.6865067 -0.2265014
vn -0.950247 0.1031977 -0.2939066
vn -0.9495835 0.109685 -0.2937014
vn -0.9553477 0 -0.2954842
vn 0.6737432 -0.6886204 0.26809
vn 0.5885763 -0.7844135 0.195636
vn 0.5611554 -0.8093088 0.1735625
vn -0.5885763 -0.7844135 -0.195636
vn -0.6737432 -0.6886204 -0.26809
vn -0.6935285 -0.6612251 -0.2860064
vn 0.554695 -0.7999913 -0.2287523
vn 0.6935285 -0.6612251 0.2860064
vn 0 -1 0
vn 1.125878E-07 0.328641 -0.944455
vn 1.174357E-07 0.1718543 -0.9851226
vn -1.192093E-07 0 1
vn 1 0 1.192093E-07
vn 0.9553477 0 0.2954842
vn -0.9357671 0.2014238 -0.289428
vn 1.192093E-07 0 -1
vn 0.9495836 0.109685 -0.2937011
vn 0.950247 0.1031977 -0.2939063
vn 0.9553478 0 -0.295484
vn 0.950247 0.1031977 0.2939066
vn 0.9495835 0.109685 0.2937014
vn -0.7788013 -0.5791771 0.2408791
vn -0.7202765 -0.6465948 0.2512309
vn -0.6909456 -0.6865067 0.2265014
vn -1.174357E-07 0.1718543 0.9851226
vn 0.9357672 0.2014238 -0.2894278
vn -1.125878E-07 0.328641 0.944455
vn 0.9357671 0.2014238 0.289428
vn -0.9553478 0 0.295484
vn -1 0 -1.192093E-07
vn -0.9495836 0.109685 0.2937011
vn -0.950247 0.1031977 0.2939063
vn -0.554695 -0.7999913 0.2287523
vn -0.9357672 0.2014238 0.2894278
vn -0.5611554 -0.8093088 -0.1735625
vn 0.9244735 0 0.3812465
vn -0.9244735 0 -0.3812465
vn 0.9244736 0 -0.3812463
vn 0.8584378 -0.4388494 0.2655104
vn -1.038631E-07 -0.4908091 0.8712673
vn -9.954015E-08 -0.550245 0.8350034
vn 1.038631E-07 -0.4908091 -0.8712673
vn 9.954015E-08 -0.550245 -0.8350034
vn 0.8584378 -0.4388494 -0.2655102
vn -9.189048E-08 -0.637037 0.7708334
vn -0.8584378 -0.4388494 0.2655102
vn 0.992278 -0.1240347 1.182887E-07
vn -0.992278 -0.1240347 -1.182887E-07
vn -0.9244736 0 0.3812463
vn -0.8584378 -0.4388494 -0.2655104
vn 9.189048E-08 -0.637037 -0.7708334
vn -9.354078E-08 0.619905 0.784677
vn -0.8007994 0.4996591 -0.3302442
vn 0.8007995 0.4996591 -0.330244
vn 9.354078E-08 0.619905 -0.784677
vn -0.8007995 0.4996591 0.330244
vn 0.8007994 0.4996591 0.3302442
vn 0.164399 -0.986394 1.959789E-08

vt 8.908739 18.50984
vt 11.0973 9.009613
vt 8.908739 7.395673
vt 23.84612 2.775621
vt 23.84612 5.066471
vt 38.78349 7.395673
vt 36.59493 9.009613
vt 36.59493 16.8959
vt 11.0973 16.8959
vt 23.84612 23.12989
vt 23.84612 20.83904
vt 38.78349 18.50984
vt 38.73565 11.20919
vt 24.04301 11.20919
vt 39.69814 15.10514
vt -16.83557 6.291338
vt -28.9671 6.291338
vt -16.83557 9.251968
vt -28.9671 9.251968
vt 6.827013 -1.830376
vt 22.78133 3.209994
vt 21.51965 -1.830376
vt -12.16872 33.22978
vt -28.42819 29.28326
vt -29.1561 33.22978
vt 23.67297 11.44274
vt 22.0451 16.37703
vt 39.03248 16.37703
vt 22.0451 5.371406
vt 5.785624 1.424886
vt 5.057719 5.371406
vt -0.7401575 7.216536
vt -8.141732 7.216536
vt -0.7401575 18.68898
vt -8.141732 18.68898
vt 9.009613 -9.230414
vt 9.368081 -5.703821
vt 16.8959 -9.230414
vt 16.53743 -5.703821
vt -1.110236 33.67717
vt -2.96063 18.87402
vt -6.476378 33.67717
vt -7.216536 18.87402
vt -19.42913 33.67717
vt -18.68898 18.87402
vt -22.94488 18.87402
vt -24.79527 33.67717
vt -7.216536 15.91339
vt -18.68898 15.91339
vt -19.42913 18.87402
vt -19.42913 15.17323
vt -6.476378 15.17323
vt -6.476378 18.87402
vt 8.141732 15.91339
vt 0.7401575 15.91339
vt 8.141732 18.87402
vt 0.7401575 18.87402
vt 6.291338 18.87402
vt 21.96118 0
vt 6.32564 0
vt 21.96118 2.96063
vt 6.32564 2.96063
vt -7.395673 2.96063
vt -7.395673 0
vt -18.50984 2.96063
vt -18.50984 0
vt -16.62373 -2.529365
vt -29.96841 -2.529365
vt -16.83557 0.8710374
vt -28.9671 0.8710374
vt -8.908739 18.50984
vt -8.908739 7.395673
vt -23.84612 23.12989
vt -23.84612 2.775621
vt -38.78349 7.395673
vt -38.78349 18.50984
vt -15.94682 0
vt -31.58235 0
vt -15.94682 2.96063
vt -31.58235 2.96063
vt 7.395673 0
vt 7.395673 2.96063
vt 18.50984 0
vt 18.50984 2.96063
vt 9.368081 6.291338
vt 9.368081 9.251968
vt 16.53743 6.291338
vt 16.53743 9.251968
vt 36.62177 6.291338
vt 24.49023 6.291338
vt 36.62177 9.251968
vt 24.49023 9.251968
vt 21.07243 6.291338
vt 8.94089 6.291338
vt 21.07243 9.251968
vt 8.94089 9.251968
vt -14.48168 18.13602
vt -29.17431 18.13602
vt -13.51918 22.03198
vt -9.368081 9.251968
vt -9.368081 6.291338
vt -16.53743 9.251968
vt -16.53743 6.291338
vt 37.62308 2.455627
vt 24.27839 2.455627
vt 36.62177 5.85603
vt 24.49023 5.85603
vt -9.009613 6.443209
vt -16.8959 6.443209
vt -9.368081 9.969802
vt -16.53743 9.969802
vt 21.28427 5.294151
vt 7.93958 5.294151
vt 21.07243 8.694554
vt 8.94089 8.694554
vt -13.98031 0
vt -29.61584 0
vt -13.98031 2.96063
vt -29.61584 2.96063
vt -0.7401575 15.91339
vt -8.141732 15.91339
vt -0.7401575 18.87402
vt -8.141732 18.87402
vt -6.291338 18.87402
vt -16.59556 6.291338
vt -28.72709 6.291338
vt -16.59556 9.251968
vt -28.72709 9.251968
vt -14.9341 20.99015
vt -30.29361 16.05587
vt -31.92148 20.99015
vt -15.59425 0.3091586
vt -28.93893 0.3091586
vt -16.59556 3.709561
vt -28.72709 3.709561
vt -6.291338 7.216536
vt -6.291338 18.68898
vt -0.7401575 22.94488
vt -6.291338 22.94488
vt -0.7401575 2.96063
vt -6.291338 2.96063
vt -15.12666 34.64441
vt -16.38834 29.60404
vt -31.08098 29.60404
vt 39.23702 0
vt 23.60148 0
vt 39.23702 2.96063
vt 23.60148 2.96063
vt 22.0451 15.17323
vt 5.057719 15.17323
vt 22.0451 18.87402
vt 5.057719 18.87402
vt 8.141732 7.216536
vt 8.141732 18.68898
vt 8.141732 6.476378
vt 10.02414 18.16923
vt 23.84612 25.90551
vt 8.141732 19.42913
vt 10.02414 7.736283
vt 23.84612 -5.684342E-14
vt 23.84612 2.036199
vt 39.5505 6.476378
vt 37.66808 7.736283
vt 37.66808 18.16923
vt 39.5505 19.42913
vt 23.84612 23.86931
vt 6.291338 18.68898
vt 6.291338 7.216536
vt -12.16872 15.17323
vt -29.1561 15.17323
vt -12.16872 18.87402
vt -29.1561 18.87402
vt 39.03248 15.17323
vt 39.03248 18.87402
vt 17.90267 10.70967
vt 17.90267 15.19584
vt 23.84612 8.258636
vt 23.84612 17.64688
vt 21.07243 2.796542
vt 8.94089 2.796542
vt 21.51965 6.0914
vt 6.827013 6.0914
vt -6.476378 9.2239
vt -8.611316 5.825826
vt -19.42913 9.2239
vt -17.2942 5.825826
vt 6.476378 32.63168
vt 19.42913 32.63168
vt 8.611316 29.2336
vt 17.2942 29.2336
vt 36.62177 8.980937
vt 24.49023 8.980937
vt 38.73565 12.2758
vt 24.04301 12.2758
vt -8.611316 3.164839
vt -9.368081 -0.6759784
vt -17.2942 3.164839
vt -16.53743 -0.6759784
vt -16.59556 13.65753
vt -28.72709 13.65753
vt -14.48168 16.95238
vt -29.17431 16.95238
vt -2.842171E-14 33.67717
vt -7.031496 33.67717
vt -2.842171E-14 37.37795
vt -7.031496 37.37795
vt -0.3700787 37.37795
vt -0.3700787 33.67717
vt -6.476378 37.37795
vt -19.42913 37.37795
vt -25.53543 37.37795
vt -25.53543 33.67717
vt 0.3700787 33.67717
vt 0.3700787 37.37795
vt 25.53543 33.67717
vt 25.53543 37.37795
vt 6.291338 18.36105
vt 0.7401575 18.36105
vt 6.291338 33.2794
vt 0.7401575 33.2794
vt 6.476378 15.17323
vt 6.476378 18.87402
vt 19.42913 15.17323
vt 19.42913 18.87402
vt -0.7401575 21.57423
vt -6.291338 21.57423
vt -0.7401575 36.49258
vt -6.291338 36.49258
vt -14.9341 15.17323
vt -31.92148 15.17323
vt -14.9341 18.87402
vt -31.92148 18.87402
vt -16.83557 19.84192
vt -28.9671 19.84192
vt -16.38834 23.13678
vt -31.08098 23.13678
vt 2.96063 18.87402
vt 4.360474 31.25188
vt 7.216536 18.87402
vt 5.840789 31.25188
vt 5.840789 32.7322
vt 4.360474 32.7322
vt 1.110236 33.67717
vt 24.79527 33.67717
vt 18.68898 18.87402
vt 22.94488 18.87402
vt -2.842171E-14 19.42913
vt 2.842171E-14 25.53543
vt 0 6.476378
vt 1.421085E-14 0.3700787
vt 7.031496 0.3700787
vt 7.031496 25.53543
vt 8.611316 33.54655
vt 17.2942 33.54655
vt 9.368081 29.70573
vt 16.53743 29.70573
vt 7.031496 33.67717
vt 1.421085E-14 33.67717
vt 7.031496 37.37795
vt 1.421085E-14 37.37795
vt -0.7401575 6.476378
vt -0.7401575 19.42913
vt -2.842171E-14 25.53543
vt -0.7401575 24.79527
vt -7.031496 25.53543
vt -6.291338 24.79527
vt -6.291338 1.110236
vt -7.031496 0.3700787
vt -0.7401575 1.110236
vt -1.421085E-14 0.3700787
vt 2.842171E-14 19.42913
vt -7.736283 38.16064
vt -10.70967 25.4514
vt -18.16923 38.16064
vt -15.19584 25.4514
vt -12.46752 -0.6468038
vt -18.89652 -0.6468038
vt -6.317625 10.866
vt -21.26881 10.866
vt 28.77291 11.31951
vt 22.3439 11.31951
vt 31.14519 22.83232
vt 16.19401 22.83232
vt 7.736283 8.595986
vt 18.16923 8.595986
vt 10.70967 -4.113256
vt 15.19584 -4.113256
vt -25.19368 8.438243
vt -31.62268 8.438243
vt -22.82139 19.95105
vt -37.77258 19.95105
vt 21.7463 20.40456
vt 15.31729 20.40456
vt 27.89619 31.91736
vt 12.94501 31.91736
vt -2.140002 32.7322
vt -2.140002 31.99204
vt -4.360474 32.7322
vt -4.360474 31.62196
vt 7.771654 31.99204
vt 6.661417 31.99204
vt 7.771654 32.7322
vt 6.661417 32.7322
vt 6.661417 0.8974729
vt 6.661417 3.148574
vt 7.771654 0.8974729
vt 7.771654 3.148574
vt 6.291338 5.840789
vt 7.771654 5.840789
vt 6.291338 4.360474
vt 6.661417 4.360474
vt 6.661417 2.140002
vt 7.771654 2.140002
vt 4.360474 31.62196
vt 2.140002 32.7322
vt 2.140002 31.99204
vt 7.771654 31.25188
vt 6.291338 31.25188
vt 7.771654 31.62196
vt 6.661417 31.62196
vt 6.291338 32.7322
vt -6.291338 5.840789
vt -6.291338 4.360474
vt -7.771654 5.840789
vt -7.771654 4.360474
vt -6.291338 31.25188
vt -7.771654 31.25188
vt -6.291338 32.7322
vt -7.771654 32.7322
vt 29.78956 10.70967
vt 29.78956 15.19584

usemtl carpetWhite
usemap carpetWhite

f 2/2/1 1/1/1 3/3/1
f 3/3/1 4/4/1 2/2/1
f 4/4/1 5/5/1 2/2/1
f 4/4/1 6/6/1 5/5/1
f 6/6/1 7/7/1 5/5/1
f 6/6/1 8/8/1 7/7/1
f 1/1/1 2/2/1 9/9/1
f 9/9/1 10/10/1 1/1/1
f 9/9/1 11/11/1 10/10/1
f 11/11/1 8/8/1 10/10/1
f 8/8/1 12/12/1 10/10/1
f 8/8/1 6/6/1 12/12/1
f 14/14/3 13/13/2 15/15/4
f 17/17/6 16/16/5 18/18/7
f 18/18/7 19/19/7 17/17/6
f 21/21/9 20/20/8 14/22/10
f 23/24/12 22/23/11 24/25/13
f 21/27/14 14/26/3 15/28/4
f 20/30/8 21/29/9 25/31/15
f 27/33/16 26/32/16 28/34/16
f 28/34/16 29/35/16 27/33/16
f 30/37/18 7/36/17 8/38/17
f 8/38/17 17/39/18 30/37/18
f 32/41/19 31/40/19 33/42/19
f 33/42/19 34/43/19 32/41/19
f 33/42/19 35/44/19 34/43/19
f 35/44/19 36/45/19 34/43/19
f 35/44/19 37/46/19 36/45/19
f 35/44/19 38/47/19 37/46/19
f 26/48/19 34/43/19 36/45/19
f 36/45/19 28/49/19 26/48/19
f 29/49/19 39/45/19 40/50/19
f 29/49/19 40/50/19 41/51/19
f 27/48/19 29/49/19 41/51/19
f 39/45/19 29/49/19 27/48/19
f 27/48/19 41/51/19 25/52/19
f 42/43/19 27/48/19 25/52/19
f 27/48/19 42/43/19 39/45/19
f 25/52/19 43/53/19 42/43/19
f 26/55/20 27/54/20 42/56/20
f 42/56/20 34/57/20 26/55/20
f 42/56/20 44/58/20 34/57/20
f 46/60/21 45/59/21 4/61/21
f 4/61/21 3/62/21 46/60/21
f 46/64/19 3/63/19 1/65/19
f 1/65/19 47/66/19 46/64/19
f 8/68/22 11/67/22 16/69/5
f 16/69/5 17/70/6 8/68/22
f 46/72/16 47/71/16 48/73/16
f 48/73/16 45/74/16 46/72/16
f 48/73/16 49/75/16 45/74/16
f 48/73/16 50/76/16 49/75/16
f 50/78/7 48/77/7 10/79/7
f 10/79/7 12/80/7 50/78/7
f 6/82/23 49/81/23 50/83/23
f 50/83/23 12/84/23 6/82/23
f 51/86/23 30/85/18 17/87/18
f 17/87/18 19/88/23 51/86/23
f 52/90/25 30/89/24 51/91/26
f 51/91/26 53/92/26 52/90/25
f 54/94/28 52/93/27 53/95/21
f 53/95/21 55/96/21 54/94/28
f 57/98/30 56/97/29 41/99/31
f 54/101/32 55/100/19 58/102/19
f 58/102/19 59/103/32 54/101/32
f 5/105/33 7/104/33 30/106/24
f 30/106/24 52/107/25 5/105/33
f 9/109/34 2/108/34 54/110/32
f 54/110/32 59/111/32 9/109/34
f 2/113/35 5/112/35 52/114/27
f 52/114/27 54/115/28 2/113/35
f 48/117/36 47/116/36 1/118/36
f 1/118/36 10/119/36 48/117/36
f 29/121/37 28/120/37 36/122/37
f 36/122/37 39/123/37 29/121/37
f 36/122/37 60/124/37 39/123/37
f 16/126/39 59/125/38 58/127/36
f 58/127/36 18/128/36 16/126/39
f 57/130/30 41/129/31 22/131/40
f 11/133/41 9/132/41 59/134/38
f 59/134/38 16/135/39 11/133/41
f 44/136/16 34/32/16 36/34/16
f 36/34/16 60/137/16 44/136/16
f 60/137/16 36/34/16 37/138/16
f 37/138/16 61/139/16 60/137/16
f 32/140/16 34/32/16 44/136/16
f 44/136/16 62/141/16 32/140/16
f 57/143/42 22/142/11 23/144/12
f 45/146/26 49/145/26 6/147/26
f 6/147/26 4/148/26 45/146/26
f 25/150/43 21/149/43 63/151/43
f 63/151/43 43/152/43 25/150/43
f 39/154/1 42/153/1 43/155/1
f 39/154/1 43/155/1 64/156/1
f 39/154/1 64/156/1 65/157/1
f 65/157/1 40/158/1 39/154/1
f 43/155/1 66/159/1 64/156/1
f 66/159/1 43/155/1 63/160/1
f 63/160/1 67/161/1 66/159/1
f 63/160/1 68/162/1 67/161/1
f 68/162/1 69/163/1 67/161/1
f 68/162/1 70/164/1 69/163/1
f 68/162/1 71/165/1 70/164/1
f 70/164/1 71/165/1 65/157/1
f 64/156/1 72/166/1 65/157/1
f 72/166/1 70/164/1 65/157/1
f 42/153/1 39/154/1 60/167/1
f 60/167/1 44/168/1 42/153/1
f 24/170/44 22/169/44 65/171/44
f 65/171/44 71/172/44 24/170/44
f 21/149/45 15/173/45 68/174/45
f 68/174/45 63/151/45 21/149/45
f 74/176/1 73/175/1 75/177/1
f 75/177/1 76/178/1 74/176/1
f 55/180/46 53/179/46 14/181/46
f 14/181/46 20/182/46 55/180/46
f 20/184/48 25/183/47 41/185/47
f 41/185/47 56/186/48 20/184/48
f 24/188/49 15/187/49 13/189/50
f 13/189/50 23/190/50 24/188/49
f 53/192/51 51/191/51 13/193/2
f 13/193/2 14/194/3 53/192/51
f 55/196/52 20/195/48 56/197/48
f 56/197/48 58/198/52 55/196/52
f 18/200/53 58/199/53 56/201/29
f 56/201/29 57/202/30 18/200/53
f 78/204/37 77/203/37 79/205/37
f 79/205/37 80/206/37 78/204/37
f 82/208/19 81/207/19 83/209/19
f 83/209/19 84/42/19 82/208/19
f 83/209/19 85/210/19 84/42/19
f 85/210/19 86/44/19 84/42/19
f 85/210/19 79/211/19 86/44/19
f 79/211/19 77/212/19 86/44/19
f 88/214/23 87/213/23 78/215/23
f 78/215/23 80/216/23 88/214/23
f 32/218/54 62/217/54 89/219/54
f 89/219/54 31/220/54 32/218/54
f 68/222/23 15/221/23 24/223/23
f 24/223/23 71/224/23 68/222/23
f 61/226/55 37/225/55 38/227/55
f 38/227/55 90/228/55 61/226/55
f 22/230/56 41/229/56 40/231/56
f 40/231/56 65/232/56 22/230/56
f 19/234/57 18/233/57 57/235/57
f 57/235/57 23/236/57 19/234/57
f 91/238/23 62/237/23 44/239/23
f 44/239/23 92/240/23 91/238/23
f 44/239/23 93/241/23 92/240/23
f 62/237/23 91/238/23 94/242/23
f 89/243/23 62/237/23 94/242/23
f 94/242/23 90/244/23 89/243/23
f 94/242/23 93/241/23 90/244/23
f 93/241/23 44/239/23 90/244/23
f 44/239/23 60/245/23 90/244/23
f 60/245/23 61/246/23 90/244/23
f 79/248/1 85/247/1 83/249/1
f 83/249/1 81/250/1 79/248/1
f 81/250/1 88/251/1 79/248/1
f 88/251/1 80/252/1 79/248/1
f 23/254/50 13/253/50 51/255/58
f 51/255/58 19/256/58 23/254/50
f 82/258/20 87/257/20 88/259/20
f 88/259/20 81/260/20 82/258/20
f 35/262/16 33/261/16 77/263/16
f 77/263/16 38/264/16 35/262/16
f 77/263/16 78/265/16 38/264/16
f 78/265/16 90/266/16 38/264/16
f 78/265/16 89/267/16 90/266/16
f 78/265/16 87/268/16 89/267/16
f 77/263/16 33/261/16 31/269/16
f 31/269/16 89/267/16 87/268/16
f 77/263/16 31/269/16 82/270/16
f 31/269/16 87/268/16 82/270/16
f 77/263/16 82/270/16 84/249/16
f 84/249/16 86/271/16 77/263/16
f 95/273/59 69/272/59 70/274/59
f 70/274/59 96/275/59 95/273/59
f 75/277/60 73/276/60 66/278/60
f 66/278/60 67/279/60 75/277/60
f 74/281/61 76/280/61 72/282/61
f 72/282/61 64/283/61 74/281/61
f 64/285/62 66/284/62 73/286/62
f 73/286/62 74/287/62 64/285/62
f 95/289/63 75/288/63 67/290/63
f 67/290/63 69/291/63 95/289/63
f 76/293/64 96/292/64 70/294/64
f 70/294/64 72/295/64 76/293/64

usemtl metalLight
usemap metalLight

f 98/297/19 97/296/19 99/298/19
f 99/298/19 100/299/19 98/297/19
f 98/301/20 101/300/20 102/302/20
f 102/302/20 97/303/20 98/301/20
f 98/305/65 100/304/65 103/306/65
f 103/306/65 101/307/65 98/305/65
f 104/309/1 93/308/1 94/310/1
f 94/310/1 99/311/1 104/309/1
f 99/311/1 97/312/1 104/309/1
f 97/312/1 102/313/1 104/309/1
f 103/314/23 105/238/23 106/240/23
f 103/314/23 106/240/23 104/241/23
f 103/314/23 104/241/23 102/315/23
f 102/315/23 101/316/23 103/314/23
f 91/318/20 105/317/20 103/319/20
f 103/319/20 100/320/20 91/318/20
f 100/320/20 94/321/20 91/318/20
f 100/320/20 99/303/20 94/321/20
f 91/323/16 92/322/16 106/324/16
f 106/324/16 105/325/16 91/323/16
f 106/327/37 92/326/37 93/328/37
f 93/328/37 104/329/37 106/327/37

usemtl metalDark
usemap metalDark

f 76/178/1 75/177/1 95/330/1
f 95/330/1 96/331/1 76/178/1
g cover 2

v -2.192117 2.27715 -1.209413 
v -2.879833 2.27715 -2.877034 
v -0.245667 2.27715 -2.877034 
v -2.192117 2.27715 -4.544655 
v -0.9774382 2.47715 -1.326147 
v -2.148062 2.47715 -1.326147 
v -0.3378629 2.47715 -2.877034 
v -2.787637 2.47715 -2.877034 
v -0.9774378 2.47715 -4.427921 
v -2.148062 2.47715 -4.427922 

vn 0 -1 0
vn -1.7423E-28 0.4186392 -0.9081526
vn 0.7243851 0.5219954 -0.4503188
vn -0.7243851 0.5219954 -0.4503188
vn -0.6840431 0.5133971 -0.518178
vn -0.7243851 0.5219954 0.4503188
vn 0.6840431 0.5133971 -0.518178
vn 0.7243851 0.5219954 0.4503188
vn 0.6840431 0.5133971 0.518178
vn 1.7423E-28 0.4186392 0.9081526
vn -0.6840431 0.5133971 0.518178

vt 0 0
vt NaN 0

usemtl _defaultMat
usemap _defaultMat

f 66/332/66 107/332/66 108/333/66
f 108/332/66 109/332/66 66/333/66
f 108/332/66 110/332/66 109/333/66
f 110/332/66 69/332/66 109/333/66
f 112/332/1 111/332/1 113/333/1
f 113/332/1 114/332/1 112/333/1
f 113/332/1 115/332/1 114/333/1
f 115/332/1 116/332/1 114/333/1
f 66/332/68 109/332/67 113/333/67
f 109/332/67 69/332/69 115/333/70
f 115/332/70 69/332/69 110/333/71
f 115/332/70 113/332/67 109/333/67
f 113/332/67 111/332/72 66/333/68
f 107/332/73 66/332/68 111/333/72
f 111/332/72 112/332/74 107/333/73
f 108/332/75 107/332/73 112/333/74
f 110/332/71 108/332/75 114/333/75
f 110/332/71 116/332/76 115/333/70
f 114/332/75 116/332/76 110/333/71
f 112/332/74 114/332/75 108/333/75
