# MagicaVoxel @ Ephtracy

# group
g chr_man

# material
mtllib chr_man.mtl
usemtl palette

# normals
vn -1 0 0
vn 1 0 0
vn 0 0 1
vn 0 0 -1
vn 0 -1 0
vn 0 1 0

# texcoords
vt 0.0332031 0.5
vt 0.0605469 0.5
vt 0.310547 0.5
vt 0.341797 0.5
vt 0.478516 0.5
vt 0.482422 0.5
vt 0.646484 0.5
vt 0.787109 0.5
vt 0.814453 0.5
vt 0.982422 0.5
vt 0.986328 0.5
vt 0.990234 0.5
vt 0.994141 0.5

# verts
v -6 10 2.5
v -6 10 -2.5
v -6 11 2.5
v -6 11 -2.5
v -5 10 3.5
v -5 10 2.5
v -5 10 -2.5
v -5 10 -3.5
v -5 11 3.5
v -5 11 2.5
v -5 11 -2.5
v -5 11 -3.5
v -5 13 2.5
v -5 13 -2.5
v -4 2 0.5
v -4 2 -0.5
v -4 3 0.5
v -4 3 -0.5
v -4 6 2.5
v -4 6 0.5
v -4 6 -0.5
v -4 6 -1.5
v -4 7 2.5
v -4 7 0.5
v -4 7 -0.5
v -4 8 3.5
v -4 8 2.5
v -4 8 0.5
v -4 8 -0.5
v -4 10 4.5
v -4 10 3.5
v -4 10 -1.5
v -4 10 -3.5
v -4 10 -4.5
v -4 11 4.5
v -4 11 3.5
v -4 11 2.5
v -4 11 -2.5
v -4 11 -3.5
v -4 11 -4.5
v -4 13 3.5
v -4 13 2.5
v -4 13 -2.5
v -4 13 -3.5
v -3 1 1.5
v -3 1 -1.5
v -3 2 2.5
v -3 2 1.5
v -3 2 0.5
v -3 2 -0.5
v -3 2 -1.5
v -3 2 -2.5
v -3 3 2.5
v -3 3 0.5
v -3 3 -0.5
v -3 3 -2.5
v -3 6 2.5
v -3 6 0.5
v -3 6 -0.5
v -3 6 -1.5
v -3 6 -2.5
v -3 7 0.5
v -3 7 -0.5
v -3 10 5.5
v -3 10 4.5
v -3 10 -1.5
v -3 10 -2.5
v -3 10 -4.5
v -3 10 -5.5
v -3 11 5.5
v -3 11 4.5
v -3 11 3.5
v -3 11 -3.5
v -3 11 -4.5
v -3 11 -5.5
v -3 13 4.5
v -3 13 3.5
v -3 13 1.5
v -3 13 -1.5
v -3 13 -3.5
v -3 13 -4.5
v -3 14 1.5
v -3 14 -1.5
v -2 0 0.5
v -2 0 -0.5
v -2 1 0.5
v -2 1 -0.5
v -2 6 -2.5
v -2 6 -3.5
v -2 10 -2.5
v -2 10 -3.5
v -2 13 2.5
v -2 13 1.5
v -2 13 -1.5
v -2 13 -2.5
v -2 14 2.5
v -2 14 1.5
v -2 14 -1.5
v -2 14 -2.5
v 1 0 0.5
v 1 0 -0.5
v 1 1 1.5
v 1 1 0.5
v 1 1 -0.5
v 1 1 -1.5
v 1 2 1.5
v 1 2 0.5
v 1 2 -0.5
v 1 2 -1.5
v 3 6 2.5
v 3 6 1.5
v 3 7 2.5
v 3 7 1.5
v 3 9 2.5
v 3 9 1.5
v -3 6 2.5
v -3 6 1.5
v -3 7 2.5
v -3 7 1.5
v -3 8 3.5
v -3 8 2.5
v -3 9 3.5
v -3 9 1.5
v -1 0 0.5
v -1 0 -0.5
v -1 1 1.5
v -1 1 0.5
v -1 1 -0.5
v -1 1 -1.5
v -1 2 1.5
v -1 2 0.5
v -1 2 -0.5
v -1 2 -1.5
v 1 13 2.5
v 1 13 1.5
v 1 13 -1.5
v 1 13 -2.5
v 1 14 2.5
v 1 14 1.5
v 1 14 -1.5
v 1 14 -2.5
v 2 0 0.5
v 2 0 -0.5
v 2 1 0.5
v 2 1 -0.5
v 2 6 -2.5
v 2 6 -3.5
v 2 10 5.5
v 2 10 4.5
v 2 10 -2.5
v 2 10 -3.5
v 2 10 -4.5
v 2 10 -5.5
v 2 11 5.5
v 2 11 4.5
v 2 11 3.5
v 2 11 -3.5
v 2 11 -4.5
v 2 11 -5.5
v 2 13 4.5
v 2 13 3.5
v 2 13 1.5
v 2 13 -1.5
v 2 13 -3.5
v 2 13 -4.5
v 2 14 1.5
v 2 14 -1.5
v 3 1 1.5
v 3 1 -1.5
v 3 2 2.5
v 3 2 1.5
v 3 2 0.5
v 3 2 -0.5
v 3 2 -1.5
v 3 2 -2.5
v 3 3 2.5
v 3 3 0.5
v 3 3 -0.5
v 3 3 -2.5
v 3 6 2.5
v 3 6 0.5
v 3 6 -0.5
v 3 6 -1.5
v 3 6 -2.5
v 3 7 0.5
v 3 7 -0.5
v 3 9 3.5
v 3 9 2.5
v 3 9 -1.5
v 3 10 4.5
v 3 10 3.5
v 3 10 2.5
v 3 10 -1.5
v 3 10 -2.5
v 3 10 -3.5
v 3 10 -4.5
v 3 11 4.5
v 3 11 3.5
v 3 11 2.5
v 3 11 -2.5
v 3 11 -3.5
v 3 11 -4.5
v 3 13 3.5
v 3 13 2.5
v 3 13 -2.5
v 3 13 -3.5
v 4 2 0.5
v 4 2 -0.5
v 4 3 0.5
v 4 3 -0.5
v 4 6 2.5
v 4 6 0.5
v 4 6 -0.5
v 4 6 -1.5
v 4 7 2.5
v 4 7 1.5
v 4 7 0.5
v 4 7 -0.5
v 4 8 0.5
v 4 8 -0.5
v 4 9 -0.5
v 4 9 -1.5
v 4 10 3.5
v 4 10 2.5
v 4 10 1.5
v 4 10 -1.5
v 4 10 -2.5
v 4 10 -3.5
v 4 11 3.5
v 4 11 2.5
v 4 11 -2.5
v 4 11 -3.5
v 4 13 2.5
v 4 13 -2.5
v 5 10 2.5
v 5 10 -2.5
v 5 11 2.5
v 5 11 -2.5
v -3 10 5.5
v -3 11 5.5
v 2 10 5.5
v 2 11 5.5
v -4 10 4.5
v -4 11 4.5
v -3 10 4.5
v -3 11 4.5
v -3 13 4.5
v 2 10 4.5
v 2 11 4.5
v 2 13 4.5
v 3 10 4.5
v 3 11 4.5
v -5 10 3.5
v -5 11 3.5
v -4 8 3.5
v -4 10 3.5
v -4 11 3.5
v -4 13 3.5
v -3 8 3.5
v -3 9 3.5
v -3 11 3.5
v -3 13 3.5
v 2 11 3.5
v 2 13 3.5
v 3 9 3.5
v 3 10 3.5
v 3 11 3.5
v 3 13 3.5
v 4 10 3.5
v 4 11 3.5
v -6 10 2.5
v -6 11 2.5
v -5 10 2.5
v -5 11 2.5
v -5 13 2.5
v -4 6 2.5
v -4 7 2.5
v -4 8 2.5
v -4 11 2.5
v -4 13 2.5
v -3 2 2.5
v -3 3 2.5
v -3 6 2.5
v -3 7 2.5
v -3 8 2.5
v -2 13 2.5
v -2 14 2.5
v -1 3 2.5
v -1 6 2.5
v 0 2 2.5
v 0 3 2.5
v 0 5 2.5
v 1 3 2.5
v 1 5 2.5
v 1 6 2.5
v 1 13 2.5
v 1 14 2.5
v 3 2 2.5
v 3 3 2.5
v 3 6 2.5
v 3 7 2.5
v 3 9 2.5
v 3 10 2.5
v 3 11 2.5
v 3 13 2.5
v 4 6 2.5
v 4 7 2.5
v 4 10 2.5
v 4 11 2.5
v 4 13 2.5
v 5 10 2.5
v 5 11 2.5
v -3 1 1.5
v -3 2 1.5
v -3 6 1.5
v -3 7 1.5
v -3 9 1.5
v -3 13 1.5
v -3 14 1.5
v -2 7 1.5
v -2 8 1.5
v -2 13 1.5
v -2 14 1.5
v -1 1 1.5
v -1 2 1.5
v -1 6 1.5
v -1 7 1.5
v -1 8 1.5
v -1 9 1.5
v 1 1 1.5
v 1 2 1.5
v 1 6 1.5
v 1 7 1.5
v 1 8 1.5
v 1 13 1.5
v 1 14 1.5
v 2 7 1.5
v 2 8 1.5
v 2 13 1.5
v 2 14 1.5
v 3 1 1.5
v 3 2 1.5
v 3 6 1.5
v 3 7 1.5
v 3 9 1.5
v -4 2 0.5
v -4 3 0.5
v -4 6 0.5
v -3 2 0.5
v -3 3 0.5
v -3 6 0.5
v -2 0 0.5
v -2 1 0.5
v -1 0 0.5
v -1 1 0.5
v 1 0 0.5
v 1 1 0.5
v 2 0 0.5
v 2 1 0.5
v 3 2 0.5
v 3 3 0.5
v 3 6 0.5
v 4 2 0.5
v 4 3 0.5
v 4 6 0.5
v -4 6 -0.5
v -4 7 -0.5
v -3 6 -0.5
v -3 7 -0.5
v 3 6 -0.5
v 3 7 -0.5
v 4 6 -0.5
v 4 7 -0.5
v -4 6 0.5
v -4 7 0.5
v -3 6 0.5
v -3 7 0.5
v 3 6 0.5
v 3 7 0.5
v 4 6 0.5
v 4 7 0.5
v -4 2 -0.5
v -4 3 -0.5
v -4 6 -0.5
v -3 2 -0.5
v -3 3 -0.5
v -3 6 -0.5
v -2 0 -0.5
v -2 1 -0.5
v -1 0 -0.5
v -1 1 -0.5
v 1 0 -0.5
v 1 1 -0.5
v 2 0 -0.5
v 2 1 -0.5
v 3 2 -0.5
v 3 3 -0.5
v 3 6 -0.5
v 4 2 -0.5
v 4 3 -0.5
v 4 6 -0.5
v -4 6 -1.5
v -4 10 -1.5
v -3 1 -1.5
v -3 2 -1.5
v -3 6 -1.5
v -3 10 -1.5
v -3 13 -1.5
v -3 14 -1.5
v -2 13 -1.5
v -2 14 -1.5
v -1 1 -1.5
v -1 2 -1.5
v 1 1 -1.5
v 1 2 -1.5
v 1 13 -1.5
v 1 14 -1.5
v 2 13 -1.5
v 2 14 -1.5
v 3 1 -1.5
v 3 2 -1.5
v 3 6 -1.5
v 3 9 -1.5
v 3 10 -1.5
v 4 6 -1.5
v 4 9 -1.5
v 4 10 -1.5
v -6 10 -2.5
v -6 11 -2.5
v -5 10 -2.5
v -5 11 -2.5
v -5 13 -2.5
v -4 11 -2.5
v -4 13 -2.5
v -3 2 -2.5
v -3 3 -2.5
v -3 6 -2.5
v -3 10 -2.5
v -2 6 -2.5
v -2 10 -2.5
v -2 13 -2.5
v -2 14 -2.5
v 1 13 -2.5
v 1 14 -2.5
v 2 6 -2.5
v 2 10 -2.5
v 3 2 -2.5
v 3 3 -2.5
v 3 6 -2.5
v 3 10 -2.5
v 3 11 -2.5
v 3 13 -2.5
v 4 10 -2.5
v 4 11 -2.5
v 4 13 -2.5
v 5 10 -2.5
v 5 11 -2.5
v -5 10 -3.5
v -5 11 -3.5
v -4 10 -3.5
v -4 11 -3.5
v -4 13 -3.5
v -3 11 -3.5
v -3 13 -3.5
v -2 6 -3.5
v -2 10 -3.5
v 2 6 -3.5
v 2 10 -3.5
v 2 11 -3.5
v 2 13 -3.5
v 3 10 -3.5
v 3 11 -3.5
v 3 13 -3.5
v 4 10 -3.5
v 4 11 -3.5
v -4 10 -4.5
v -4 11 -4.5
v -3 10 -4.5
v -3 11 -4.5
v -3 13 -4.5
v 2 10 -4.5
v 2 11 -4.5
v 2 13 -4.5
v 3 10 -4.5
v 3 11 -4.5
v -3 10 -5.5
v -3 11 -5.5
v 2 10 -5.5
v 2 11 -5.5
v -2 0 0.5
v -1 0 0.5
v 1 0 0.5
v 2 0 0.5
v -2 0 -0.5
v -1 0 -0.5
v 1 0 -0.5
v 2 0 -0.5
v -3 1 1.5
v -1 1 1.5
v 1 1 1.5
v 3 1 1.5
v -2 1 0.5
v -1 1 0.5
v 1 1 0.5
v 2 1 0.5
v -2 1 -0.5
v -1 1 -0.5
v 1 1 -0.5
v 2 1 -0.5
v -3 1 -1.5
v -1 1 -1.5
v 1 1 -1.5
v 3 1 -1.5
v -3 2 2.5
v 0 2 2.5
v 3 2 2.5
v -3 2 1.5
v -1 2 1.5
v 1 2 1.5
v 3 2 1.5
v -4 2 0.5
v -3 2 0.5
v -1 2 0.5
v 0 2 0.5
v 1 2 0.5
v 3 2 0.5
v 4 2 0.5
v -4 2 -0.5
v -3 2 -0.5
v -1 2 -0.5
v 1 2 -0.5
v 3 2 -0.5
v 4 2 -0.5
v -3 2 -1.5
v -1 2 -1.5
v 1 2 -1.5
v 3 2 -1.5
v -3 2 -2.5
v 3 2 -2.5
v -4 6 2.5
v -3 6 2.5
v 3 6 2.5
v 4 6 2.5
v -4 6 0.5
v -3 6 0.5
v 3 6 0.5
v 4 6 0.5
v -4 6 -0.5
v -3 6 -0.5
v 3 6 -0.5
v 4 6 -0.5
v -4 6 -1.5
v -3 6 -1.5
v 3 6 -1.5
v 4 6 -1.5
v -2 6 -2.5
v 2 6 -2.5
v -2 6 -3.5
v 2 6 -3.5
v -4 7 0.5
v -3 7 0.5
v 3 7 0.5
v 4 7 0.5
v -4 7 -0.5
v -3 7 -0.5
v 3 7 -0.5
v 4 7 -0.5
v -4 8 3.5
v -3 8 3.5
v -4 8 2.5
v -3 8 2.5
v -3 9 3.5
v 3 9 3.5
v -1 9 2.5
v 3 9 2.5
v -3 9 1.5
v -1 9 1.5
v 3 9 1.5
v -3 10 5.5
v 2 10 5.5
v -4 10 4.5
v -3 10 4.5
v 2 10 4.5
v 3 10 4.5
v -5 10 3.5
v -4 10 3.5
v 3 10 3.5
v 4 10 3.5
v -6 10 2.5
v -5 10 2.5
v 3 10 2.5
v 4 10 2.5
v 5 10 2.5
v 4 10 1.5
v -4 10 -1.5
v -3 10 -1.5
v 3 10 -1.5
v 4 10 -1.5
v -6 10 -2.5
v -5 10 -2.5
v -3 10 -2.5
v -2 10 -2.5
v 2 10 -2.5
v 3 10 -2.5
v 4 10 -2.5
v 5 10 -2.5
v -5 10 -3.5
v -4 10 -3.5
v -2 10 -3.5
v 2 10 -3.5
v 3 10 -3.5
v 4 10 -3.5
v -4 10 -4.5
v -3 10 -4.5
v 2 10 -4.5
v 3 10 -4.5
v -3 10 -5.5
v 2 10 -5.5
v -3 6 2.5
v -1 6 2.5
v 1 6 2.5
v 3 6 2.5
v -3 6 1.5
v -1 6 1.5
v 1 6 1.5
v 3 6 1.5
v -4 6 0.5
v -3 6 0.5
v 3 6 0.5
v 4 6 0.5
v -4 6 -0.5
v -3 6 -0.5
v 3 6 -0.5
v 4 6 -0.5
v -3 11 5.5
v 2 11 5.5
v -4 11 4.5
v -3 11 4.5
v 2 11 4.5
v 3 11 4.5
v -5 11 3.5
v -4 11 3.5
v -3 11 3.5
v 2 11 3.5
v 3 11 3.5
v 4 11 3.5
v -6 11 2.5
v -5 11 2.5
v -4 11 2.5
v 3 11 2.5
v 4 11 2.5
v 5 11 2.5
v -6 11 -2.5
v -5 11 -2.5
v -4 11 -2.5
v 3 11 -2.5
v 4 11 -2.5
v 5 11 -2.5
v -5 11 -3.5
v -4 11 -3.5
v -3 11 -3.5
v 2 11 -3.5
v 3 11 -3.5
v 4 11 -3.5
v -4 11 -4.5
v -3 11 -4.5
v 2 11 -4.5
v 3 11 -4.5
v -3 11 -5.5
v 2 11 -5.5
v -3 13 4.5
v 2 13 4.5
v -4 13 3.5
v -3 13 3.5
v 2 13 3.5
v 3 13 3.5
v -5 13 2.5
v -4 13 2.5
v -2 13 2.5
v 1 13 2.5
v 3 13 2.5
v 4 13 2.5
v -3 13 1.5
v -2 13 1.5
v 1 13 1.5
v 2 13 1.5
v -3 13 -1.5
v -2 13 -1.5
v 1 13 -1.5
v 2 13 -1.5
v -5 13 -2.5
v -4 13 -2.5
v -2 13 -2.5
v 1 13 -2.5
v 3 13 -2.5
v 4 13 -2.5
v -4 13 -3.5
v -3 13 -3.5
v 2 13 -3.5
v 3 13 -3.5
v -3 13 -4.5
v 2 13 -4.5
v -2 14 2.5
v 1 14 2.5
v -3 14 1.5
v -2 14 1.5
v 1 14 1.5
v 2 14 1.5
v -3 14 -1.5
v -2 14 -1.5
v 1 14 -1.5
v 2 14 -1.5
v -2 14 -2.5
v 1 14 -2.5

# faces
f 3/13/1 2/13/1 1/13/1
f 4/13/1 2/13/1 3/13/1
f 9/13/1 6/13/1 5/13/1
f 10/13/1 6/13/1 9/13/1
f 11/13/1 8/13/1 7/13/1
f 12/13/1 8/13/1 11/13/1
f 13/13/1 11/13/1 10/13/1
f 14/13/1 11/13/1 13/13/1
f 17/1/1 16/1/1 15/1/1
f 18/1/1 16/1/1 17/1/1
f 20/9/1 18/9/1 17/9/1
f 21/9/1 18/9/1 20/9/1
f 23/13/1 20/13/1 19/13/1
f 24/13/1 20/13/1 23/13/1
f 25/12/1 22/12/1 21/12/1
f 27/12/1 24/12/1 23/12/1
f 28/2/1 25/2/1 24/2/1
f 28/12/1 24/12/1 27/12/1
f 29/12/1 22/12/1 25/12/1
f 29/2/1 25/2/1 28/2/1
f 31/12/1 27/12/1 26/12/1
f 31/12/1 28/12/1 27/12/1
f 31/12/1 29/12/1 28/12/1
f 32/12/1 22/12/1 29/12/1
f 32/12/1 29/12/1 31/12/1
f 35/13/1 31/13/1 30/13/1
f 36/13/1 31/13/1 35/13/1
f 39/13/1 34/13/1 33/13/1
f 40/13/1 34/13/1 39/13/1
f 41/13/1 37/13/1 36/13/1
f 42/13/1 37/13/1 41/13/1
f 43/13/1 39/13/1 38/13/1
f 44/13/1 39/13/1 43/13/1
f 48/5/1 46/5/1 45/5/1
f 49/5/1 46/5/1 48/5/1
f 50/5/1 46/5/1 49/5/1
f 51/5/1 46/5/1 50/5/1
f 53/5/1 48/5/1 47/5/1
f 53/5/1 49/5/1 48/5/1
f 54/5/1 49/5/1 53/5/1
f 55/5/1 52/5/1 51/5/1
f 55/5/1 51/5/1 50/5/1
f 56/5/1 52/5/1 55/5/1
f 57/7/1 54/7/1 53/7/1
f 58/7/1 54/7/1 57/7/1
f 59/7/1 56/7/1 55/7/1
f 60/7/1 56/7/1 59/7/1
f 61/7/1 56/7/1 60/7/1
f 62/12/1 59/12/1 58/12/1
f 63/12/1 59/12/1 62/12/1
f 66/12/1 61/12/1 60/12/1
f 67/12/1 61/12/1 66/12/1
f 70/13/1 65/13/1 64/13/1
f 71/13/1 65/13/1 70/13/1
f 74/13/1 69/13/1 68/13/1
f 75/13/1 69/13/1 74/13/1
f 76/13/1 72/13/1 71/13/1
f 77/13/1 72/13/1 76/13/1
f 80/13/1 74/13/1 73/13/1
f 81/13/1 74/13/1 80/13/1
f 82/13/1 79/13/1 78/13/1
f 83/13/1 79/13/1 82/13/1
f 86/8/1 85/8/1 84/8/1
f 87/8/1 85/8/1 86/8/1
f 90/12/1 89/12/1 88/12/1
f 91/12/1 89/12/1 90/12/1
f 96/13/1 93/13/1 92/13/1
f 97/13/1 93/13/1 96/13/1
f 98/13/1 95/13/1 94/13/1
f 99/13/1 95/13/1 98/13/1
f 103/8/1 101/8/1 100/8/1
f 104/8/1 101/8/1 103/8/1
f 106/5/1 103/5/1 102/5/1
f 107/4/1 104/4/1 103/4/1
f 107/5/1 103/5/1 106/5/1
f 108/5/1 105/5/1 104/5/1
f 108/4/1 104/4/1 107/4/1
f 109/5/1 105/5/1 108/5/1
f 112/11/1 111/11/1 110/11/1
f 113/11/1 111/11/1 112/11/1
f 114/10/1 113/10/1 112/10/1
f 115/10/1 113/10/1 114/10/1
f 116/13/2 117/13/2 118/13/2
f 118/13/2 117/13/2 119/13/2
f 118/12/2 119/12/2 121/12/2
f 120/12/2 121/12/2 122/12/2
f 121/12/2 119/12/2 123/12/2
f 122/12/2 121/12/2 123/12/2
f 124/8/2 125/8/2 127/8/2
f 127/8/2 125/8/2 128/8/2
f 126/5/2 127/5/2 130/5/2
f 127/6/2 128/6/2 131/6/2
f 130/5/2 127/5/2 131/5/2
f 128/5/2 129/5/2 132/5/2
f 131/6/2 128/6/2 132/6/2
f 132/5/2 129/5/2 133/5/2
f 134/13/2 135/13/2 138/13/2
f 138/13/2 135/13/2 139/13/2
f 136/13/2 137/13/2 140/13/2
f 140/13/2 137/13/2 141/13/2
f 142/8/2 143/8/2 144/8/2
f 144/8/2 143/8/2 145/8/2
f 146/12/2 147/12/2 150/12/2
f 150/12/2 147/12/2 151/12/2
f 148/13/2 149/13/2 154/13/2
f 154/13/2 149/13/2 155/13/2
f 152/13/2 153/13/2 158/13/2
f 158/13/2 153/13/2 159/13/2
f 155/13/2 156/13/2 160/13/2
f 160/13/2 156/13/2 161/13/2
f 157/13/2 158/13/2 164/13/2
f 164/13/2 158/13/2 165/13/2
f 162/13/2 163/13/2 166/13/2
f 166/13/2 163/13/2 167/13/2
f 168/5/2 169/5/2 171/5/2
f 171/5/2 169/5/2 172/5/2
f 172/5/2 169/5/2 173/5/2
f 173/5/2 169/5/2 174/5/2
f 170/3/2 171/3/2 176/3/2
f 171/3/2 172/3/2 176/3/2
f 176/3/2 172/3/2 177/3/2
f 174/5/2 175/5/2 178/5/2
f 173/5/2 174/5/2 178/5/2
f 178/5/2 175/5/2 179/5/2
f 176/5/2 177/5/2 180/5/2
f 180/5/2 177/5/2 181/5/2
f 178/7/2 179/7/2 182/7/2
f 182/7/2 179/7/2 183/7/2
f 183/7/2 179/7/2 184/7/2
f 181/12/2 182/12/2 185/12/2
f 185/12/2 182/12/2 186/12/2
f 183/12/2 184/12/2 189/12/2
f 187/12/2 188/12/2 191/12/2
f 191/12/2 188/12/2 192/12/2
f 189/12/2 184/12/2 193/12/2
f 193/12/2 184/12/2 194/12/2
f 190/13/2 191/13/2 197/13/2
f 197/13/2 191/13/2 198/13/2
f 195/13/2 196/13/2 201/13/2
f 201/13/2 196/13/2 202/13/2
f 198/13/2 199/13/2 203/13/2
f 203/13/2 199/13/2 204/13/2
f 200/13/2 201/13/2 205/13/2
f 205/13/2 201/13/2 206/13/2
f 207/1/2 208/1/2 209/1/2
f 209/1/2 208/1/2 210/1/2
f 209/9/2 210/9/2 212/9/2
f 212/9/2 210/9/2 213/9/2
f 211/11/2 212/11/2 215/11/2
f 215/11/2 212/11/2 216/11/2
f 216/11/2 212/11/2 217/11/2
f 213/12/2 214/12/2 218/12/2
f 216/11/2 217/11/2 219/11/2
f 217/2/2 218/2/2 219/2/2
f 218/12/2 214/12/2 220/12/2
f 219/2/2 218/2/2 220/2/2
f 219/11/2 220/11/2 221/11/2
f 220/12/2 214/12/2 221/12/2
f 221/12/2 214/12/2 222/12/2
f 215/10/2 216/10/2 224/10/2
f 216/11/2 219/11/2 225/11/2
f 219/11/2 221/11/2 225/11/2
f 224/10/2 216/10/2 225/10/2
f 221/11/2 222/11/2 225/11/2
f 225/11/2 222/11/2 226/11/2
f 223/13/2 224/13/2 229/13/2
f 229/13/2 224/13/2 230/13/2
f 227/13/2 228/13/2 231/13/2
f 231/13/2 228/13/2 232/13/2
f 230/13/2 231/13/2 233/13/2
f 233/13/2 231/13/2 234/13/2
f 235/13/2 236/13/2 237/13/2
f 237/13/2 236/13/2 238/13/2
f 241/13/3 240/13/3 239/13/3
f 242/13/3 240/13/3 241/13/3
f 245/13/3 244/13/3 243/13/3
f 246/13/3 244/13/3 245/13/3
f 249/13/3 247/13/3 246/13/3
f 250/13/3 247/13/3 249/13/3
f 251/13/3 249/13/3 248/13/3
f 252/13/3 249/13/3 251/13/3
f 256/13/3 254/13/3 253/13/3
f 257/13/3 254/13/3 256/13/3
f 259/12/3 256/12/3 255/12/3
f 260/12/3 256/12/3 259/12/3
f 261/13/3 258/13/3 257/13/3
f 262/13/3 258/13/3 261/13/3
f 265/12/3 256/12/3 260/12/3
f 266/12/3 256/12/3 265/12/3
f 267/13/3 264/13/3 263/13/3
f 268/13/3 264/13/3 267/13/3
f 269/13/3 267/13/3 266/13/3
f 270/13/3 267/13/3 269/13/3
f 273/13/3 272/13/3 271/13/3
f 274/13/3 272/13/3 273/13/3
f 279/13/3 275/13/3 274/13/3
f 280/13/3 275/13/3 279/13/3
f 283/13/3 277/13/3 276/13/3
f 284/12/3 278/12/3 277/12/3
f 284/13/3 277/13/3 283/13/3
f 285/12/3 278/12/3 284/12/3
f 288/7/3 283/7/3 282/7/3
f 288/5/3 282/5/3 281/5/3
f 289/7/3 283/7/3 288/7/3
f 290/5/3 288/5/3 281/5/3
f 291/9/3 289/9/3 288/9/3
f 291/5/3 288/5/3 290/5/3
f 292/9/3 289/9/3 291/9/3
f 293/3/3 291/3/3 290/3/3
f 293/7/3 292/7/3 291/7/3
f 294/9/3 289/9/3 292/9/3
f 294/7/3 292/7/3 293/7/3
f 295/9/3 289/9/3 294/9/3
f 296/13/3 287/13/3 286/13/3
f 297/13/3 287/13/3 296/13/3
f 298/3/3 293/3/3 290/3/3
f 299/5/3 295/5/3 294/5/3
f 299/3/3 293/3/3 298/3/3
f 299/5/3 294/5/3 293/5/3
f 300/5/3 295/5/3 299/5/3
f 306/11/3 301/11/3 300/11/3
f 307/10/3 303/10/3 302/10/3
f 307/11/3 301/11/3 306/11/3
f 307/10/3 302/10/3 301/10/3
f 308/10/3 303/10/3 307/10/3
f 309/13/3 305/13/3 304/13/3
f 310/13/3 305/13/3 309/13/3
f 311/13/3 309/13/3 308/13/3
f 312/13/3 309/13/3 311/13/3
f 320/2/3 316/2/3 315/2/3
f 320/2/3 317/2/3 316/2/3
f 321/2/3 317/2/3 320/2/3
f 322/13/3 319/13/3 318/13/3
f 323/13/3 319/13/3 322/13/3
f 324/5/3 314/5/3 313/5/3
f 325/5/3 314/5/3 324/5/3
f 326/2/3 320/2/3 315/2/3
f 327/13/3 321/13/3 320/13/3
f 327/2/3 320/2/3 326/2/3
f 328/2/3 317/2/3 321/2/3
f 328/13/3 321/13/3 327/13/3
f 329/2/3 317/2/3 328/2/3
f 332/11/3 327/11/3 326/11/3
f 333/1/3 328/1/3 327/1/3
f 333/11/3 327/11/3 332/11/3
f 333/1/3 329/1/3 328/1/3
f 334/1/3 329/1/3 333/1/3
f 337/1/3 333/1/3 332/1/3
f 337/13/3 334/13/3 333/13/3
f 338/1/3 329/1/3 334/1/3
f 338/13/3 334/13/3 337/13/3
f 339/13/3 336/13/3 335/13/3
f 340/13/3 336/13/3 339/13/3
f 341/5/3 331/5/3 330/5/3
f 342/5/3 331/5/3 341/5/3
f 343/1/3 337/1/3 332/1/3
f 343/1/3 338/1/3 337/1/3
f 344/1/3 338/1/3 343/1/3
f 345/1/3 329/1/3 338/1/3
f 345/1/3 338/1/3 344/1/3
f 349/1/3 347/1/3 346/1/3
f 350/9/3 348/9/3 347/9/3
f 350/1/3 347/1/3 349/1/3
f 351/9/3 348/9/3 350/9/3
f 354/8/3 353/8/3 352/8/3
f 355/8/3 353/8/3 354/8/3
f 358/8/3 357/8/3 356/8/3
f 359/8/3 357/8/3 358/8/3
f 363/1/3 361/1/3 360/1/3
f 364/9/3 362/9/3 361/9/3
f 364/1/3 361/1/3 363/1/3
f 365/9/3 362/9/3 364/9/3
f 368/12/3 367/12/3 366/12/3
f 369/12/3 367/12/3 368/12/3
f 372/12/3 371/12/3 370/12/3
f 373/12/3 371/12/3 372/12/3
f 374/13/4 375/13/4 376/13/4
f 376/13/4 375/13/4 377/13/4
f 378/11/4 379/11/4 380/11/4
f 380/11/4 379/11/4 381/11/4
f 382/1/4 383/1/4 385/1/4
f 383/9/4 384/9/4 386/9/4
f 385/1/4 383/1/4 386/1/4
f 386/9/4 384/9/4 387/9/4
f 388/8/4 389/8/4 390/8/4
f 390/8/4 389/8/4 391/8/4
f 392/8/4 393/8/4 394/8/4
f 394/8/4 393/8/4 395/8/4
f 396/1/4 397/1/4 399/1/4
f 397/9/4 398/9/4 400/9/4
f 399/1/4 397/1/4 400/1/4
f 400/9/4 398/9/4 401/9/4
f 402/12/4 403/12/4 406/12/4
f 406/12/4 403/12/4 407/12/4
f 408/13/4 409/13/4 410/13/4
f 410/13/4 409/13/4 411/13/4
f 404/5/4 405/5/4 412/5/4
f 412/5/4 405/5/4 413/5/4
f 416/13/4 417/13/4 418/13/4
f 418/13/4 417/13/4 419/13/4
f 414/5/4 415/5/4 420/5/4
f 420/5/4 415/5/4 421/5/4
f 422/12/4 423/12/4 425/12/4
f 423/11/4 424/11/4 426/11/4
f 425/12/4 423/12/4 426/12/4
f 426/11/4 424/11/4 427/11/4
f 428/13/4 429/13/4 430/13/4
f 430/13/4 429/13/4 431/13/4
f 431/13/4 432/13/4 433/13/4
f 433/13/4 432/13/4 434/13/4
f 436/7/4 437/7/4 439/7/4
f 437/12/4 438/12/4 439/12/4
f 439/12/4 438/12/4 440/12/4
f 441/13/4 442/13/4 443/13/4
f 443/13/4 442/13/4 444/13/4
f 436/7/4 439/7/4 445/7/4
f 435/5/4 436/5/4 447/5/4
f 436/7/4 445/7/4 448/7/4
f 447/5/4 436/5/4 448/5/4
f 445/12/4 446/12/4 449/12/4
f 448/7/4 445/7/4 449/7/4
f 449/12/4 446/12/4 450/12/4
f 451/13/4 452/13/4 454/13/4
f 454/13/4 452/13/4 455/13/4
f 453/13/4 454/13/4 456/13/4
f 456/13/4 454/13/4 457/13/4
f 458/13/4 459/13/4 460/13/4
f 460/13/4 459/13/4 461/13/4
f 461/13/4 462/13/4 463/13/4
f 463/13/4 462/13/4 464/13/4
f 465/12/4 466/12/4 467/12/4
f 467/12/4 466/12/4 468/12/4
f 469/13/4 470/13/4 472/13/4
f 472/13/4 470/13/4 473/13/4
f 471/13/4 472/13/4 474/13/4
f 474/13/4 472/13/4 475/13/4
f 476/13/4 477/13/4 478/13/4
f 478/13/4 477/13/4 479/13/4
f 479/13/4 480/13/4 482/13/4
f 482/13/4 480/13/4 483/13/4
f 481/13/4 482/13/4 484/13/4
f 484/13/4 482/13/4 485/13/4
f 486/13/4 487/13/4 488/13/4
f 488/13/4 487/13/4 489/13/4
f 494/8/5 491/8/5 490/8/5
f 495/8/5 491/8/5 494/8/5
f 496/8/5 493/8/5 492/8/5
f 497/8/5 493/8/5 496/8/5
f 502/5/5 499/5/5 498/5/5
f 503/5/5 499/5/5 502/5/5
f 504/5/5 501/5/5 500/5/5
f 505/5/5 501/5/5 504/5/5
f 506/5/5 502/5/5 498/5/5
f 509/5/5 501/5/5 505/5/5
f 510/5/5 507/5/5 506/5/5
f 510/5/5 506/5/5 498/5/5
f 511/5/5 507/5/5 510/5/5
f 512/5/5 509/5/5 508/5/5
f 513/5/5 501/5/5 509/5/5
f 513/5/5 509/5/5 512/5/5
f 517/5/5 515/5/5 514/5/5
f 518/5/5 515/5/5 517/5/5
f 519/3/5 516/3/5 515/3/5
f 520/3/5 516/3/5 519/3/5
f 523/5/5 515/5/5 518/5/5
f 524/3/5 519/3/5 515/3/5
f 524/5/5 515/5/5 523/5/5
f 525/3/5 519/3/5 524/3/5
f 528/1/5 522/1/5 521/1/5
f 529/1/5 522/1/5 528/1/5
f 530/5/5 525/5/5 524/5/5
f 530/5/5 524/5/5 523/5/5
f 531/5/5 525/5/5 530/5/5
f 532/1/5 527/1/5 526/1/5
f 533/1/5 527/1/5 532/1/5
f 535/5/5 531/5/5 530/5/5
f 536/5/5 531/5/5 535/5/5
f 538/5/5 535/5/5 534/5/5
f 538/5/5 537/5/5 536/5/5
f 538/5/5 536/5/5 535/5/5
f 539/5/5 537/5/5 538/5/5
f 544/13/5 541/13/5 540/13/5
f 545/13/5 541/13/5 544/13/5
f 546/11/5 543/11/5 542/11/5
f 547/11/5 543/11/5 546/11/5
f 552/12/5 549/12/5 548/12/5
f 553/12/5 549/12/5 552/12/5
f 554/12/5 551/12/5 550/12/5
f 555/12/5 551/12/5 554/12/5
f 558/12/5 557/12/5 556/12/5
f 559/12/5 557/12/5 558/12/5
f 564/2/5 561/2/5 560/2/5
f 565/2/5 561/2/5 564/2/5
f 566/2/5 563/2/5 562/2/5
f 567/2/5 563/2/5 566/2/5
f 570/12/5 569/12/5 568/12/5
f 571/12/5 569/12/5 570/12/5
f 574/12/5 573/12/5 572/12/5
f 575/12/5 573/12/5 574/12/5
f 576/12/5 574/12/5 572/12/5
f 577/10/5 575/10/5 574/10/5
f 577/12/5 574/12/5 576/12/5
f 578/10/5 575/10/5 577/10/5
f 582/13/5 580/13/5 579/13/5
f 583/13/5 580/13/5 582/13/5
f 586/13/5 582/13/5 581/13/5
f 586/13/5 584/13/5 583/13/5
f 586/13/5 583/13/5 582/13/5
f 587/13/5 584/13/5 586/13/5
f 590/13/5 586/13/5 585/13/5
f 591/13/5 588/13/5 587/13/5
f 592/13/5 588/13/5 591/13/5
f 594/13/5 593/13/5 592/13/5
f 595/13/5 590/13/5 589/13/5
f 595/13/5 586/13/5 590/13/5
f 598/13/5 593/13/5 594/13/5
f 599/13/5 596/13/5 595/13/5
f 599/13/5 595/13/5 589/13/5
f 600/13/5 596/13/5 599/13/5
f 601/13/5 596/13/5 600/13/5
f 604/13/5 598/13/5 597/13/5
f 605/13/5 593/13/5 598/13/5
f 605/13/5 598/13/5 604/13/5
f 606/13/5 593/13/5 605/13/5
f 607/13/5 602/13/5 601/13/5
f 607/13/5 601/13/5 600/13/5
f 608/13/5 602/13/5 607/13/5
f 609/13/5 602/13/5 608/13/5
f 610/13/5 604/13/5 603/13/5
f 610/13/5 605/13/5 604/13/5
f 611/13/5 605/13/5 610/13/5
f 612/13/5 605/13/5 611/13/5
f 613/13/5 609/13/5 608/13/5
f 613/13/5 611/13/5 610/13/5
f 613/13/5 610/13/5 609/13/5
f 614/13/5 611/13/5 613/13/5
f 615/13/5 611/13/5 614/13/5
f 616/13/5 611/13/5 615/13/5
f 617/13/5 615/13/5 614/13/5
f 618/13/5 615/13/5 617/13/5
f 619/7/6 620/7/6 623/7/6
f 620/9/6 621/9/6 624/9/6
f 623/7/6 620/7/6 624/7/6
f 621/5/6 622/5/6 625/5/6
f 624/9/6 621/9/6 625/9/6
f 625/5/6 622/5/6 626/5/6
f 627/9/6 628/9/6 631/9/6
f 631/9/6 628/9/6 632/9/6
f 629/9/6 630/9/6 633/9/6
f 633/9/6 630/9/6 634/9/6
f 635/13/6 636/13/6 638/13/6
f 638/13/6 636/13/6 639/13/6
f 637/13/6 638/13/6 642/13/6
f 642/13/6 638/13/6 643/13/6
f 639/13/6 640/13/6 644/13/6
f 644/13/6 640/13/6 645/13/6
f 641/13/6 642/13/6 648/13/6
f 648/13/6 642/13/6 649/13/6
f 645/13/6 646/13/6 650/13/6
f 650/13/6 646/13/6 651/13/6
f 647/13/6 648/13/6 653/13/6
f 653/13/6 648/13/6 654/13/6
f 651/13/6 652/13/6 657/13/6
f 657/13/6 652/13/6 658/13/6
f 654/13/6 655/13/6 659/13/6
f 659/13/6 655/13/6 660/13/6
f 656/13/6 657/13/6 663/13/6
f 663/13/6 657/13/6 664/13/6
f 660/13/6 661/13/6 665/13/6
f 665/13/6 661/13/6 666/13/6
f 662/13/6 663/13/6 667/13/6
f 667/13/6 663/13/6 668/13/6
f 666/13/6 667/13/6 669/13/6
f 669/13/6 667/13/6 670/13/6
f 671/13/6 672/13/6 674/13/6
f 674/13/6 672/13/6 675/13/6
f 673/13/6 674/13/6 678/13/6
f 675/13/6 676/13/6 678/13/6
f 674/13/6 675/13/6 678/13/6
f 678/13/6 676/13/6 679/13/6
f 679/13/6 676/13/6 680/13/6
f 680/13/6 676/13/6 681/13/6
f 677/13/6 678/13/6 683/13/6
f 678/13/6 679/13/6 683/13/6
f 683/13/6 679/13/6 684/13/6
f 681/13/6 682/13/6 685/13/6
f 680/13/6 681/13/6 685/13/6
f 685/13/6 682/13/6 686/13/6
f 677/13/6 683/13/6 687/13/6
f 686/13/6 682/13/6 690/13/6
f 687/13/6 688/13/6 691/13/6
f 677/13/6 687/13/6 691/13/6
f 691/13/6 688/13/6 692/13/6
f 692/13/6 688/13/6 693/13/6
f 689/13/6 690/13/6 694/13/6
f 690/13/6 682/13/6 695/13/6
f 694/13/6 690/13/6 695/13/6
f 695/13/6 682/13/6 696/13/6
f 692/13/6 693/13/6 697/13/6
f 693/13/6 694/13/6 697/13/6
f 694/13/6 695/13/6 697/13/6
f 697/13/6 695/13/6 698/13/6
f 698/13/6 695/13/6 699/13/6
f 699/13/6 695/13/6 700/13/6
f 698/13/6 699/13/6 701/13/6
f 701/13/6 699/13/6 702/13/6
f 703/13/6 704/13/6 706/13/6
f 706/13/6 704/13/6 707/13/6
f 705/13/6 706/13/6 709/13/6
f 707/13/6 708/13/6 709/13/6
f 706/13/6 707/13/6 709/13/6
f 709/13/6 708/13/6 710/13/6
f 710/13/6 708/13/6 711/13/6
f 711/13/6 708/13/6 712/13/6
f 710/13/6 711/13/6 713/13/6
f 713/13/6 711/13/6 714/13/6
