# MagicaVoxel @ Ephtracy

# group
g house0

# material
mtllib house0.mtl
usemtl palette

# normals
vn -1 0 0
vn 1 0 0
vn 0 0 1
vn 0 0 -1
vn 0 -1 0
vn 0 1 0

# texcoords
vt 0.814453 0.5
vt 0.845703 0.5

# verts
v -6 10 6
v -6 10 -6
v -6 11 6
v -6 11 -6
v -5 0 5
v -5 0 -5
v -5 10 5
v -5 10 -5
v -5 11 5
v -5 11 -5
v -5 12 5
v -5 12 -5
v -4 12 4
v -4 12 -4
v -4 13 4
v -4 13 -4
v -3 13 3
v -3 13 -3
v -3 14 3
v -3 14 -3
v -2 14 2
v -2 14 -2
v -2 15 2
v -2 15 -2
v -1 15 1
v -1 15 -1
v -1 16 1
v -1 16 -1
v 1 1 5
v 1 1 4
v 1 4 5
v 1 4 4
v 4 1 4
v 4 1 -4
v 4 10 4
v 4 10 -4
v -4 1 4
v -4 1 -4
v -4 10 4
v -4 10 -4
v -1 1 5
v -1 1 4
v -1 4 5
v -1 4 4
v 1 15 1
v 1 15 -1
v 1 16 1
v 1 16 -1
v 2 14 2
v 2 14 -2
v 2 15 2
v 2 15 -2
v 3 13 3
v 3 13 -3
v 3 14 3
v 3 14 -3
v 4 12 4
v 4 12 -4
v 4 13 4
v 4 13 -4
v 5 0 5
v 5 0 -5
v 5 10 5
v 5 10 -5
v 5 11 5
v 5 11 -5
v 5 12 5
v 5 12 -5
v 6 10 6
v 6 10 -6
v 6 11 6
v 6 11 -6
v -6 10 6
v -6 11 6
v 6 10 6
v 6 11 6
v -5 0 5
v -5 10 5
v -5 11 5
v -5 12 5
v -1 1 5
v -1 4 5
v 1 1 5
v 1 4 5
v 5 0 5
v 5 10 5
v 5 11 5
v 5 12 5
v -4 12 4
v -4 13 4
v 4 12 4
v 4 13 4
v -3 13 3
v -3 14 3
v 3 13 3
v 3 14 3
v -2 14 2
v -2 15 2
v 2 14 2
v 2 15 2
v -1 15 1
v -1 16 1
v 1 15 1
v 1 16 1
v -4 1 -4
v -4 10 -4
v 4 1 -4
v 4 10 -4
v -4 1 4
v -4 10 4
v -1 1 4
v -1 4 4
v 1 1 4
v 1 4 4
v 4 1 4
v 4 10 4
v -1 15 -1
v -1 16 -1
v 1 15 -1
v 1 16 -1
v -2 14 -2
v -2 15 -2
v 2 14 -2
v 2 15 -2
v -3 13 -3
v -3 14 -3
v 3 13 -3
v 3 14 -3
v -4 12 -4
v -4 13 -4
v 4 12 -4
v 4 13 -4
v -5 0 -5
v -5 10 -5
v -5 11 -5
v -5 12 -5
v 5 0 -5
v 5 10 -5
v 5 11 -5
v 5 12 -5
v -6 10 -6
v -6 11 -6
v 6 10 -6
v 6 11 -6
v -5 0 5
v 5 0 5
v -5 0 -5
v 5 0 -5
v -1 4 5
v 1 4 5
v -1 4 4
v 1 4 4
v -6 10 6
v 6 10 6
v -5 10 5
v 5 10 5
v -4 10 4
v 4 10 4
v -4 10 -4
v 4 10 -4
v -5 10 -5
v 5 10 -5
v -6 10 -6
v 6 10 -6
v -1 1 5
v 1 1 5
v -4 1 4
v -1 1 4
v 1 1 4
v 4 1 4
v -4 1 -4
v 4 1 -4
v -6 11 6
v 6 11 6
v -5 11 5
v 5 11 5
v -5 11 -5
v 5 11 -5
v -6 11 -6
v 6 11 -6
v -5 12 5
v 5 12 5
v -4 12 4
v 4 12 4
v -4 12 -4
v 4 12 -4
v -5 12 -5
v 5 12 -5
v -4 13 4
v 4 13 4
v -3 13 3
v 3 13 3
v -3 13 -3
v 3 13 -3
v -4 13 -4
v 4 13 -4
v -3 14 3
v 3 14 3
v -2 14 2
v 2 14 2
v -2 14 -2
v 2 14 -2
v -3 14 -3
v 3 14 -3
v -2 15 2
v 2 15 2
v -1 15 1
v 1 15 1
v -1 15 -1
v 1 15 -1
v -2 15 -2
v 2 15 -2
v -1 16 1
v 1 16 1
v -1 16 -1
v 1 16 -1

# faces
f 3/1/1 2/1/1 1/1/1
f 4/1/1 2/1/1 3/1/1
f 7/2/1 6/2/1 5/2/1
f 8/2/1 6/2/1 7/2/1
f 11/1/1 10/1/1 9/1/1
f 12/1/1 10/1/1 11/1/1
f 15/1/1 14/1/1 13/1/1
f 16/1/1 14/1/1 15/1/1
f 19/1/1 18/1/1 17/1/1
f 20/1/1 18/1/1 19/1/1
f 23/1/1 22/1/1 21/1/1
f 24/1/1 22/1/1 23/1/1
f 27/1/1 26/1/1 25/1/1
f 28/1/1 26/1/1 27/1/1
f 31/2/1 30/2/1 29/2/1
f 32/2/1 30/2/1 31/2/1
f 35/2/1 34/2/1 33/2/1
f 36/2/1 34/2/1 35/2/1
f 37/2/2 38/2/2 39/2/2
f 39/2/2 38/2/2 40/2/2
f 41/2/2 42/2/2 43/2/2
f 43/2/2 42/2/2 44/2/2
f 45/1/2 46/1/2 47/1/2
f 47/1/2 46/1/2 48/1/2
f 49/1/2 50/1/2 51/1/2
f 51/1/2 50/1/2 52/1/2
f 53/1/2 54/1/2 55/1/2
f 55/1/2 54/1/2 56/1/2
f 57/1/2 58/1/2 59/1/2
f 59/1/2 58/1/2 60/1/2
f 61/2/2 62/2/2 63/2/2
f 63/2/2 62/2/2 64/2/2
f 65/1/2 66/1/2 67/1/2
f 67/1/2 66/1/2 68/1/2
f 69/1/2 70/1/2 71/1/2
f 71/1/2 70/1/2 72/1/2
f 75/1/3 74/1/3 73/1/3
f 76/1/3 74/1/3 75/1/3
f 81/2/3 78/2/3 77/2/3
f 82/2/3 78/2/3 81/2/3
f 83/2/3 81/2/3 77/2/3
f 84/2/3 78/2/3 82/2/3
f 85/2/3 83/2/3 77/2/3
f 85/2/3 84/2/3 83/2/3
f 86/2/3 78/2/3 84/2/3
f 86/2/3 84/2/3 85/2/3
f 87/1/3 80/1/3 79/1/3
f 88/1/3 80/1/3 87/1/3
f 91/1/3 90/1/3 89/1/3
f 92/1/3 90/1/3 91/1/3
f 95/1/3 94/1/3 93/1/3
f 96/1/3 94/1/3 95/1/3
f 99/1/3 98/1/3 97/1/3
f 100/1/3 98/1/3 99/1/3
f 103/1/3 102/1/3 101/1/3
f 104/1/3 102/1/3 103/1/3
f 107/2/3 106/2/3 105/2/3
f 108/2/3 106/2/3 107/2/3
f 109/2/4 110/2/4 111/2/4
f 111/2/4 110/2/4 112/2/4
f 112/2/4 110/2/4 114/2/4
f 113/2/4 114/2/4 115/2/4
f 114/2/4 110/2/4 116/2/4
f 115/2/4 114/2/4 116/2/4
f 117/1/4 118/1/4 119/1/4
f 119/1/4 118/1/4 120/1/4
f 121/1/4 122/1/4 123/1/4
f 123/1/4 122/1/4 124/1/4
f 125/1/4 126/1/4 127/1/4
f 127/1/4 126/1/4 128/1/4
f 129/1/4 130/1/4 131/1/4
f 131/1/4 130/1/4 132/1/4
f 133/2/4 134/2/4 137/2/4
f 137/2/4 134/2/4 138/2/4
f 135/1/4 136/1/4 139/1/4
f 139/1/4 136/1/4 140/1/4
f 141/1/4 142/1/4 143/1/4
f 143/1/4 142/1/4 144/1/4
f 147/2/5 146/2/5 145/2/5
f 148/2/5 146/2/5 147/2/5
f 151/2/5 150/2/5 149/2/5
f 152/2/5 150/2/5 151/2/5
f 155/1/5 154/1/5 153/1/5
f 156/1/5 154/1/5 155/1/5
f 159/1/5 158/1/5 157/1/5
f 160/1/5 158/1/5 159/1/5
f 161/1/5 155/1/5 153/1/5
f 162/1/5 154/1/5 156/1/5
f 163/1/5 161/1/5 153/1/5
f 163/1/5 162/1/5 161/1/5
f 164/1/5 154/1/5 162/1/5
f 164/1/5 162/1/5 163/1/5
f 165/2/6 166/2/6 168/2/6
f 168/2/6 166/2/6 169/2/6
f 167/2/6 168/2/6 171/2/6
f 169/2/6 170/2/6 171/2/6
f 168/2/6 169/2/6 171/2/6
f 171/2/6 170/2/6 172/2/6
f 173/1/6 174/1/6 175/1/6
f 175/1/6 174/1/6 176/1/6
f 173/1/6 175/1/6 177/1/6
f 176/1/6 174/1/6 178/1/6
f 173/1/6 177/1/6 179/1/6
f 177/1/6 178/1/6 179/1/6
f 178/1/6 174/1/6 180/1/6
f 179/1/6 178/1/6 180/1/6
f 181/1/6 182/1/6 183/1/6
f 183/1/6 182/1/6 184/1/6
f 181/1/6 183/1/6 185/1/6
f 184/1/6 182/1/6 186/1/6
f 181/1/6 185/1/6 187/1/6
f 185/1/6 186/1/6 187/1/6
f 186/1/6 182/1/6 188/1/6
f 187/1/6 186/1/6 188/1/6
f 189/1/6 190/1/6 191/1/6
f 191/1/6 190/1/6 192/1/6
f 189/1/6 191/1/6 193/1/6
f 192/1/6 190/1/6 194/1/6
f 189/1/6 193/1/6 195/1/6
f 193/1/6 194/1/6 195/1/6
f 194/1/6 190/1/6 196/1/6
f 195/1/6 194/1/6 196/1/6
f 197/1/6 198/1/6 199/1/6
f 199/1/6 198/1/6 200/1/6
f 197/1/6 199/1/6 201/1/6
f 200/1/6 198/1/6 202/1/6
f 197/1/6 201/1/6 203/1/6
f 201/1/6 202/1/6 203/1/6
f 202/1/6 198/1/6 204/1/6
f 203/1/6 202/1/6 204/1/6
f 205/1/6 206/1/6 207/1/6
f 207/1/6 206/1/6 208/1/6
f 205/1/6 207/1/6 209/1/6
f 208/1/6 206/1/6 210/1/6
f 205/1/6 209/1/6 211/1/6
f 209/1/6 210/1/6 211/1/6
f 210/1/6 206/1/6 212/1/6
f 211/1/6 210/1/6 212/1/6
f 213/1/6 214/1/6 215/1/6
f 215/1/6 214/1/6 216/1/6
