# Blender v2.79 (sub 0) OBJ File: 'untitled.blend'
# www.blender.org
mtllib road_wall7.mtl
o Mesh1_Group1_Model
v 0.000000 0.815000 0.000000
v 0.000000 0.500000 0.000000
v 0.600000 0.500000 -0.000000
v 0.600000 0.815000 0.000000
v 0.000000 0.500000 -3.000000
v 0.000000 0.815000 -3.000000
v 0.600000 0.500000 -3.000000
v 0.600000 0.815000 -3.000000
vt 0.000000 0.630000
vt 0.000000 0.000000
vt 3.000000 0.000000
vt 3.000000 0.630000
vt -3.000000 0.000000
vt -3.000000 0.630000
vt -3.000000 0.000000
vt 0.000000 3.000000
vt -3.000000 3.000000
vt -3.000000 0.630000
vt -3.000000 0.000000
vt -0.000000 0.000000
vt -0.000000 0.630000
vt -0.000000 -0.000000
vt 3.000000 -0.000000
vt 3.000000 0.630000
vt -0.000000 0.630000
vt 0.000000 3.000000
vt 0.000000 -0.000000
vt 3.000000 0.000000
vt 3.000000 3.000000
vn 0.0000 -0.0000 1.0000
vn -1.0000 0.0000 0.0000
vn 0.0000 -1.0000 -0.0000
vn 0.0000 0.0000 -1.0000
vn 1.0000 0.0000 0.0000
vn 0.0000 1.0000 0.0000
usemtl Stone
s 1
f 1/1/1 2/2/1 3/3/1 4/4/1
f 5/5/2 2/2/2 1/1/2 6/6/2
f 3/7/3 2/2/3 5/8/3 7/9/3
f 8/10/4 7/11/4 5/12/4 6/13/4
f 3/14/5 7/15/5 8/16/5 4/17/5
f 6/18/6 1/19/6 4/20/6 8/21/6
o Mesh1_Group1_Model.001
v 0.000000 0.630000 0.000000
v 0.000000 0.000000 0.000000
v 3.000000 0.000000 -0.000000
v 3.000000 0.630000 0.000000
v 0.000000 0.000000 -3.000000
v 0.000000 0.630000 -3.000000
v 3.000000 0.000000 -3.000000
v 3.000000 0.630000 -3.000000
vt 0.000000 0.630000
vt 0.000000 0.000000
vt 3.000000 0.000000
vt 3.000000 0.630000
vt -3.000000 0.000000
vt -3.000000 0.630000
vt -3.000000 0.000000
vt 0.000000 3.000000
vt -3.000000 3.000000
vt -3.000000 0.630000
vt -3.000000 0.000000
vt -0.000000 0.000000
vt -0.000000 0.630000
vt -0.000000 -0.000000
vt 3.000000 -0.000000
vt 3.000000 0.630000
vt -0.000000 0.630000
vt 0.000000 3.000000
vt 0.000000 -0.000000
vt 3.000000 0.000000
vt 3.000000 3.000000
vn 0.0000 -0.0000 1.0000
vn -1.0000 -0.0000 0.0000
vn 0.0000 -1.0000 -0.0000
vn 0.0000 0.0000 -1.0000
vn 1.0000 0.0000 0.0000
vn 0.0000 1.0000 0.0000
usemtl Stone.001
s 1
f 9/22/7 10/23/7 11/24/7 12/25/7
f 13/26/8 10/23/8 9/22/8 14/27/8
f 11/28/9 10/23/9 13/29/9 15/30/9
f 16/31/10 15/32/10 13/33/10 14/34/10
f 11/35/11 15/36/11 16/37/11 12/38/11
f 14/39/12 9/40/12 12/41/12 16/42/12
o Mesh1_Group1_Model.002
v 3.000000 0.815000 -3.000000
v 3.000000 0.500000 -3.000000
v 0.000000 0.500000 -3.000000
v 0.000000 0.815000 -3.000000
v 3.000000 0.500000 -2.400000
v 3.000000 0.815000 -2.400000
v 0.000000 0.500000 -2.400000
v 0.000000 0.815000 -2.400000
vt 0.000000 0.630000
vt 0.000000 0.000000
vt 3.000000 0.000000
vt 3.000000 0.630000
vt -3.000000 0.000000
vt -3.000000 0.630000
vt -3.000000 0.000000
vt 0.000000 3.000000
vt -3.000000 3.000000
vt -3.000000 0.630000
vt -3.000000 0.000000
vt -0.000000 0.000000
vt -0.000000 0.630000
vt -0.000000 -0.000000
vt 3.000000 -0.000000
vt 3.000000 0.630000
vt -0.000000 0.630000
vt 0.000000 3.000000
vt 0.000000 -0.000000
vt 3.000000 0.000000
vt 3.000000 3.000000
vn -0.0000 0.0000 -1.0000
vn 1.0000 0.0000 0.0000
vn 0.0000 -1.0000 0.0000
vn 0.0000 0.0000 1.0000
vn -1.0000 0.0000 0.0000
vn -0.0000 1.0000 -0.0000
usemtl Stone.002
s 1
f 17/43/13 18/44/13 19/45/13 20/46/13
f 21/47/14 18/44/14 17/43/14 22/48/14
f 19/49/15 18/44/15 21/50/15 23/51/15
f 24/52/16 23/53/16 21/54/16 22/55/16
f 19/56/17 23/57/17 24/58/17 20/59/17
f 22/60/18 17/61/18 20/62/18 24/63/18
