# Exported using Kenney Suite 1.2 

mtllib flagCheckersSmall.mtl 

g flagCheckersSmall

v 0.09999999 3.6 -0.09999999 
v 0.09999999 0 -0.09999999 
v 0.09999999 3.6 0.09999999 
v 0.09999999 0 0.09999999 
v -0.09999999 0 0.09999999 
v -0.09999999 1.456552 0.09999999 
v -0.09999999 3.5 0.09999999 
v -0.09999999 3.6 0.09999999 
v -0.09999999 0 -0.09999999 
v -0.09999999 1.456552 -0.09999999 
v -0.09999999 3.5 -0.09999999 
v -0.09999999 3.6 -0.09999999 
v -1.8 1.456552 0.09999999 
v -1.8 3.5 0.09999999 
v -1.8 3.5 -0.09999999 
v -1.8 1.456552 -0.09999999 

vn 1 0 0
vn 0 0 1
vn 0 0 -1
vn 0 -1 0
vn -1 0 0
vn 0 1 0

vt 0.3937008 14.17323
vt 0.3937008 0
vt -0.3937008 14.17323
vt -0.3937008 0
vt -0.3937008 5.734457
vt -0.3937008 13.77953
vt 0.3937008 5.734457
vt 0.3937008 13.77953
vt 0.3937008 0.3937008
vt 0.3937008 -0.3937008
vt -0.3937008 0.3937008
vt -0.3937008 -0.3937008
vt -7.086614 5.734457
vt -7.086614 13.77953
vt 7.086614 13.77953
vt 7.086614 5.734457
vt -7.086614 0.3937008
vt -7.086614 -0.3937008
vt 7.086614 -0.3937008
vt 7.086614 0.3937008
vt 0.003862855 3.865002
vt 0.004784283 4.006482
vt 1.206439 3.85717
vt 1.207361 3.99865
vt 1.207362 3.998653
vt 0.004784283 4.006482
vt 1.216777 5.444184
vt 0.01419962 5.452013
vt 0.03078688 7.998645
vt 0.03170866 8.140125
vt 1.233363 7.99081
vt 1.234285 8.13229

usemtl _defaultMat
usemap _defaultMat

f 2/2/1 1/1/1 3/3/1
f 3/3/1 4/4/1 2/2/1
f 5/4/2 4/2/2 3/1/2
f 3/1/2 6/5/2 5/4/2
f 3/1/2 7/6/2 6/5/2
f 3/1/2 8/3/2 7/6/2
f 2/4/3 9/2/3 10/7/3
f 10/7/3 1/3/3 2/4/3
f 10/7/3 11/8/3 1/3/3
f 11/8/3 12/1/3 1/3/3
f 2/10/4 4/9/4 5/11/4
f 5/11/4 9/12/4 2/10/4
f 11/6/5 10/5/5 6/7/5
f 6/7/5 7/8/5 11/6/5
f 5/2/5 6/7/5 10/5/5
f 10/5/5 9/4/5 5/2/5
f 12/3/5 11/6/5 7/8/5
f 7/8/5 8/1/5 12/3/5
f 3/11/6 1/12/6 12/10/6
f 12/10/6 8/9/6 3/11/6

usemtl grey
usemap grey

f 2/2/5 3/3/5 1/1/5
f 3/3/5 2/2/5 4/4/5
f 5/4/3 3/1/3 4/2/3
f 3/1/3 5/4/3 6/5/3
f 3/1/3 6/5/3 7/6/3
f 3/1/3 7/6/3 8/3/3
f 13/13/3 7/6/3 6/5/3
f 7/6/3 13/13/3 14/14/3
f 2/4/2 10/7/2 9/2/2
f 10/7/2 2/4/2 1/3/2
f 10/7/2 1/3/2 11/8/2
f 11/8/2 1/3/2 12/1/2
f 15/15/2 10/7/2 11/8/2
f 10/7/2 15/15/2 16/16/2
f 2/10/6 5/11/6 4/9/6
f 5/11/6 2/10/6 9/12/6
f 10/12/6 13/17/6 6/11/6
f 13/17/6 10/12/6 16/18/6
f 11/6/1 6/7/1 10/5/1
f 6/7/1 11/6/1 7/8/1
f 5/2/1 10/5/1 6/7/1
f 10/5/1 5/2/1 9/4/1
f 12/3/1 7/8/1 11/6/1
f 7/8/1 12/3/1 8/1/1
f 15/6/1 13/7/1 16/5/1
f 13/7/1 15/6/1 14/8/1
f 7/9/4 15/19/4 11/10/4
f 15/19/4 7/9/4 14/20/4
f 3/11/4 12/10/4 1/12/4
f 12/10/4 3/11/4 8/9/4

usemtl checkers
usemap checkers

f 10/22/4 6/21/4 13/23/4
f 13/23/4 16/24/4 10/22/4
f 10/26/3 16/25/3 15/27/3
f 15/27/3 11/28/3 10/26/3
f 13/25/2 6/26/2 7/28/2
f 7/28/2 14/27/2 13/25/2
f 15/27/5 16/25/5 13/25/5
f 13/25/5 14/27/5 15/27/5
f 7/30/6 11/29/6 15/31/6
f 15/31/6 14/32/6 7/30/6
