# Exported using Kenney Suite 1.2 

mtllib roadStraightArrow.mtl 

g roadStraightArrow

v -9.183473 0 0 
v -9.183473 0 10 
v -10 0 0 
v -10 0 10 
v 0 0 0 
v 0 0 10 
v -0.8165262 0 0 
v -0.8165262 0 10 
v -8.451351 0.2 0 
v -8.451351 0.2 10 
v -9.183473 0.2 0 
v -9.183473 0.2 10 
v -8.451351 0.09999999 0 
v -8.451351 0.09999999 10 
v -0.8165262 0.2 0 
v -0.8165262 0.2 10 
v -1.548649 0.2 0 
v -1.548649 0.2 10 
v -1.548649 0.09999999 0 
v -1.548649 0.09999999 10 
v -4.420685 0.09999999 2.543841 
v -4.420685 0.09999999 6.031159 
v -5.579315 0.09999999 2.543841 
v -5 0.09999999 7.306159 
v -5.579315 0.09999999 6.031159 
v -5.879315 0.09999999 6.3555 
v -5.879315 0.09999999 6.031159 
v -4.120685 0.09999999 6.3555 
v -4.120685 0.09999999 6.031159 

vn 0 1 0
vn 1 0 0
vn -1 0 0

vt 36.15541 0
vt 36.15541 39.37008
vt 39.37008 0
vt 39.37008 39.37008
vt 0 0
vt 0 39.37008
vt 3.21467 0
vt 3.21467 39.37008
vt 33.27304 0
vt 33.27304 39.37008
vt 0 0.7874016
vt 0 0.3937008
vt -39.37008 0.7874016
vt -39.37008 0.3937008
vt 39.37008 0.7874016
vt -39.37008 0
vt 6.097044 0
vt 6.097044 39.37008
vt 39.37008 0.3937008
vt 17.40427 10.01512
vt 17.40427 23.74472
vt 21.96581 10.01512
vt 19.68504 28.7644
vt 21.96581 23.74472
vt 23.14691 25.02165
vt 23.14691 23.74472
vt 16.22317 25.02165
vt 16.22317 23.74472

usemtl grass
usemap grass

f 2/2/1 1/1/1 3/3/1
f 3/3/1 4/4/1 2/2/1
f 6/6/1 5/5/1 7/7/1
f 7/7/1 8/8/1 6/6/1

usemtl grey
usemap grey

f 10/10/1 9/9/1 11/1/1
f 11/1/1 12/2/1 10/10/1
f 13/12/2 9/11/2 10/13/2
f 10/13/2 14/14/2 13/12/2
f 11/11/3 1/5/3 2/3/3
f 2/3/3 12/15/3 11/11/3
f 7/5/2 15/11/2 16/13/2
f 16/13/2 8/16/2 7/5/2
f 16/8/1 15/7/1 17/17/1
f 17/17/1 18/18/1 16/8/1
f 17/11/3 19/12/3 20/19/3
f 20/19/3 18/15/3 17/11/3
f 22/21/1 21/20/1 23/22/1
f 23/22/1 24/23/1 22/21/1
f 23/22/1 25/24/1 24/23/1
f 25/24/1 26/25/1 24/23/1
f 25/24/1 27/26/1 26/25/1
f 22/21/1 24/23/1 28/27/1
f 28/27/1 29/28/1 22/21/1

usemtl road
usemap road

f 21/20/1 20/18/1 19/17/1
f 19/17/1 13/9/1 21/20/1
f 21/20/1 29/28/1 20/18/1
f 13/9/1 23/22/1 21/20/1
f 13/9/1 25/24/1 23/22/1
f 13/9/1 27/26/1 25/24/1
f 13/9/1 26/25/1 27/26/1
f 20/18/1 29/28/1 28/27/1
f 20/18/1 28/27/1 24/23/1
f 24/23/1 14/10/1 20/18/1
f 24/23/1 26/25/1 14/10/1
f 26/25/1 13/9/1 14/10/1
f 29/28/1 21/20/1 22/21/1
