# Exported using Kenney Suite 1.2 

mtllib roadRampLong.mtl 

g roadRampLong

v -9.183473 0 3.609557E-15 
v -9.183473 5 20 
v -10 0 0 
v -10 5 20 
v 0 0 0 
v 0 5 20 
v -0.8165262 0 3.609557E-15 
v -0.8165262 5 20 
v -8.451351 0.2 0 
v -8.451351 5.2 20 
v -9.183473 0.2 3.609557E-15 
v -9.183473 5.2 20 
v -8.451351 0.09999999 0 
v -8.451351 5.1 20 
v -0.8165262 0.2 3.609557E-15 
v -0.8165262 5.2 20 
v -1.548649 0.2 0 
v -1.548649 5.2 20 
v -1.548649 0.09999999 0 
v -1.548649 5.1 20 

vn 0 0.9701425 -0.2425356
vn 1 0 0
vn -1 0 0

vt 36.15541 8.613803E-14
vt 36.15541 81.1635
vt 39.37008 7.878443E-14
vt 39.37008 81.1635
vt 0 0
vt 1.624183E-13 81.1635
vt 3.21467 7.353599E-15
vt 3.21467 81.1635
vt 33.27304 0.1909729
vt 33.27304 81.35447
vt 36.15541 0.1909729
vt 36.15541 81.35447
vt 0 0.7874016
vt 0 0.3937008
vt -78.74016 20.47244
vt -78.74016 20.07874
vt 1.421085E-14 0
vt 1.421085E-14 0.7874016
vt 78.74016 19.68504
vt 78.74016 20.47244
vt -1.421085E-14 0.7874016
vt -1.421085E-14 0
vt -78.74016 19.68504
vt 3.21467 0.1909729
vt 3.21467 81.35447
vt 6.097044 0.1909729
vt 6.097044 81.35447
vt 4.401525E-15 0.3937008
vt 4.401525E-15 0.7874016
vt 78.74016 20.07874
vt 6.097044 0.09548647
vt 6.097044 81.25898
vt 33.27304 0.09548647
vt 33.27304 81.25898

usemtl grass
usemap grass

f 2/2/1 1/1/1 3/3/1
f 3/3/1 4/4/1 2/2/1
f 6/6/1 5/5/1 7/7/1
f 7/7/1 8/8/1 6/6/1

usemtl grey
usemap grey

f 10/10/1 9/9/1 11/11/1
f 11/11/1 12/12/1 10/10/1
f 13/14/2 9/13/2 10/15/2
f 10/15/2 14/16/2 13/14/2
f 11/18/3 1/17/3 2/19/3
f 2/19/3 12/20/3 11/18/3
f 7/22/2 15/21/2 16/15/2
f 16/15/2 8/23/2 7/22/2
f 16/25/1 15/24/1 17/26/1
f 17/26/1 18/27/1 16/25/1
f 17/29/3 19/28/3 20/30/3
f 20/30/3 18/20/3 17/29/3

usemtl road
usemap road

f 20/32/1 19/31/1 13/33/1
f 13/33/1 14/34/1 20/32/1
