# Exported using Kenney Suite 1.2 

mtllib benchCushionLow.mtl 

g benchCushionLow

v -3.6 0.7 0.4 
v -4 0.7 0.4 
v -3.6 1.4 0.4 
v -4 1.4 0.4 
v -3.6 0 0.4 
v -4 0 0.4 
v -3.6 0.5 0.4 
v -4 0.5 0.4 
v -0.4 0.5 1.2 
v -3.6 0.5 1.2 
v -0.4 0.7 1.2 
v -3.6 0.7 1.2 
v -3.6 0.5 1.6 
v -4 0.5 1.6 
v -3.6 0.5 0.8 
v -0.4 0.5 0.8 
v -0.4 0.5 1.6 
v 0 0.5 0.4 
v 0 0.5 1.6 
v -0.4 0.5 0.4 
v -0.4 0 1.6 
v 0 0 1.6 
v -3.6 0 0 
v -4 0 0 
v 0 0 0.4 
v -0.4 0 0.4 
v 0 0.7 0.4 
v -0.4 0.7 0.4 
v 0 1.4 0.4 
v -0.4 1.4 0.4 
v -3.6 1.4 0 
v -3.6 0.7 0.8 
v -0.4 0.7 0.8 
v -4 0.7 1.6 
v -4 1.4 1.6 
v -4 1.7 0 
v -4 1.7 2 
v -4 0 2 
v -4 0 1.6 
v -3.6 1.4 1.6 
v -3.6 1.4 2 
v -0.4 1.4 0 
v -0.4 1.4 1.6 
v -0.4 1.4 2 
v 0 1.4 1.6 
v 0 1.7 0 
v 0 0 0 
v -0.4 0 0 
v 0 0 2 
v -0.4 0 2 
v -0.4 0.7 1.6 
v 0 0.7 1.6 
v -3.6 0 1.6 
v -3.6 0.7 1.6 
v -3.6 0 2 
v -1.804779E-15 1.7 2 
v 0.09999999 2 -0.09999999 
v 0.09999999 2 2.1 
v -4.1 2 -0.09999999 
v -4.1 2 2.1 
v -4.1 1.7 -0.09999999 
v 0.09999999 1.7 -0.09999999 
v 0.09999999 1.7 2.1 
v -4.1 1.7 2.1 

vn 0 0 1
vn 0 -1 0
vn 0 0 -1
vn 1 0 0
vn -1 0 0
vn 0 1 0

vt -14.17323 2.755906
vt -15.74803 2.755906
vt -14.17323 5.511811
vt -15.74803 5.511811
vt -14.17323 1.136868E-14
vt -15.74803 1.136868E-14
vt -14.17323 1.968504
vt -15.74803 1.968504
vt -1.574803 1.968504
vt -1.574803 2.755906
vt -14.17323 6.299212
vt -14.17323 4.72441
vt -15.74803 6.299212
vt -14.17323 3.149606
vt -15.74803 1.574803
vt -14.17323 1.574803
vt -1.574803 4.72441
vt -1.574803 3.149606
vt -1.574803 6.299212
vt -1.05179E-15 1.574803
vt -1.05179E-15 6.299212
vt -1.574803 1.574803
vt 1.574803 0
vt 0 0
vt 1.574803 1.968504
vt 0 1.968504
vt -14.17323 0
vt -15.74803 0
vt 0 5.684342E-15
vt -1.574803 5.684342E-15
vt 0 2.755906
vt 0 5.511811
vt -1.574803 5.511811
vt -1.598721E-14 5.511811
vt -1.598721E-14 -8.68239E-31
vt -1.574803 -8.68239E-31
vt -3.149606 2.755906
vt -3.149606 1.968504
vt 14.17323 1.968504
vt 14.17323 2.755906
vt 1.574803 2.755906
vt 1.574803 5.511811
vt 1.574803 -3.810423E-14
vt 6.299212 2.755906
vt 6.299212 1.968504
vt 6.299212 5.511811
vt -2.351061E-14 6.692914
vt -2.351061E-14 -3.810423E-14
vt 7.874016 6.692914
vt 7.874016 -3.810423E-14
vt 6.299212 -3.810423E-14
vt -14.17323 7.874016
vt -1.574803 0
vt -1.574803 7.874016
vt 0 1.574803
vt 0 6.299212
vt 15.74803 0
vt 14.17323 0
vt 15.74803 6.692914
vt 14.17323 5.511811
vt 0 6.692914
vt 0 7.874016
vt 1.574803 -7.71768E-31
vt 3.149606 2.755906
vt 3.149606 1.968504
vt -1.776357E-15 5.511811
vt -1.776357E-15 -7.71768E-31
vt 6.299212 0
vt 7.874016 0
vt 7.874016 5.511811
vt 4.72441 1.968504
vt 4.72441 2.755906
vt 15.74803 2.273737E-14
vt 14.17323 2.273737E-14
vt 15.74803 1.968504
vt 15.74803 2.755906
vt 15.74803 5.511811
vt -6.299212 5.511811
vt -6.299212 2.755906
vt -7.874016 5.511811
vt -6.299212 1.968504
vt -7.874016 -1.179358E-29
vt -6.299212 -1.179358E-29
vt -4.72441 1.968504
vt -4.72441 2.755906
vt -15.74803 7.874016
vt 1.472506E-15 1.574803
vt 1.472506E-15 6.299212
vt 1.574803 1.574803
vt 1.574803 3.149606
vt 1.574803 6.299212
vt 1.574803 4.72441
vt 14.17323 3.149606
vt 14.17323 4.72441
vt 15.74803 1.574803
vt 14.17323 1.574803
vt 15.74803 6.299212
vt 14.17323 6.299212
vt -7.105427E-15 6.692914
vt -15.74803 6.692914
vt -7.874016 6.692914
vt -6.299212 -1.123688E-30
vt -7.874016 -1.40461E-30
vt -1.574803 -2.80922E-31
vt -0.3937008 -0.3937008
vt -0.3937008 8.267716
vt 16.14173 -0.3937008
vt 16.14173 8.267716
vt 16.14173 6.692914
vt -0.3937008 6.692914
vt 16.14173 7.874016
vt -0.3937008 7.874016
vt 0.3937008 7.874016
vt 0.3937008 6.692914
vt -8.267716 7.874016
vt -8.267716 6.692914
vt 5.617483E-33 1.372639E-15
vt -7.105427E-15 7.874016
vt 0.3937008 8.267716
vt -16.14173 8.267716
vt -15.74803 1.372639E-15
vt 0.3937008 -0.3937008
vt -16.14173 -0.3937008
vt 8.267716 6.692914
vt 8.267716 7.874016
vt -16.14173 6.692914
vt -16.14173 7.874016

usemtl wood
usemap wood

f 2/2/1 1/1/1 3/3/1
f 3/3/1 4/4/1 2/2/1
f 6/6/1 5/5/1 7/7/1
f 7/7/1 8/8/1 6/6/1
f 10/7/1 9/9/1 11/10/1
f 11/10/1 12/1/1 10/7/1
f 10/12/2 13/11/2 14/13/2
f 14/13/2 15/14/2 10/12/2
f 15/14/2 14/13/2 8/15/2
f 8/15/2 7/16/2 15/14/2
f 9/17/2 10/12/2 15/14/2
f 9/17/2 15/14/2 16/18/2
f 17/19/2 9/17/2 16/18/2
f 17/19/2 16/18/2 18/20/2
f 18/20/2 19/21/2 17/19/2
f 18/20/2 16/18/2 20/22/2
f 22/24/3 21/23/3 17/25/3
f 17/25/3 19/26/3 22/24/3
f 23/27/2 5/16/2 6/15/2
f 6/15/2 24/28/2 23/27/2
f 26/30/1 25/29/1 18/26/1
f 18/26/1 20/9/1 26/30/1
f 28/10/1 27/31/1 29/32/1
f 29/32/1 30/33/1 28/10/1
f 23/35/4 31/34/4 3/33/4
f 3/33/4 5/36/4 23/35/4
f 3/33/4 1/10/4 5/36/4
f 1/10/4 7/9/4 5/36/4
f 1/10/4 32/37/4 7/9/4
f 32/37/4 15/38/4 7/9/4
f 16/25/3 15/39/3 32/40/3
f 32/40/3 33/41/3 16/25/3
f 2/41/5 4/42/5 6/43/5
f 6/43/5 8/25/5 2/41/5
f 8/25/5 34/44/5 2/41/5
f 8/25/5 14/45/5 34/44/5
f 14/45/5 35/46/5 34/44/5
f 6/43/5 4/42/5 36/47/5
f 36/47/5 24/48/5 6/43/5
f 4/42/5 37/49/5 36/47/5
f 4/42/5 35/46/5 37/49/5
f 35/46/5 14/45/5 37/49/5
f 14/45/5 38/50/5 37/49/5
f 14/45/5 39/51/5 38/50/5
f 3/16/2 40/11/2 35/13/2
f 35/13/2 4/15/2 3/16/2
f 40/11/2 3/16/2 31/27/2
f 41/52/2 40/11/2 31/27/2
f 41/52/2 31/27/2 42/53/2
f 41/52/2 42/53/2 30/22/2
f 41/52/2 30/22/2 43/19/2
f 43/19/2 44/54/2 41/52/2
f 43/19/2 30/22/2 29/55/2
f 29/55/2 45/56/2 43/19/2
f 23/58/3 24/57/3 36/59/3
f 36/59/3 31/60/3 23/58/3
f 36/59/3 42/42/3 31/60/3
f 42/42/3 36/59/3 46/61/3
f 42/42/3 46/61/3 47/24/3
f 47/24/3 48/23/3 42/42/3
f 22/56/2 49/62/2 50/54/2
f 50/54/2 21/19/2 22/56/2
f 47/24/2 25/55/2 26/22/2
f 26/22/2 48/53/2 47/24/2
f 28/41/5 26/63/5 20/25/5
f 20/25/5 33/64/5 28/41/5
f 20/25/5 16/65/5 33/64/5
f 26/63/5 28/41/5 30/42/5
f 26/63/5 30/42/5 42/66/5
f 42/66/5 48/67/5 26/63/5
f 52/31/3 51/41/3 43/42/3
f 43/42/3 45/32/3 52/31/3
f 17/45/5 21/68/5 50/69/5
f 50/69/5 43/46/5 17/45/5
f 50/69/5 44/70/5 43/46/5
f 17/45/5 43/46/5 51/44/5
f 9/71/5 17/45/5 51/44/5
f 51/44/5 11/72/5 9/71/5
f 53/74/3 39/73/3 14/75/3
f 14/75/3 13/39/3 53/74/3
f 54/40/3 34/76/3 35/77/3
f 35/77/3 40/60/3 54/40/3
f 54/79/4 40/78/4 41/80/4
f 41/80/4 13/81/4 54/79/4
f 13/81/4 41/80/4 55/82/4
f 55/82/4 53/83/4 13/81/4
f 54/79/4 13/81/4 10/84/4
f 10/84/4 12/85/4 54/79/4
f 53/11/2 55/52/2 38/86/2
f 38/86/2 39/13/2 53/11/2
f 52/88/6 27/87/6 28/89/6
f 28/89/6 33/90/6 52/88/6
f 51/91/6 52/88/6 33/90/6
f 33/90/6 11/92/6 51/91/6
f 11/92/6 33/90/6 32/93/6
f 32/93/6 12/94/6 11/92/6
f 2/95/6 12/94/6 32/93/6
f 32/93/6 1/96/6 2/95/6
f 12/94/6 2/95/6 34/97/6
f 34/97/6 54/98/6 12/94/6
f 50/53/1 49/24/1 56/99/1
f 56/99/1 44/33/1 50/53/1
f 56/99/1 41/3/1 44/33/1
f 41/3/1 56/99/1 37/100/1
f 41/3/1 37/100/1 38/28/1
f 38/28/1 55/27/1 41/3/1
f 29/33/4 47/24/4 46/61/4
f 46/61/4 56/101/4 29/33/4
f 56/101/4 45/78/4 29/33/4
f 56/101/4 19/81/4 45/78/4
f 56/101/4 22/102/4 19/81/4
f 56/101/4 49/103/4 22/102/4
f 25/104/4 47/24/4 29/33/4
f 29/33/4 27/10/4 25/104/4
f 27/10/4 18/9/4 25/104/4
f 27/10/4 52/79/4 18/9/4
f 52/79/4 19/81/4 18/9/4
f 52/79/4 45/78/4 19/81/4

usemtl carpet
usemap carpet

f 58/106/6 57/105/6 59/107/6
f 59/107/6 60/108/6 58/106/6
f 62/110/3 61/109/3 59/111/3
f 59/111/3 57/112/3 62/110/3
f 62/114/4 57/113/4 58/115/4
f 58/115/4 63/116/4 62/114/4
f 56/118/2 46/117/2 63/119/2
f 63/119/2 64/120/2 56/118/2
f 64/120/2 37/86/2 56/118/2
f 64/120/2 36/121/2 37/86/2
f 62/122/2 63/119/2 46/117/2
f 46/117/2 61/123/2 62/122/2
f 46/117/2 36/121/2 61/123/2
f 36/121/2 64/120/2 61/123/2
f 59/112/5 61/110/5 64/124/5
f 64/124/5 60/125/5 59/112/5
f 64/126/1 63/114/1 58/113/1
f 58/113/1 60/127/1 64/126/1

usemtl _defaultMat
usemap _defaultMat

f 56/79/6 46/78/6 36/81/6
f 36/79/6 37/78/6 56/81/6
