# Exported using Kenney Suite 1.2 

mtllib computerKeyboard.mtl 

g computerKeyboard

v 0 1.646706E-15 1.18192 
v 0 1.646706E-15 3.609557E-15 
v -2.822 1.602965E-30 1.18192 
v -2.822 1.602965E-30 3.609557E-15 
v 0 0.27556 0.9712375 
v 0 0.27556 1.18192 
v -2.822 0.27556 0.9712375 
v -2.822 0.27556 1.18192 
v -0.1908449 0.1061239 0.16569 
v 0 0.07127325 3.609557E-15 
v -2.822 0.07127325 3.609557E-15 
v -1.969477 0.1061239 0.16569 
v -2.175664 0.1061239 0.16569 
v -1.969477 0.2407093 0.8055475 
v -2.631155 0.1061239 0.16569 
v -2.631155 0.2407093 0.8055475 
v -0.1908449 0.2407093 0.8055475 
v -2.175664 0.2407093 0.8055475 

vn 0 -1 0
vn 0 1 0
vn 0 0.9785872 -0.2058326
vn 0 0 1
vn 0 0 -1
vn -1 0 0
vn 1 0 0

vt 0 4.653228
vt 0 1.421085E-14
vt -11.11024 4.653228
vt -11.11024 1.421085E-14
vt 0 3.82377
vt 11.11024 3.82377
vt 11.11024 4.653228
vt 1.077029E-14 3.965196
vt 0.751358 0.7243539
vt 4.002726E-29 0.05775734
vt 11.11024 0.05775734
vt 7.753848 0.7243539
vt 8.565606 0.7243539
vt 7.753848 3.2986
vt 10.35888 0.7243539
vt 10.35888 3.2986
vt 0.751358 3.2986
vt 11.11024 3.965196
vt 8.565606 3.2986
vt -11.11024 6.310887E-30
vt -11.11024 1.084882
vt 0 6.483094E-15
vt 0 1.084882
vt 11.11024 6.310887E-30
vt 11.11024 0.2806034
vt 0 0.2806034
vt 3.132764E-14 -7.999173E-14
vt 3.132764E-14 0.2806034
vt 4.653228 -7.999173E-14
vt 3.82377 1.084882
vt 4.653228 1.084882
vt -1.421085E-14 0.2806034
vt -1.421085E-14 6.483094E-15
vt -3.82377 1.084882
vt -4.653228 6.483094E-15
vt -4.653228 1.084882

usemtl metalDark
usemap metalDark

f 2/2/1 1/1/1 3/3/1
f 3/3/1 4/4/1 2/2/1
f 6/1/2 5/5/2 7/6/2
f 7/6/2 8/7/2 6/1/2
f 9/9/3 5/8/3 10/10/3
f 10/10/3 11/11/3 9/9/3
f 11/11/3 12/12/3 9/9/3
f 11/11/3 13/13/3 12/12/3
f 13/13/3 14/14/3 12/12/3
f 11/11/3 15/15/3 13/13/3
f 11/11/3 16/16/3 15/15/3
f 5/8/3 9/9/3 17/17/3
f 17/17/3 7/18/3 5/8/3
f 17/17/3 14/14/3 7/18/3
f 16/16/3 11/11/3 7/18/3
f 14/14/3 18/19/3 7/18/3
f 14/14/3 13/13/3 18/19/3
f 18/19/3 16/16/3 7/18/3
f 8/21/4 3/20/4 1/22/4
f 1/22/4 6/23/4 8/21/4
f 2/22/5 4/24/5 11/25/5
f 11/25/5 10/26/5 2/22/5
f 11/28/6 4/27/6 3/29/6
f 3/29/6 7/30/6 11/28/6
f 3/29/6 8/31/6 7/30/6
f 2/33/7 10/32/7 5/34/7
f 5/34/7 1/35/7 2/33/7
f 5/34/7 6/36/7 1/35/7

usemtl metalMedium
usemap metalMedium

f 17/17/3 9/9/3 12/12/3
f 12/12/3 14/14/3 17/17/3
f 18/19/3 13/13/3 15/15/3
f 15/15/3 16/16/3 18/19/3
