# Exported using Kenney Suite 1.2 

mtllib lampSquareTable.mtl 

g lampSquareTable

v -1.2 1.4 0 
v -1.2 2.9 0 
v -1.2 1.4 1.2 
v -1.2 2.9 1.2 
v 0 1.4 1.2 
v 0 2.9 1.2 
v 0 1.4 0 
v 0 2.9 0 
v -0.2081921 2.9 0.2081921 
v -0.9918079 2.9 0.2081921 
v -0.9918079 2.9 0.9918079 
v -0.2081921 2.9 0.9918079 
v -0.2081921 1.4 0.9918079 
v -0.9918079 1.4 0.9918079 
v -0.9918079 1.4 0.2081921 
v -0.2081921 1.4 0.2081921 
v -0.5092685 0.2 0.6907315 
v -0.6907315 0.2 0.6907315 
v -0.5092685 2.15 0.6907315 
v -0.6907315 2.15 0.6907315 
v -0.6907315 0.2 0.5092685 
v -0.5092685 0.2 0.5092685 
v -0.6907315 2.15 0.5092685 
v -0.5092685 2.15 0.5092685 
v -1.2 0 0 
v 0 0 0 
v -1.2 0.2 0 
v 0 0.2 0 
v 0 0 1.2 
v -1.2 0 1.2 
v 0 0.2 1.2 
v -1.2 0.2 1.2 

vn -1 0 0
vn 0 0 1
vn 0 0 -1
vn 0 1 0
vn 1 0 0
vn 0 -1 0

vt 0 5.511811
vt 0 11.41732
vt 4.72441 5.511811
vt 4.72441 11.41732
vt -4.72441 5.511811
vt -4.72441 11.41732
vt 0 4.72441
vt 0.819654 0.819654
vt 0 0
vt 4.72441 0
vt 3.904755 0.819654
vt 3.904755 3.904755
vt 0.819654 3.904755
vt 4.72441 4.72441
vt -0.819654 3.904755
vt -4.72441 4.72441
vt -3.904755 3.904755
vt -3.904755 0.819654
vt -0.819654 0.819654
vt -4.72441 0
vt 0.819654 5.511811
vt 0.819654 11.41732
vt 3.904755 5.511811
vt 3.904755 11.41732
vt -0.819654 5.511811
vt -3.904755 5.511811
vt -0.819654 11.41732
vt -3.904755 11.41732
vt -2.004994 0.7874016
vt -2.719415 0.7874016
vt -2.004994 8.464567
vt -2.719415 8.464567
vt 2.719415 0.7874016
vt 2.004994 0.7874016
vt 2.719415 8.464567
vt 2.004994 8.464567
vt 4.72441 0.7874016
vt 0 0.7874016
vt -4.72441 0.7874016
vt 2.004994 2.004994
vt 2.719415 2.004994
vt 2.719415 2.719415
vt 2.004994 2.719415

usemtl lamp
usemap lamp

f 2/2/1 1/1/1 3/3/1
f 3/3/1 4/4/1 2/2/1
f 3/5/2 5/1/2 6/2/2
f 6/2/2 4/6/2 3/5/2
f 7/1/3 1/3/3 2/4/3
f 2/4/3 8/2/3 7/1/3
f 9/8/4 6/7/4 8/9/4
f 8/9/4 2/10/4 9/8/4
f 2/10/4 10/11/4 9/8/4
f 2/10/4 11/12/4 10/11/4
f 6/7/4 9/8/4 12/13/4
f 12/13/4 4/14/4 6/7/4
f 12/13/4 11/12/4 4/14/4
f 11/12/4 2/10/4 4/14/4
f 7/1/5 8/2/5 6/6/5
f 6/6/5 5/5/5 7/1/5
f 13/15/6 7/9/6 5/7/6
f 5/7/6 3/16/6 13/15/6
f 3/16/6 14/17/6 13/15/6
f 3/16/6 15/18/6 14/17/6
f 7/9/6 13/15/6 16/19/6
f 16/19/6 1/20/6 7/9/6
f 16/19/6 15/18/6 1/20/6
f 15/18/6 3/16/6 1/20/6
f 9/22/1 16/21/1 13/23/1
f 13/23/1 12/24/1 9/22/1
f 15/26/2 16/25/2 9/27/2
f 9/27/2 10/28/2 15/26/2
f 13/21/3 14/23/3 11/24/3
f 11/24/3 12/22/3 13/21/3
f 15/25/5 10/27/5 11/28/5
f 11/28/5 14/26/5 15/25/5

usemtl metal
usemap metal

f 18/30/2 17/29/2 19/31/2
f 19/31/2 20/32/2 18/30/2
f 22/34/3 21/33/3 23/35/3
f 23/35/3 24/36/3 22/34/3
f 26/9/3 25/10/3 27/37/3
f 27/37/3 28/38/3 26/9/3
f 30/20/2 29/9/2 31/38/2
f 31/38/2 32/39/2 30/20/2
f 26/9/6 29/7/6 30/16/6
f 30/16/6 25/20/6 26/9/6
f 23/36/1 21/34/1 18/33/1
f 18/33/1 20/35/1 23/36/1
f 22/40/4 31/7/4 28/9/4
f 28/9/4 27/10/4 22/40/4
f 27/10/4 21/41/4 22/40/4
f 27/10/4 18/42/4 21/41/4
f 31/7/4 22/40/4 17/43/4
f 17/43/4 32/14/4 31/7/4
f 17/43/4 18/42/4 32/14/4
f 18/42/4 27/10/4 32/14/4
f 27/38/1 25/9/1 30/10/1
f 30/10/1 32/37/1 27/38/1
f 26/9/5 28/38/5 31/39/5
f 31/39/5 29/20/5 26/9/5
f 22/29/5 24/31/5 19/32/5
f 19/32/5 17/30/5 22/29/5
f 19/43/4 24/40/4 23/41/4
f 23/41/4 20/42/4 19/43/4
