# Exported using Kenney Suite 1.2 

mtllib pottedPlant.mtl 

g pottedPlant

v -1.71577 2.4304 0.4953 
v -1.71577 2.4304 1.4859 
v -1.533385 0 0.6006 
v -1.533385 0 1.3806 
v -1.503376 2.4304 0.6179253 
v -1.503376 2.1824 0.6179253 
v -1.503376 2.4304 1.363275 
v -1.503376 2.1824 1.363275 
v -0.8578848 2.1824 1.73595 
v -0.8578848 2.4304 1.73595 
v -0.8578848 2.1824 0.2452505 
v -0.8578848 2.4304 0.2452505 
v -0.2123932 2.1824 1.363275 
v -0.2123932 2.4304 1.363275 
v -0.2123932 2.4304 0.6179252 
v -2.952812E-08 2.4304 0.4953 
v -0.8578848 2.4304 0 
v 0 2.4304 1.4859 
v -0.8578848 2.4304 1.9812 
v -0.8578848 0 1.7706 
v -0.8578848 0 0.2106 
v -0.182385 0 0.6005999 
v -0.2123932 2.1824 0.6179252 
v -0.182385 0 1.3806 

vn -0.9971961 -0.07483277 0
vn 1 0 0
vn 0.5 0 -0.8660254
vn 0.5 0 0.8660254
vn -0.5 0 -0.8660254
vn 0 1 0
vn -0.498598 -0.07483277 0.8635972
vn 0.498598 -0.07483277 -0.8635972
vn -1 0 0
vn 0 -1 0
vn -0.498598 -0.07483277 -0.8635972
vn -0.5 0 0.8660254
vn 0.498598 -0.07483277 0.8635972
vn 0.9971961 -0.07483277 0

vt 0.975 5.023585
vt 2.925 5.023585
vt 1.182283 0.2258807
vt 2.717716 0.2258807
vt -1.216388 4.784252
vt -1.216388 4.296063
vt -2.683612 4.784252
vt -2.683612 4.296063
vt 1.221112 4.296063
vt -0.2461116 4.296063
vt 1.221112 4.784252
vt -0.2461116 4.784252
vt -1.703888 4.296063
vt -3.171112 4.296063
vt -1.703888 4.784252
vt -3.171112 4.784252
vt 3.171112 4.296063
vt 1.703888 4.296063
vt 3.171112 4.784252
vt 1.703888 4.784252
vt 0.4180968 2.683612
vt 0.4180968 1.216388
vt 5.812622E-08 0.975
vt 1.68875 0
vt 1.68875 0.4827766
vt 2.959402 1.216388
vt 3.377499 0.975
vt 3.377499 2.925
vt 0 2.925
vt 1.68875 3.9
vt 1.68875 3.417223
vt 2.959402 2.683612
vt 0.2802164 0.2890676
vt -1.255217 0.2890676
vt 0.4874999 5.086772
vt -1.4625 5.086772
vt 1.255217 -0.09005377
vt -0.2802164 -0.09005377
vt 1.4625 4.707651
vt -0.4874999 4.707651
vt 1.216388 4.296063
vt 1.216388 4.784252
vt 2.683612 4.296063
vt 2.683612 4.784252
vt -0.3590255 2.717716
vt -0.3590255 1.182283
vt -1.68875 3.485433
vt -1.68875 0.4145669
vt -3.018474 2.717717
vt -3.018474 1.182284
vt 3.205217 0.03632004
vt 1.669783 0.03632004
vt 3.4125 4.834024
vt 1.4625 4.834024
vt 0.2461116 4.296063
vt -1.221112 4.296063
vt 0.2461116 4.784252
vt -1.221112 4.784252
vt -1.669783 0.1626938
vt -3.205217 0.1626938
vt -1.4625 4.960398
vt -3.4125 4.960398
vt -0.975 4.770837
vt -1.182283 -0.02686688
vt -2.925 4.770837
vt -2.717716 -0.02686688

usemtl wood
usemap wood

f 2/2/1 1/1/1 3/3/1
f 3/3/1 4/4/1 2/2/1
f 6/6/2 5/5/2 7/7/2
f 7/7/2 8/8/2 6/6/2
f 9/10/3 8/9/3 7/11/3
f 7/11/3 10/12/3 9/10/3
f 6/14/4 11/13/4 12/15/4
f 12/15/4 5/16/4 6/14/4
f 13/18/5 9/17/5 10/19/5
f 10/19/5 14/20/5 13/18/5
f 15/22/6 14/21/6 16/23/6
f 16/23/6 17/24/6 15/22/6
f 17/24/6 12/25/6 15/22/6
f 17/24/6 5/26/6 12/25/6
f 17/24/6 1/27/6 5/26/6
f 1/27/6 2/28/6 5/26/6
f 18/29/6 16/23/6 14/21/6
f 14/21/6 19/30/6 18/29/6
f 14/21/6 10/31/6 19/30/6
f 10/31/6 2/28/6 19/30/6
f 10/31/6 7/32/6 2/28/6
f 7/32/6 5/26/6 2/28/6
f 4/34/7 20/33/7 19/35/7
f 19/35/7 2/36/7 4/34/7
f 22/38/8 21/37/8 17/39/8
f 17/39/8 16/40/8 22/38/8
f 15/42/9 23/41/9 13/43/9
f 13/43/9 14/44/9 15/42/9
f 22/46/10 24/45/10 20/47/10
f 20/47/10 21/48/10 22/46/10
f 20/47/10 4/49/10 21/48/10
f 4/49/10 3/50/10 21/48/10
f 21/52/11 3/51/11 1/53/11
f 1/53/11 17/54/11 21/52/11
f 11/56/12 23/55/12 15/57/12
f 15/57/12 12/58/12 11/56/12
f 20/60/13 24/59/13 18/61/13
f 18/61/13 19/62/13 20/60/13
f 22/64/14 16/63/14 18/65/14
f 18/65/14 24/66/14 22/64/14

usemtl woodDark
usemap woodDark

f 9/31/6 13/21/6 23/22/6
f 23/22/6 11/25/6 9/31/6
f 11/25/6 8/32/6 9/31/6
f 11/25/6 6/26/6 8/32/6
g plant

v 0.2024116 6.540168 0.9905999 
v -0.8578848 1.1824 0.9905999 
v -0.6294587 3.529258 1.480488 
v -1.455548 2.920813 1.250698 
v -0.8578848 5.151117 2.19791 
v -0.2602214 2.920813 0.7305018 
v -0.8578848 5.151117 -0.2167098 
v -1.086311 3.529258 0.5007119 
v -1.918181 6.540168 0.9905999 
v -1.455548 2.920813 0.7305019 
v -1.086311 3.529258 1.480488 
v -0.6294587 3.529258 0.5007119 
v -0.2602214 2.920813 1.250698 

vn 0.8869137 -0.1755192 0.4272904
vn -0.8869137 0.1755192 -0.4272904
vn -0.3951705 -0.2673497 0.8788426
vn 0.3951705 0.2673497 -0.8788426
vn 0.3951705 -0.2673497 -0.8788426
vn -0.3951705 0.2673497 0.8788426
vn -0.8869137 -0.1755192 -0.4272904
vn 0.8869137 0.1755192 0.4272904
vn -0.3951705 -0.2673497 -0.8788426
vn 0.3951705 0.2673497 0.8788426
vn -0.8869137 -0.1755192 0.4272904
vn 0.8869137 0.1755192 -0.4272904
vn 0.8869137 -0.1755192 -0.4272904
vn -0.8869137 0.1755192 0.4272904
vn 0.3951705 -0.2673497 0.8788426
vn -0.3951705 0.2673497 -0.8788426

vt -4.282144 21.12822
vt -6.093949 -0.2979776
vt -7.441179 9.087317
vt -1.857947 1.616668
vt -3.584041 8.719356
vt 0.09132689 17.83178
vt 1.857947 -1.616668
vt 0.131853 5.486019
vt 3.807221 14.59844
vt 6.093949 0.2979776
vt 4.746719 9.683272
vt 7.905754 21.72417
vt 7.482589 6.401377
vt 5.756495 -0.7013096
vt 3.807221 15.5138
vt 2.470338 1.022176
vt 0.6585331 22.44837
vt 3.817568 10.40747
vt -4.282144 20.40402
vt -1.123109 8.363118
vt -2.470338 -1.022176
vt -4.030401 7.803997
vt -5.756495 0.7013096
vt -7.705769 16.91642

usemtl plant
usemap plant

f 26/68/15 25/67/15 27/69/15
f 26/68/16 27/69/16 25/67/16
f 28/71/17 26/70/17 29/72/17
f 28/71/18 29/72/18 26/70/18
f 30/74/19 26/73/19 31/75/19
f 30/74/20 31/75/20 26/73/20
f 32/77/21 26/76/21 33/78/21
f 32/77/22 33/78/22 26/76/22
f 26/80/23 34/79/23 31/81/23
f 26/80/24 31/81/24 34/79/24
f 33/83/25 26/82/25 35/84/25
f 33/83/26 35/84/26 26/82/26
f 36/86/27 25/85/27 26/87/27
f 36/86/28 26/87/28 25/85/28
f 26/89/29 37/88/29 29/90/29
f 26/89/30 29/90/30 37/88/30
