# Exported using Kenney Suite 1.2 

mtllib wallDoorwayWide.mtl 

g wallDoorwayWide

v 0 12.89532 0 
v 0 0 0 
v 0 12.89532 0.5 
v 0 0 0.5 
v -10 0 0 
v -10 12.89532 0 
v -10 0 0.5 
v -10 12.89532 0.5 
v -9.5765 -1.97924E-15 9.168275E-13 
v -9.5765 10.09532 9.168275E-13 
v -0.4235 -1.587726E-15 -5.558718E-13 
v -0.4235 10.09532 -5.558718E-13 
v -9.5765 -2.136945E-15 0.5 
v -9.5765 -1.55211E-15 -0.1955 
v -9.5765 -2.114171E-15 0.6955 
v -9.292999 0 -0.1955 
v -9.292999 0 0.6955 
v -0.4235 10.09532 0.5 
v -0.4235 -1.540343E-15 0.5 
v -0.4235 10.09532 0.6955 
v -0.4235 -1.437378E-15 0.6955 
v -0.707 0 0.6955 
v -0.707 9.811817 0.6955 
v -9.292999 9.811817 0.6955 
v -9.5765 10.09532 0.6955 
v -0.4235 -1.606253E-15 -0.1955 
v -0.707 0 -0.1955 
v -0.707 9.811817 -0.1955 
v -9.292999 9.811817 -0.1955 
v -9.5765 10.09532 -0.1955 
v -0.4235 10.09532 -0.1955 
v -9.5765 10.09532 0.5 

vn 1 0 0
vn -1 0 0
vn 0 0 -1
vn 0 1 0
vn 0 -1 0
vn 0 0 1

vt 0 0
vt 39.37008 1.968504
vt 39.37008 0
vt 0 1.968504
vt 2.738189 39.74535
vt 2.738189 -8.323506E-15
vt 1.968504 39.74535
vt -37.70275 1.968504
vt -37.70275 3.609557E-12
vt -39.37008 1.968504
vt -39.37008 5.842038E-30
vt -37.70275 -0.769685
vt -37.70275 2.738189
vt -36.58661 -0.769685
vt -36.58661 2.738189
vt -1.968504 39.74535
vt -1.968504 -6.064341E-15
vt -2.738189 39.74535
vt -2.738189 -5.658971E-15
vt -1.667323 -5.658971E-15
vt -2.783465 1.115833E-29
vt -1.667323 39.74535
vt -2.783465 38.6292
vt -36.58661 38.6292
vt -37.70275 39.74535
vt -36.58661 1.115833E-29
vt -37.70275 -8.323506E-15
vt -1.667323 2.738189
vt -1.667323 1.968504
vt -2.783465 2.738189
vt -1.667323 -2.188472E-12
vt -1.667323 -0.769685
vt -2.783465 -0.769685
vt 37.70275 -6.110668E-15
vt 36.58661 3.237705E-30
vt 37.70275 39.74535
vt 36.58661 38.6292
vt 2.783465 38.6292
vt 1.667323 39.74535
vt 2.783465 3.237705E-30
vt 1.667323 -6.32383E-15
vt -0.769685 0
vt -0.769685 38.6292
vt 2.738189 0
vt 2.738189 38.6292
vt 1.667323 1.968504
vt 1.667323 2.738189
vt 37.70275 1.968504
vt 37.70275 2.738189
vt 1.968504 -8.413169E-15
vt 0.769685 38.6292
vt 0.769685 0
vt -2.738189 38.6292
vt -2.738189 0
vt -0.769685 -6.110668E-15
vt -0.769685 39.74535
vt 3.609557E-12 -7.792283E-15
vt 3.609557E-12 39.74535
vt 1.667323 -0.769685
vt 1.667323 -2.371928E-12
vt 37.70275 -0.769685
vt 37.70275 3.426101E-12
vt 0.769685 39.74535
vt 0.769685 -6.32383E-15
vt 2.188472E-12 39.74535
vt 2.188472E-12 -6.25089E-15
vt -1.667323 -9.719872E-15
vt -1.443849E-13 -3.65553E-15
vt -1.443849E-13 50.76897
vt -39.37008 50.76897
vt -39.37008 -3.65553E-15
vt -37.70275 -1.20687E-14

usemtl _defaultMat
usemap _defaultMat

f 2/1/1 1/1/1 3/1/1
f 3/1/1 4/1/1 2/1/1
f 6/3/2 5/2/2 7/4/2
f 7/3/2 8/2/2 6/4/2
f 10/6/3 9/5/3 5/7/3
f 5/6/3 6/5/3 10/7/3
f 2/6/3 11/5/3 12/7/3
f 12/6/3 1/5/3 2/7/3
f 12/6/3 10/5/3 1/7/3
f 10/6/3 6/5/3 1/7/3

usemtl wood
usemap wood

f 3/4/4 1/1/4 6/3/4
f 6/3/4 8/2/4 3/4/4
f 9/9/5 13/8/5 7/10/5
f 7/10/5 5/11/5 9/9/5
f 13/8/5 9/9/5 14/12/5
f 15/13/5 13/8/5 14/12/5
f 15/13/5 14/12/5 16/14/5
f 16/14/5 17/15/5 15/13/5
f 19/17/1 18/16/1 20/18/1
f 20/18/1 21/19/1 19/17/1
f 22/21/6 21/20/6 20/22/6
f 20/22/6 23/23/6 22/21/6
f 20/22/6 24/24/6 23/23/6
f 24/24/6 20/22/6 25/25/6
f 17/26/6 24/24/6 25/25/6
f 25/25/6 15/27/6 17/26/6
f 19/29/5 21/28/5 22/30/5
f 22/30/5 11/31/5 19/29/5
f 22/30/5 26/32/5 11/31/5
f 22/30/5 27/33/5 26/32/5
f 19/29/5 11/31/5 2/1/5
f 2/1/5 4/4/5 19/29/5
f 28/33/5 23/30/5 24/15/5
f 24/15/5 29/14/5 28/33/5
f 16/35/3 14/34/3 30/36/3
f 30/36/3 29/37/3 16/35/3
f 30/36/3 28/38/3 29/37/3
f 28/38/3 30/36/3 31/39/3
f 27/40/3 28/38/3 31/39/3
f 31/39/3 26/41/3 27/40/3
f 28/43/2 27/42/2 22/44/2
f 22/44/2 23/45/2 28/43/2
f 20/47/4 18/46/4 32/48/4
f 32/48/4 25/49/4 20/47/4
f 32/7/2 13/50/2 15/6/2
f 15/6/2 25/5/2 32/7/2
f 16/52/1 29/51/1 24/53/1
f 24/53/1 17/54/1 16/52/1
f 30/56/2 14/55/2 9/57/2
f 9/57/2 10/58/2 30/56/2
f 12/60/4 31/59/4 30/61/4
f 30/61/4 10/62/4 12/60/4
f 26/64/1 31/63/1 12/65/1
f 12/65/1 11/66/1 26/64/1

usemtl metalDark
usemap metalDark

f 18/22/6 19/67/6 4/68/6
f 4/68/6 3/69/6 18/22/6
f 3/69/6 32/25/6 18/22/6
f 32/25/6 3/69/6 8/70/6
f 32/25/6 8/70/6 7/71/6
f 7/71/6 13/72/6 32/25/6
