# Exported using Kenney Suite 1.2 

mtllib wall.mtl 

g wall

v 0 0 0.5 
v 0 0 0 
v -10 0 0.5 
v -10 0 0 
v 0 12.89532 0 
v 0 12.89532 0.5 
v -10 12.89532 0 
v -10 12.89532 0.5 

vn 0 -1 0
vn 0 1 0
vn 1 0 0
vn -1 0 0
vn 0 0 -1
vn 0 0 1

vt 0 1.968504
vt 0 0
vt -39.37008 1.968504
vt -39.37008 0
vt 39.37008 0
vt 39.37008 1.968504
vt -39.37008 50.76897
vt 0 50.76897

usemtl wood
usemap wood

f 2/2/1 1/1/1 3/3/1
f 3/3/1 4/4/1 2/2/1
f 6/1/2 5/2/2 7/5/2
f 7/5/2 8/6/2 6/1/2

usemtl _defaultMat
usemap _defaultMat

f 2/3/3 5/4/3 6/2/3
f 6/3/3 1/4/3 2/2/3
f 7/5/4 4/6/4 3/1/4
f 3/5/4 8/6/4 7/1/4
f 2/8/5 4/7/5 7/4/5
f 7/8/5 5/7/5 2/4/5

usemtl metalDark
usemap metalDark

f 3/4/6 1/2/6 6/8/6
f 6/8/6 8/7/6 3/4/6
